<svg xmlns="http://www.w3.org/2000/svg" viewBox="0, 0, 400, 400" style="height: fit-content;">
    <path fill="#ffffff" d="M 197.240 11.530 C 196.493 11.601,195.500 11.909,195.034 12.215 C 194.568 12.520,192.953 12.859,191.444 12.967 C 189.921 13.077,188.412 13.417,188.051 13.732 C 187.693 14.043,186.538 14.390,185.484 14.502 C 184.430 14.614,183.246 14.997,182.852 15.353 C 182.459 15.709,181.504 16.000,180.730 16.000 C 179.832 16.000,179.063 16.289,178.600 16.800 C 178.202 17.240,177.499 17.601,177.038 17.601 C 176.577 17.602,175.611 17.962,174.890 18.401 C 174.170 18.841,173.249 19.200,172.844 19.200 C 172.439 19.200,171.650 19.560,171.091 20.000 C 170.531 20.440,169.918 20.800,169.728 20.800 C 169.538 20.800,168.307 21.515,166.991 22.389 C 165.676 23.262,164.304 23.982,163.943 23.989 C 163.581 23.995,163.191 24.247,163.075 24.548 C 162.959 24.850,161.968 25.615,160.871 26.248 C 158.776 27.458,153.248 32.535,150.700 35.588 C 147.695 39.189,149.540 41.468,153.284 38.778 C 153.880 38.350,154.707 38.000,155.122 38.000 C 155.537 38.000,156.202 37.640,156.600 37.200 C 156.998 36.760,157.718 36.400,158.200 36.400 C 158.682 36.400,159.402 36.040,159.800 35.600 C 160.231 35.124,161.032 34.800,161.777 34.800 C 162.467 34.800,163.744 34.432,164.615 33.981 C 166.374 33.073,169.506 33.179,172.541 34.250 C 173.714 34.664,176.725 34.800,184.686 34.800 L 195.271 34.800 197.062 36.643 C 198.756 38.386,199.103 39.600,197.907 39.600 C 197.621 39.600,196.716 39.960,195.896 40.400 C 194.493 41.151,193.639 41.200,181.811 41.200 C 169.931 41.200,169.145 41.245,167.910 41.999 C 167.014 42.545,165.892 42.797,164.362 42.799 C 162.633 42.800,161.959 42.982,161.400 43.600 C 161.002 44.040,160.427 44.400,160.122 44.400 C 159.544 44.400,157.582 45.693,156.328 46.900 C 155.927 47.285,155.394 47.600,155.141 47.600 C 154.716 47.600,153.089 48.852,150.238 51.373 C 149.599 51.938,148.948 52.400,148.791 52.400 C 148.351 52.400,145.600 56.066,145.600 56.652 C 145.600 56.939,146.415 58.091,147.412 59.213 C 148.408 60.335,149.646 61.922,150.162 62.740 C 150.678 63.558,152.023 65.236,153.150 66.470 C 154.612 68.069,155.201 69.040,155.203 69.856 C 155.204 70.485,155.563 71.540,156.000 72.200 C 156.613 73.126,156.796 74.085,156.802 76.400 L 156.810 79.400 158.741 81.400 C 161.487 84.243,161.753 84.859,161.009 86.640 C 160.084 88.853,160.112 88.908,164.500 93.437 C 166.755 95.765,168.647 97.879,168.705 98.135 C 168.848 98.772,165.703 100.511,165.090 100.133 C 164.127 99.538,161.385 96.309,160.575 94.814 C 160.121 93.978,159.446 92.989,159.075 92.618 C 158.704 92.247,158.400 91.624,158.400 91.233 C 158.400 90.843,158.040 90.198,157.600 89.800 C 157.116 89.362,156.800 88.568,156.800 87.792 C 156.800 87.086,156.440 86.050,156.000 85.491 C 155.560 84.931,155.199 83.872,155.197 83.137 C 155.196 82.402,154.837 81.260,154.400 80.600 C 153.963 79.940,153.604 78.932,153.603 78.360 C 153.599 76.988,151.418 74.000,150.421 74.000 C 149.995 74.000,149.531 73.813,149.390 73.584 C 149.249 73.355,148.444 72.733,147.602 72.201 C 146.588 71.561,145.983 70.833,145.810 70.045 C 145.666 69.391,145.290 68.641,144.974 68.379 C 144.658 68.117,144.400 67.678,144.400 67.405 C 144.400 65.521,140.960 63.834,138.969 64.741 C 137.648 65.343,137.537 69.485,138.800 71.091 C 139.240 71.650,139.601 72.399,139.603 72.754 C 139.604 73.109,139.963 73.940,140.400 74.600 C 140.837 75.260,141.196 76.103,141.197 76.472 C 141.206 78.576,142.898 79.965,145.474 79.983 C 148.548 80.004,149.905 80.499,150.391 81.777 C 150.598 82.322,151.131 83.131,151.574 83.574 C 152.720 84.720,152.983 86.203,152.449 88.516 C 152.036 90.303,152.075 90.698,152.792 92.075 C 153.237 92.927,153.601 94.024,153.603 94.512 C 153.604 95.001,153.963 95.940,154.400 96.600 C 154.837 97.260,155.196 98.312,155.197 98.937 C 155.199 99.562,155.560 100.531,156.000 101.091 C 157.072 102.454,157.072 105.381,156.000 107.000 C 155.500 107.754,155.204 108.877,155.203 110.024 C 155.201 111.026,154.936 112.196,154.613 112.624 C 153.856 113.624,153.853 114.750,154.600 116.538 C 154.984 117.457,155.200 119.283,155.200 121.607 C 155.200 124.305,155.379 125.569,155.897 126.520 C 156.336 127.325,156.670 129.063,156.797 131.200 L 157.000 134.600 165.872 134.708 L 174.745 134.815 175.972 136.365 C 176.648 137.218,177.200 138.123,177.200 138.378 C 177.200 138.633,177.856 139.115,178.658 139.450 C 179.460 139.785,180.373 140.316,180.687 140.630 C 181.001 140.943,181.739 141.204,182.329 141.209 C 182.918 141.214,183.850 141.570,184.400 142.000 C 184.950 142.430,185.901 142.786,186.513 142.791 C 187.124 142.796,187.727 143.065,187.851 143.389 C 187.976 143.713,188.683 144.092,189.424 144.231 C 190.165 144.370,190.976 144.730,191.226 145.031 C 191.476 145.332,192.337 145.696,193.140 145.840 C 193.943 145.984,194.870 146.328,195.200 146.606 C 195.530 146.884,196.373 147.233,197.072 147.381 C 197.772 147.530,198.559 147.910,198.821 148.226 C 199.185 148.664,200.386 148.800,203.875 148.800 C 208.700 148.800,210.000 149.139,210.000 150.395 C 210.000 150.817,210.211 151.626,210.469 152.192 C 210.828 152.980,210.828 153.332,210.469 153.691 C 210.211 153.949,210.000 154.538,210.000 155.000 C 210.000 156.118,209.261 156.800,208.051 156.800 C 207.508 156.800,206.756 157.078,206.381 157.417 C 206.006 157.757,205.009 158.146,204.165 158.283 C 203.148 158.448,202.094 159.048,201.035 160.066 C 200.157 160.910,199.288 161.600,199.103 161.600 C 198.617 161.600,196.479 163.195,194.949 164.700 L 193.627 166.000 180.217 166.000 L 166.807 166.000 164.903 164.608 C 163.857 163.842,162.080 162.492,160.955 161.608 C 159.830 160.724,158.547 160.000,158.104 160.000 C 157.660 160.000,157.039 159.611,156.723 159.135 C 156.024 158.081,151.104 158.001,149.973 159.024 C 149.623 159.341,149.126 159.600,148.868 159.600 C 148.610 159.600,147.410 160.614,146.200 161.853 L 144.000 164.106 144.000 166.764 C 144.000 169.801,144.498 170.776,146.547 171.748 C 148.518 172.683,152.205 172.612,153.474 171.614 L 154.473 170.827 159.278 175.714 C 161.920 178.401,164.874 181.519,165.841 182.643 L 167.600 184.686 167.600 191.661 L 167.600 198.635 165.440 199.301 C 163.233 199.980,160.000 199.202,160.000 197.991 C 160.000 197.375,158.510 197.535,158.264 198.177 C 157.887 199.160,158.461 201.532,159.250 202.245 C 159.905 202.838,160.000 203.538,160.000 207.753 C 160.000 212.888,160.938 218.614,161.835 218.958 C 162.802 219.329,165.837 215.683,167.865 211.715 C 168.965 209.562,170.061 207.440,170.300 207.000 C 170.540 206.560,171.129 205.393,171.610 204.407 C 172.091 203.421,172.870 202.247,173.342 201.799 C 173.814 201.350,174.676 200.357,175.258 199.592 C 176.855 197.491,176.993 198.120,177.088 207.933 C 177.137 212.920,177.182 217.135,177.188 217.300 C 177.243 218.711,182.347 213.438,184.472 209.774 L 185.992 207.155 182.396 203.439 C 180.309 201.282,178.800 199.386,178.800 198.923 C 178.800 198.483,178.440 197.798,178.000 197.400 C 177.291 196.758,177.200 196.168,177.200 192.192 C 177.200 188.243,177.100 187.581,176.360 186.640 C 174.457 184.221,176.110 183.022,181.000 183.276 L 183.400 183.400 183.528 185.192 C 183.734 188.089,185.500 188.938,187.709 187.200 C 189.552 185.750,191.974 186.528,190.200 188.000 C 189.870 188.274,189.600 188.898,189.600 189.387 C 189.600 189.876,189.233 190.608,188.786 191.013 C 188.067 191.663,187.985 192.154,188.086 195.175 L 188.200 198.600 190.776 198.917 C 193.584 199.263,194.126 198.912,195.987 195.542 C 197.508 192.787,199.397 189.765,199.826 189.400 C 200.084 189.180,200.712 188.143,201.221 187.096 C 201.730 186.049,202.473 184.896,202.873 184.534 C 203.273 184.172,203.600 183.572,203.600 183.200 C 203.600 182.828,203.960 182.198,204.400 181.800 C 204.840 181.402,205.200 180.682,205.200 180.200 C 205.200 179.718,205.560 178.998,206.000 178.600 C 206.440 178.202,206.800 177.465,206.800 176.962 C 206.800 175.460,207.639 175.371,208.865 176.742 L 210.000 178.013 209.994 187.906 C 209.991 193.348,209.856 197.986,209.694 198.214 C 208.510 199.881,207.076 200.400,203.646 200.403 C 200.880 200.405,199.963 200.562,199.000 201.200 C 198.340 201.637,197.395 201.996,196.900 201.997 C 196.380 201.999,196.000 202.246,196.000 202.583 C 196.000 203.276,202.669 210.000,203.356 210.000 C 203.617 210.000,204.537 210.360,205.400 210.800 C 206.820 211.524,207.759 211.600,215.251 211.600 C 224.406 211.600,224.477 211.622,223.074 214.000 C 220.883 217.713,218.519 219.060,213.800 219.285 C 209.236 219.503,206.800 220.575,206.800 222.365 C 206.800 223.878,206.373 224.000,201.095 224.000 L 196.655 224.000 193.401 227.176 L 190.147 230.352 185.573 230.149 C 183.058 230.037,180.246 229.677,179.323 229.349 C 178.401 229.020,176.871 228.808,175.923 228.876 L 174.200 229.000 174.086 232.425 C 173.985 235.446,174.067 235.937,174.786 236.587 C 175.233 236.992,175.600 237.734,175.600 238.235 C 175.600 239.784,177.043 239.865,178.943 238.423 C 179.854 237.731,181.154 236.913,181.832 236.605 C 182.509 236.298,183.296 235.766,183.581 235.423 C 183.972 234.951,184.897 234.800,187.385 234.800 L 190.671 234.800 192.156 233.196 C 193.595 231.640,193.716 231.593,196.120 231.637 C 197.484 231.663,198.780 231.643,199.000 231.594 C 199.916 231.390,200.347 231.681,201.417 233.224 L 202.543 234.849 206.771 234.635 C 222.213 233.853,223.098 233.862,223.603 234.805 C 224.459 236.405,222.416 238.000,219.512 238.000 C 218.226 238.000,216.535 238.267,215.754 238.593 C 214.973 238.920,212.900 239.306,211.147 239.453 C 208.304 239.690,207.757 239.874,206.080 241.159 L 204.200 242.600 197.800 242.800 L 191.400 243.000 191.284 246.550 C 191.201 249.084,191.322 250.287,191.706 250.750 C 192.003 251.108,192.467 251.919,192.739 252.554 L 193.232 253.708 200.158 253.518 C 205.741 253.364,207.267 253.199,208.031 252.664 C 208.552 252.299,209.456 252.000,210.040 252.000 C 210.624 252.000,211.327 251.728,211.603 251.396 C 211.878 251.064,212.797 250.682,213.644 250.547 C 214.492 250.411,215.386 250.057,215.633 249.761 C 215.879 249.464,216.662 249.112,217.374 248.979 C 218.227 248.818,219.378 247.999,220.759 246.568 C 223.876 243.339,225.600 243.661,225.600 247.474 C 225.600 249.876,223.898 251.960,219.751 254.637 C 218.624 255.364,217.184 256.474,216.551 257.103 C 215.918 257.732,215.130 258.373,214.800 258.528 C 214.188 258.814,212.952 259.613,211.062 260.945 C 209.569 261.996,198.923 261.797,197.705 260.695 C 197.215 260.252,196.286 260.000,195.138 260.000 C 193.737 260.000,193.132 259.779,192.400 259.000 C 191.883 258.450,191.305 258.000,191.114 258.000 C 190.321 258.000,188.265 256.079,186.969 254.126 C 186.205 252.976,185.405 251.927,185.190 251.794 C 184.533 251.388,184.755 250.045,185.625 249.175 C 186.585 248.215,186.506 247.070,185.466 246.870 C 184.552 246.694,183.347 247.761,183.028 249.029 C 182.656 250.513,181.757 250.196,178.159 247.314 C 176.402 245.908,175.181 245.659,174.435 246.558 C 174.180 246.865,173.377 247.228,172.650 247.364 C 171.085 247.658,170.005 248.720,168.618 251.328 C 167.245 253.909,167.096 253.560,171.600 258.278 C 173.800 260.582,175.600 262.726,175.600 263.043 C 175.600 263.359,176.300 264.379,177.156 265.309 C 178.012 266.239,179.102 267.750,179.579 268.667 C 180.628 270.683,184.075 274.000,185.121 274.000 C 185.536 274.000,186.202 274.360,186.600 274.800 C 187.288 275.561,187.832 275.600,197.626 275.600 L 207.929 275.600 208.964 276.831 C 210.620 278.798,210.333 282.416,208.460 283.185 C 207.877 283.425,206.502 284.246,205.405 285.010 C 204.262 285.806,202.921 286.400,202.268 286.400 C 201.640 286.400,200.669 286.760,200.109 287.200 C 199.520 287.663,198.483 288.001,197.646 288.003 C 196.851 288.004,195.660 288.363,195.000 288.800 C 194.310 289.257,193.121 289.597,192.200 289.599 C 190.483 289.604,188.000 291.412,188.000 292.657 C 188.000 292.996,187.640 293.731,187.200 294.291 C 186.760 294.850,186.400 295.584,186.400 295.922 C 186.400 296.260,186.099 296.869,185.732 297.275 C 185.073 298.003,183.742 300.016,181.400 303.829 C 180.740 304.903,179.202 306.866,177.983 308.191 C 176.763 309.516,175.010 311.625,174.086 312.878 C 173.163 314.131,170.352 316.867,167.839 318.959 C 165.326 321.051,163.152 322.954,163.008 323.187 C 162.863 323.421,162.160 323.857,161.444 324.156 C 160.728 324.455,159.501 325.262,158.718 325.950 C 157.935 326.637,156.935 327.200,156.496 327.200 C 156.057 327.200,155.488 327.453,155.231 327.763 C 154.712 328.388,147.527 332.000,146.802 332.000 C 146.550 332.000,146.073 332.270,145.743 332.600 C 145.413 332.930,144.571 333.201,143.871 333.203 C 143.172 333.204,142.060 333.563,141.400 334.000 C 140.669 334.484,139.523 334.796,138.470 334.797 C 137.175 334.799,136.044 335.206,133.976 336.414 L 131.212 338.028 124.890 337.914 L 118.567 337.800 117.295 339.200 C 116.596 339.970,116.018 340.876,116.012 341.214 C 115.998 341.928,119.994 346.000,120.708 346.000 C 120.973 346.000,121.642 346.675,122.194 347.500 C 122.746 348.325,123.637 349.630,124.175 350.400 C 124.714 351.170,125.164 351.994,125.177 352.230 C 125.190 352.467,125.650 353.083,126.200 353.600 C 126.750 354.117,127.200 354.930,127.200 355.408 C 127.200 355.885,127.560 356.602,128.000 357.000 C 128.440 357.398,128.800 357.944,128.800 358.213 C 128.800 358.482,129.079 358.933,129.419 359.216 C 130.315 359.959,130.012 361.436,129.000 361.264 C 128.560 361.189,127.916 360.874,127.569 360.564 C 127.221 360.254,126.570 360.000,126.122 360.000 C 125.674 360.000,124.879 359.667,124.354 359.259 C 123.829 358.852,122.723 358.200,121.897 357.812 C 121.070 357.423,119.990 356.680,119.497 356.160 C 119.003 355.639,118.301 355.211,117.936 355.207 C 117.571 355.203,116.361 354.480,115.248 353.600 C 114.134 352.720,113.013 352.000,112.756 352.000 C 112.500 352.000,111.508 351.280,110.554 350.400 C 109.599 349.520,108.609 348.800,108.353 348.800 C 108.098 348.800,106.679 347.810,105.200 346.600 C 103.721 345.390,102.302 344.400,102.047 344.400 C 101.791 344.400,100.821 343.715,99.891 342.878 C 98.961 342.041,97.266 340.769,96.125 340.052 C 94.983 339.335,93.993 338.625,93.925 338.474 C 93.856 338.323,93.105 337.603,92.255 336.873 C 89.790 334.755,84.043 328.456,82.930 326.652 C 82.370 325.743,80.878 323.920,79.616 322.600 C 78.353 321.280,76.899 319.480,76.385 318.600 C 75.870 317.720,74.493 315.955,73.325 314.677 C 72.156 313.400,71.200 312.201,71.200 312.014 C 71.200 311.827,70.030 310.200,68.600 308.400 C 67.170 306.600,66.000 304.973,66.000 304.786 C 66.000 304.598,65.370 303.760,64.599 302.922 C 63.829 302.085,63.087 301.040,62.950 300.600 C 62.814 300.160,62.120 299.080,61.408 298.200 C 60.697 297.320,60.000 296.240,59.860 295.800 C 59.720 295.360,58.974 294.292,58.203 293.427 C 57.431 292.562,56.800 291.549,56.800 291.176 C 56.800 290.803,56.516 290.262,56.169 289.974 C 55.822 289.686,55.082 288.539,54.526 287.425 C 52.462 283.294,52.268 283.200,45.813 283.200 L 40.175 283.200 37.800 280.800 C 36.494 279.480,35.080 278.400,34.659 278.400 C 34.238 278.400,33.195 278.191,32.341 277.935 C 28.946 276.918,27.402 281.169,30.134 284.012 C 30.868 284.775,31.941 286.210,32.518 287.200 C 33.094 288.190,34.169 289.630,34.907 290.400 C 35.644 291.170,36.675 292.520,37.199 293.400 C 37.723 294.280,39.040 295.984,40.125 297.186 C 41.211 298.389,42.547 300.099,43.094 300.986 C 43.641 301.874,45.124 303.680,46.389 305.000 C 47.655 306.320,49.674 308.750,50.878 310.400 C 53.759 314.351,81.458 342.075,85.492 345.046 C 87.202 346.305,89.751 348.384,91.158 349.667 C 92.565 350.950,93.884 352.000,94.089 352.000 C 94.295 352.000,95.785 353.080,97.400 354.400 C 99.015 355.720,100.576 356.806,100.869 356.813 C 101.161 356.820,102.115 357.540,102.989 358.413 C 103.863 359.286,104.842 360.000,105.164 360.000 C 105.485 360.000,106.602 360.720,107.646 361.600 C 108.690 362.480,109.738 363.200,109.976 363.200 C 110.214 363.200,111.305 363.830,112.400 364.600 C 113.495 365.370,114.653 366.000,114.973 366.000 C 115.293 366.000,115.790 366.334,116.077 366.743 C 116.365 367.151,117.050 367.622,117.600 367.790 C 118.150 367.958,118.870 368.316,119.200 368.586 C 119.530 368.856,121.741 370.032,124.113 371.198 C 126.485 372.365,128.521 373.472,128.637 373.660 C 128.753 373.847,129.262 374.000,129.770 374.000 C 130.277 374.000,131.150 374.360,131.709 374.800 C 132.269 375.240,133.075 375.600,133.501 375.600 C 133.927 375.600,134.602 375.960,135.000 376.400 C 135.456 376.904,136.232 377.200,137.099 377.200 C 137.868 377.200,138.922 377.552,139.491 378.000 C 140.050 378.440,141.092 378.800,141.805 378.800 C 142.518 378.800,143.305 379.045,143.554 379.345 C 143.803 379.644,144.927 379.998,146.054 380.132 C 147.180 380.265,148.522 380.650,149.037 380.987 C 151.596 382.664,153.596 380.783,153.599 376.696 C 153.600 374.238,152.866 372.862,149.177 368.400 C 148.358 367.410,147.572 366.211,147.429 365.736 C 147.286 365.261,146.906 364.654,146.585 364.387 C 146.263 364.120,146.000 363.588,146.000 363.205 C 146.000 362.822,145.640 362.050,145.200 361.491 C 144.760 360.931,144.400 360.185,144.400 359.833 C 144.400 359.481,144.040 358.884,143.600 358.507 C 143.160 358.130,142.800 357.440,142.800 356.973 C 142.800 356.506,142.440 355.798,142.000 355.400 C 141.560 355.002,141.200 354.368,141.200 353.992 C 141.200 353.616,140.878 352.879,140.484 352.354 C 140.090 351.829,139.548 350.950,139.279 350.400 C 139.010 349.850,138.259 348.428,137.611 347.239 C 134.903 342.274,134.406 338.433,136.746 340.551 C 137.141 340.908,137.739 341.200,138.077 341.200 C 138.785 341.200,145.215 347.334,147.302 350.000 C 148.564 351.612,148.728 352.105,148.870 354.723 C 148.957 356.331,149.215 357.771,149.443 357.923 C 150.235 358.451,153.600 362.834,153.600 363.337 C 153.600 363.615,154.242 364.463,155.026 365.222 C 155.810 365.980,156.968 367.500,157.600 368.600 C 158.232 369.700,159.390 371.220,160.174 371.978 C 160.958 372.737,161.600 373.648,161.600 374.005 C 161.600 374.361,162.586 375.721,163.791 377.026 C 164.996 378.332,165.986 379.590,165.991 379.822 C 166.004 380.429,167.499 382.372,170.100 385.162 C 173.143 388.426,175.123 389.195,181.231 389.485 L 185.863 389.704 186.931 387.881 C 187.519 386.878,188.000 385.625,188.000 385.097 C 188.000 384.539,188.668 383.395,189.594 382.368 C 190.471 381.396,191.191 380.324,191.194 379.987 C 191.197 379.651,192.280 378.306,193.600 377.000 C 194.920 375.694,196.000 374.477,196.000 374.296 C 196.000 373.829,197.523 371.717,199.447 369.516 C 200.353 368.479,201.384 367.019,201.740 366.271 C 202.095 365.522,202.659 364.683,202.993 364.406 C 203.327 364.129,203.600 363.588,203.600 363.205 C 203.600 362.822,203.960 362.050,204.400 361.491 C 204.913 360.838,205.200 359.868,205.200 358.784 C 205.200 357.200,206.251 354.792,207.376 353.800 C 208.143 353.124,210.000 349.698,210.000 348.960 C 210.000 348.577,210.304 347.927,210.676 347.517 C 211.103 347.044,211.414 345.857,211.521 344.285 C 211.619 342.852,211.949 341.507,212.300 341.109 C 212.634 340.729,212.977 339.483,213.062 338.341 C 213.146 337.198,213.416 336.022,213.661 335.727 C 213.906 335.432,214.397 334.610,214.753 333.901 C 215.945 331.524,222.015 330.638,223.470 332.628 C 224.406 333.907,224.195 341.700,223.200 342.600 C 222.760 342.998,222.400 343.632,222.400 344.008 C 222.400 344.384,222.040 345.150,221.600 345.709 C 221.160 346.269,220.800 346.829,220.800 346.955 C 220.800 347.081,220.195 348.133,219.456 349.292 C 218.716 350.452,217.992 351.781,217.845 352.247 C 217.699 352.713,217.224 353.416,216.790 353.809 C 216.355 354.202,216.000 354.797,216.000 355.130 C 216.000 355.464,215.750 356.021,215.445 356.369 C 215.139 356.716,214.406 357.934,213.816 359.075 C 213.225 360.216,212.485 361.363,212.171 361.624 C 211.857 361.885,211.600 362.436,211.600 362.849 C 211.600 363.262,211.240 363.960,210.800 364.400 C 210.360 364.840,210.000 365.538,210.000 365.951 C 210.000 366.364,209.727 366.928,209.394 367.205 C 209.061 367.482,208.327 368.629,207.764 369.754 C 207.201 370.879,206.394 372.172,205.970 372.626 C 205.547 373.080,205.200 373.727,205.200 374.064 C 205.200 374.401,204.840 375.002,204.400 375.400 C 203.960 375.798,203.600 376.518,203.600 377.000 C 203.600 377.482,203.240 378.202,202.800 378.600 C 202.150 379.188,202.000 379.832,202.000 382.031 C 202.000 384.370,201.857 384.909,200.950 385.986 C 200.373 386.672,200.028 387.361,200.185 387.517 C 200.764 388.093,224.895 387.842,226.400 387.244 C 227.250 386.906,230.313 386.578,234.200 386.409 C 239.002 386.200,240.900 385.965,241.800 385.468 C 242.621 385.014,243.965 384.804,246.056 384.802 C 248.243 384.801,249.609 384.575,250.856 384.009 C 251.937 383.518,253.480 383.214,254.914 383.209 C 256.326 383.203,257.600 382.956,258.183 382.574 C 258.708 382.230,260.187 381.849,261.469 381.727 C 262.751 381.606,264.204 381.254,264.697 380.946 C 265.190 380.638,266.450 380.272,267.497 380.133 C 268.544 379.994,269.755 379.638,270.189 379.340 C 270.623 379.043,271.724 378.800,272.635 378.800 C 273.686 378.800,274.664 378.508,275.309 378.000 C 275.935 377.508,276.932 377.200,277.901 377.200 C 278.968 377.200,279.710 376.942,280.200 376.400 C 280.638 375.916,281.432 375.600,282.208 375.600 C 282.914 375.600,283.950 375.240,284.509 374.800 C 285.069 374.360,285.969 374.000,286.509 374.000 C 287.050 374.000,287.950 373.640,288.509 373.200 C 289.069 372.760,289.969 372.400,290.509 372.400 C 291.050 372.400,291.950 372.040,292.509 371.600 C 293.069 371.160,293.953 370.800,294.474 370.800 C 294.996 370.800,295.730 370.440,296.107 370.000 C 296.484 369.560,297.222 369.200,297.747 369.200 C 298.272 369.200,298.926 368.930,299.200 368.600 C 299.474 368.270,299.886 368.000,300.115 368.000 C 300.750 368.000,308.722 364.050,309.002 363.597 C 309.137 363.379,309.569 363.200,309.962 363.200 C 310.355 363.200,311.002 362.840,311.400 362.400 C 311.798 361.960,312.432 361.600,312.808 361.600 C 313.184 361.600,313.950 361.240,314.509 360.800 C 315.069 360.360,315.813 360.000,316.163 360.000 C 316.513 360.000,317.123 359.677,317.517 359.283 C 317.912 358.888,318.797 358.333,319.484 358.048 C 320.172 357.763,321.321 357.006,322.039 356.365 C 322.757 355.724,323.587 355.200,323.884 355.200 C 324.181 355.200,325.334 354.480,326.448 353.600 C 327.561 352.720,328.641 352.000,328.848 352.000 C 329.054 352.000,330.134 351.280,331.248 350.400 C 332.361 349.520,333.454 348.800,333.677 348.800 C 333.900 348.800,334.934 348.035,335.976 347.100 C 337.017 346.165,338.393 345.140,339.035 344.822 C 339.676 344.505,341.280 343.228,342.600 341.984 C 343.920 340.741,345.837 339.249,346.860 338.668 C 347.945 338.053,353.657 332.697,360.560 325.823 L 372.400 314.033 372.397 309.516 C 372.395 305.682,372.275 304.819,371.600 303.800 C 371.143 303.110,370.803 301.919,370.800 301.000 C 370.797 300.081,370.457 298.890,370.000 298.200 C 369.563 297.540,369.204 296.606,369.203 296.124 C 369.201 295.642,369.026 295.140,368.813 295.008 C 368.601 294.877,367.964 293.848,367.399 292.723 C 365.345 288.634,358.042 281.159,354.175 279.187 C 353.444 278.815,352.250 278.008,351.523 277.394 C 350.795 276.781,349.646 276.046,348.968 275.762 C 348.291 275.479,347.504 274.966,347.219 274.623 C 346.935 274.280,346.487 274.000,346.223 274.000 C 345.960 274.000,344.779 273.280,343.600 272.400 C 342.421 271.520,341.156 270.800,340.790 270.800 C 340.424 270.800,339.798 270.440,339.400 270.000 C 339.002 269.560,338.403 269.200,338.070 269.200 C 337.736 269.200,337.170 268.935,336.813 268.612 C 336.175 268.035,334.070 266.843,330.315 264.932 C 329.279 264.405,328.323 263.799,328.192 263.587 C 327.614 262.651,324.577 263.164,323.704 264.344 L 322.858 265.489 324.006 266.880 C 324.636 267.646,325.269 268.737,325.412 269.306 C 325.555 269.876,326.016 270.652,326.436 271.033 C 326.856 271.413,327.200 271.952,327.200 272.231 C 327.200 272.510,327.830 273.564,328.600 274.573 C 329.370 275.582,330.000 276.662,330.000 276.973 C 330.000 277.284,329.370 278.364,328.600 279.373 C 327.830 280.382,327.197 281.520,327.193 281.903 C 327.189 282.287,326.739 283.024,326.193 283.542 C 325.647 284.060,325.194 284.780,325.186 285.142 C 325.178 285.504,324.742 286.324,324.218 286.965 L 323.265 288.131 306.903 287.874 L 290.540 287.617 289.270 288.928 C 288.572 289.648,287.996 290.590,287.991 291.019 C 287.964 293.292,280.313 298.708,277.800 298.233 C 274.262 297.564,272.597 296.897,272.478 296.100 C 272.410 295.651,272.005 294.967,271.578 294.580 C 270.578 293.675,270.587 292.197,271.600 290.909 C 272.820 289.359,272.676 289.072,268.656 285.025 C 264.905 281.250,264.170 279.966,264.669 278.059 C 265.254 275.822,268.790 278.204,271.707 282.800 C 274.549 287.276,280.811 288.396,281.764 284.599 C 282.296 282.483,285.526 280.005,287.778 279.987 C 288.670 279.980,289.749 279.710,290.176 279.387 C 290.604 279.064,291.794 278.800,292.823 278.800 C 294.086 278.800,295.022 278.541,295.709 278.000 C 296.269 277.560,297.015 277.200,297.367 277.200 C 297.719 277.200,298.316 276.840,298.693 276.400 C 299.788 275.121,300.898 275.450,303.532 277.834 L 306.000 280.067 313.084 280.018 L 320.168 279.969 321.268 278.684 C 322.485 277.263,322.758 275.195,321.829 274.424 C 321.515 274.163,320.775 273.016,320.186 271.875 C 319.596 270.734,318.773 269.428,318.357 268.974 C 317.941 268.520,317.600 267.867,317.600 267.523 C 317.600 267.179,317.311 266.658,316.958 266.365 C 316.605 266.073,316.168 265.442,315.986 264.964 C 315.618 263.996,312.500 261.741,311.015 261.368 C 310.489 261.236,309.969 260.897,309.861 260.615 C 309.753 260.334,309.196 259.985,308.623 259.841 C 308.049 259.698,306.761 258.954,305.760 258.190 C 304.758 257.425,303.710 256.800,303.431 256.800 C 303.152 256.800,302.598 256.440,302.200 256.000 C 301.802 255.560,301.076 255.200,300.587 255.200 C 300.098 255.200,299.465 254.920,299.181 254.577 C 298.896 254.234,298.109 253.695,297.432 253.378 C 296.754 253.061,295.660 252.447,295.000 252.014 C 294.340 251.580,293.246 250.972,292.570 250.662 C 291.893 250.353,288.421 246.847,284.854 242.873 C 278.551 235.849,275.697 233.203,274.421 233.197 C 274.080 233.196,273.260 232.837,272.600 232.400 C 271.940 231.963,271.001 231.604,270.512 231.603 C 270.024 231.601,268.910 231.228,268.037 230.773 C 266.081 229.753,265.305 230.073,263.877 232.491 C 263.322 233.431,262.223 234.820,261.434 235.578 C 260.225 236.740,260.000 237.227,260.000 238.675 C 260.000 239.960,259.798 240.519,259.200 240.893 C 258.090 241.586,258.197 242.156,259.643 243.255 C 263.266 246.010,262.986 245.394,263.131 250.909 L 263.263 255.889 265.431 258.031 C 267.747 260.318,268.338 262.474,267.059 263.969 C 266.762 264.316,266.090 265.410,265.565 266.400 C 265.040 267.390,264.204 268.709,263.706 269.331 C 263.207 269.953,262.800 270.654,262.800 270.889 C 262.800 271.125,262.170 272.086,261.400 273.026 C 260.630 273.966,260.000 275.036,260.000 275.404 C 260.000 275.773,259.640 276.531,259.200 277.091 C 258.760 277.650,258.400 278.441,258.400 278.849 C 258.400 279.529,255.733 281.600,254.857 281.600 C 254.659 281.600,254.281 281.861,254.016 282.180 C 253.752 282.499,252.605 283.313,251.467 283.989 C 246.660 286.846,245.285 287.788,243.200 289.654 C 241.990 290.737,240.685 291.888,240.300 292.212 C 239.880 292.565,239.600 293.357,239.600 294.196 C 239.600 294.963,239.240 296.538,238.800 297.696 C 238.248 299.148,238.000 300.769,238.000 302.927 L 238.000 306.055 236.300 307.777 C 235.365 308.724,233.932 309.809,233.115 310.188 C 230.613 311.349,228.800 313.336,228.800 314.919 C 228.800 315.686,228.447 316.741,228.000 317.309 C 227.560 317.869,227.200 318.676,227.200 319.103 C 227.200 320.053,225.118 323.002,224.039 323.579 C 223.571 323.829,220.296 324.000,215.958 324.000 C 209.861 324.000,208.548 324.104,207.963 324.634 C 207.577 324.983,206.535 325.365,205.647 325.484 C 204.759 325.603,203.727 326.038,203.354 326.450 C 202.981 326.863,202.230 327.200,201.685 327.200 C 201.140 327.200,200.083 327.578,199.336 328.039 C 197.178 329.374,191.574 329.039,189.500 327.453 C 185.887 324.688,188.536 320.389,193.495 320.970 C 197.364 321.423,197.521 321.384,199.597 319.441 C 200.680 318.429,201.942 317.600,202.403 317.600 C 202.863 317.600,203.816 317.295,204.520 316.922 C 205.483 316.411,207.136 316.203,211.200 316.080 C 215.207 315.958,216.772 315.764,217.266 315.327 C 217.633 315.002,218.402 314.685,218.975 314.623 C 219.548 314.560,220.399 314.169,220.864 313.754 C 222.998 311.854,225.584 308.948,225.591 308.441 C 225.596 308.134,226.275 307.061,227.100 306.057 C 228.571 304.266,229.295 303.196,229.844 302.000 C 229.995 301.670,230.481 300.998,230.922 300.507 C 231.498 299.868,231.744 298.987,231.792 297.403 C 231.865 294.951,233.354 292.799,234.975 292.802 C 236.024 292.803,239.587 288.906,239.595 287.749 C 239.598 287.281,239.852 286.689,240.161 286.433 C 240.469 286.177,240.839 285.480,240.983 284.884 C 241.142 284.226,243.004 282.105,245.718 279.489 C 249.762 275.591,250.713 274.413,251.937 271.784 C 252.146 271.335,252.605 270.727,252.958 270.435 C 253.311 270.142,253.600 269.586,253.600 269.200 C 253.600 268.814,253.866 268.277,254.192 268.007 C 254.517 267.737,255.024 267.040,255.318 266.458 C 256.141 264.830,256.932 263.499,257.700 262.449 C 258.698 261.084,258.670 256.852,257.653 255.554 C 257.243 255.029,256.420 253.666,255.824 252.525 C 255.229 251.384,254.485 250.237,254.171 249.976 C 253.857 249.715,253.600 249.186,253.600 248.800 C 253.600 248.414,253.343 247.885,253.029 247.624 C 251.468 246.329,250.392 243.331,251.219 242.582 C 251.649 242.194,252.000 241.572,252.000 241.200 C 252.000 240.828,252.315 240.237,252.700 239.887 C 253.085 239.536,253.850 238.404,254.400 237.371 C 254.995 236.254,257.873 233.045,261.500 229.455 L 267.600 223.417 267.600 220.044 L 267.600 216.671 270.000 214.472 C 271.939 212.696,272.401 212.036,272.403 211.037 C 272.404 210.357,272.763 209.260,273.200 208.600 C 273.691 207.859,273.996 206.723,273.997 205.631 C 273.999 204.534,274.257 203.579,274.678 203.114 C 275.148 202.594,275.423 201.362,275.578 199.083 C 275.726 196.895,276.034 195.470,276.500 194.811 C 277.027 194.067,277.200 193.024,277.200 190.596 C 277.200 188.159,277.396 186.985,278.000 185.800 C 278.440 184.937,278.800 183.841,278.800 183.364 C 278.800 182.888,279.058 182.283,279.374 182.021 C 279.690 181.759,280.072 180.982,280.223 180.295 C 280.374 179.608,280.746 178.797,281.049 178.494 C 281.352 178.191,281.600 177.671,281.600 177.339 C 281.600 177.006,282.205 175.984,282.946 175.067 C 283.686 174.150,284.541 172.870,284.846 172.223 C 285.221 171.426,285.834 170.934,286.744 170.700 C 287.484 170.510,288.789 169.912,289.644 169.372 L 291.200 168.390 291.200 165.326 C 291.200 162.970,291.361 162.085,291.900 161.491 C 292.491 160.839,292.631 159.647,292.800 153.859 C 292.928 149.453,293.179 146.688,293.500 146.126 C 294.131 145.023,294.143 142.790,293.524 141.326 C 293.263 140.707,292.948 138.045,292.824 135.410 C 292.613 130.899,292.546 130.594,291.666 130.157 C 291.153 129.901,290.532 129.492,290.286 129.246 C 290.041 129.001,289.268 128.800,288.569 128.800 C 286.489 128.800,286.280 128.187,286.561 122.905 C 286.948 115.613,286.212 82.440,285.631 81.005 C 285.365 80.348,285.046 78.278,284.921 76.405 C 284.789 74.422,284.468 72.738,284.152 72.374 C 283.854 72.029,283.496 71.178,283.357 70.483 C 283.217 69.787,282.855 69.012,282.552 68.760 C 282.248 68.508,282.000 68.064,282.000 67.773 C 282.000 67.482,281.361 66.560,280.580 65.722 C 279.799 64.885,278.925 63.655,278.637 62.988 C 278.350 62.321,277.549 61.210,276.857 60.519 C 276.166 59.827,275.600 58.916,275.600 58.493 C 275.600 58.070,275.240 57.398,274.800 57.000 C 274.360 56.602,274.000 55.786,274.000 55.187 C 274.000 53.532,273.364 53.322,269.094 53.572 L 265.187 53.800 260.165 58.800 C 253.271 65.663,252.807 66.523,254.400 69.496 C 255.266 71.111,255.496 74.570,254.767 75.020 C 254.248 75.341,252.000 73.285,252.000 72.488 C 252.000 72.179,251.640 71.469,251.200 70.909 C 250.760 70.350,250.400 69.488,250.400 68.995 C 250.400 68.502,250.130 67.874,249.800 67.600 C 249.054 66.981,249.034 66.019,249.745 64.989 C 250.044 64.555,250.378 63.253,250.486 62.096 C 250.595 60.939,250.980 59.665,251.342 59.264 C 251.704 58.864,252.000 58.039,252.000 57.431 C 252.000 56.648,252.654 55.609,254.245 53.863 C 255.480 52.508,256.668 50.905,256.885 50.300 C 257.101 49.695,257.414 49.200,257.579 49.200 C 257.745 49.200,258.474 48.030,259.200 46.600 C 259.926 45.170,260.673 44.000,260.860 44.000 C 261.047 44.000,261.200 43.664,261.200 43.254 C 261.200 42.844,261.585 42.019,262.055 41.421 C 262.601 40.727,263.013 39.441,263.194 37.867 C 263.351 36.510,263.686 34.893,263.939 34.274 C 264.599 32.661,264.601 32.665,262.369 31.219 C 261.253 30.495,259.678 29.296,258.869 28.554 C 258.061 27.811,257.092 27.203,256.716 27.202 C 256.339 27.201,255.709 26.866,255.316 26.459 C 254.922 26.051,253.760 25.233,252.734 24.641 C 251.708 24.048,250.651 23.302,250.385 22.982 C 250.119 22.662,249.502 22.400,249.013 22.400 C 248.524 22.400,247.798 22.040,247.400 21.600 C 247.002 21.160,246.282 20.800,245.800 20.800 C 245.318 20.800,244.598 20.440,244.200 20.000 C 243.802 19.560,243.082 19.200,242.600 19.200 C 242.118 19.200,241.398 18.840,241.000 18.400 C 240.602 17.960,239.837 17.600,239.301 17.600 C 238.765 17.600,237.869 17.240,237.309 16.800 C 236.750 16.360,235.798 16.000,235.195 16.000 C 234.592 16.000,233.881 15.739,233.616 15.420 C 233.351 15.100,232.294 14.718,231.267 14.571 C 230.240 14.423,229.126 14.063,228.790 13.771 C 228.455 13.479,227.245 13.148,226.100 13.036 C 224.956 12.924,223.585 12.546,223.052 12.198 C 222.139 11.599,201.977 11.078,197.240 11.530 M251.600 148.053 C 252.590 148.286,257.043 148.608,261.496 148.768 C 265.949 148.928,269.705 149.172,269.844 149.311 C 270.934 150.401,265.390 156.800,263.355 156.800 C 262.395 156.800,261.564 157.332,259.600 159.200 C 257.651 161.055,256.796 161.603,255.839 161.614 C 255.158 161.622,254.150 161.886,253.600 162.200 C 253.050 162.514,252.093 162.778,251.474 162.786 C 249.062 162.816,247.737 165.003,249.545 165.971 C 251.477 167.005,251.272 170.891,249.227 171.986 C 246.079 173.670,243.868 172.479,235.746 164.723 C 228.257 157.573,227.200 156.392,227.200 155.181 C 227.200 154.819,226.832 154.191,226.381 153.783 C 225.078 152.603,225.419 149.629,226.952 148.813 C 227.973 148.270,228.128 148.268,228.316 148.800 C 229.423 151.926,233.183 152.919,235.061 150.581 C 235.687 149.801,236.624 148.693,237.142 148.120 L 238.085 147.079 243.942 147.353 C 247.164 147.504,250.610 147.819,251.600 148.053 M241.473 184.500 C 244.417 187.492,246.000 189.931,246.000 191.474 C 246.000 191.962,246.243 192.504,246.539 192.680 C 246.836 192.856,247.188 193.697,247.322 194.550 C 247.456 195.402,247.843 196.406,248.183 196.781 C 248.522 197.156,248.803 197.899,248.806 198.431 C 248.823 201.074,250.097 200.818,251.621 197.868 C 252.095 196.950,252.880 195.480,253.367 194.600 L 254.251 193.000 257.642 192.886 C 262.537 192.721,262.973 193.235,262.891 199.081 C 262.809 204.929,261.005 207.901,256.334 209.881 C 255.221 210.352,255.200 210.422,255.200 213.613 L 255.200 216.864 248.708 223.432 C 241.727 230.495,241.421 230.703,241.034 228.639 C 240.893 227.890,240.513 227.176,240.189 227.051 C 238.270 226.315,240.832 222.442,244.200 220.989 C 246.518 219.989,248.345 216.316,247.056 215.247 C 245.805 214.208,244.631 214.854,244.231 216.800 C 243.775 219.024,243.541 219.186,240.789 219.194 C 237.376 219.203,235.940 217.770,237.413 215.824 C 237.736 215.396,238.000 214.755,238.000 214.398 C 238.000 213.273,240.078 211.716,241.881 211.491 C 243.840 211.247,247.600 207.941,247.600 206.464 C 247.600 204.990,245.495 204.230,242.871 204.757 C 237.882 205.759,235.592 205.102,234.934 202.479 C 234.539 200.906,236.907 198.800,239.071 198.800 C 242.497 198.800,241.648 192.219,237.892 189.655 C 236.601 188.774,236.413 188.385,236.406 186.576 C 236.403 185.684,236.136 184.604,235.813 184.176 C 234.581 182.548,235.118 181.691,237.410 181.632 C 238.402 181.606,239.134 182.123,241.473 184.500"/>
    <path fill="#000000" d="M 0.000 200.000 L 0.000 400.000 200.000 400.000 L 400.000 400.000 400.000 200.000 L 400.000 0.000 200.000 0.000 L 0.000 0.000 0.000 200.000 M223.052 12.198 C 223.585 12.546,224.956 12.924,226.100 13.036 C 227.245 13.148,228.455 13.479,228.790 13.771 C 229.126 14.063,230.240 14.423,231.267 14.571 C 232.294 14.718,233.351 15.100,233.616 15.420 C 233.881 15.739,234.592 16.000,235.195 16.000 C 235.798 16.000,236.750 16.360,237.309 16.800 C 237.869 17.240,238.765 17.600,239.301 17.600 C 239.837 17.600,240.602 17.960,241.000 18.400 C 241.398 18.840,242.118 19.200,242.600 19.200 C 243.082 19.200,243.802 19.560,244.200 20.000 C 244.598 20.440,245.318 20.800,245.800 20.800 C 246.282 20.800,247.002 21.160,247.400 21.600 C 247.798 22.040,248.524 22.400,249.013 22.400 C 249.502 22.400,250.119 22.662,250.385 22.982 C 250.651 23.302,251.708 24.048,252.734 24.641 C 253.760 25.233,254.922 26.051,255.316 26.459 C 255.709 26.866,256.339 27.201,256.716 27.202 C 257.092 27.203,258.061 27.811,258.869 28.554 C 259.678 29.296,261.253 30.495,262.369 31.219 C 264.601 32.665,264.599 32.661,263.939 34.274 C 263.686 34.893,263.351 36.510,263.194 37.867 C 263.013 39.441,262.601 40.727,262.055 41.421 C 261.585 42.019,261.200 42.844,261.200 43.254 C 261.200 43.664,261.047 44.000,260.860 44.000 C 260.673 44.000,259.926 45.170,259.200 46.600 C 258.474 48.030,257.745 49.200,257.579 49.200 C 257.414 49.200,257.101 49.695,256.885 50.300 C 256.668 50.905,255.480 52.508,254.245 53.863 C 252.654 55.609,252.000 56.648,252.000 57.431 C 252.000 58.039,251.704 58.864,251.342 59.264 C 250.980 59.665,250.595 60.939,250.486 62.096 C 250.378 63.253,250.044 64.555,249.745 64.989 C 249.034 66.019,249.054 66.981,249.800 67.600 C 250.130 67.874,250.400 68.502,250.400 68.995 C 250.400 69.488,250.760 70.350,251.200 70.909 C 251.640 71.469,252.000 72.179,252.000 72.488 C 252.000 73.285,254.248 75.341,254.767 75.020 C 255.496 74.570,255.266 71.111,254.400 69.496 C 252.807 66.523,253.271 65.663,260.165 58.800 L 265.187 53.800 269.094 53.572 C 273.364 53.322,274.000 53.532,274.000 55.187 C 274.000 55.786,274.360 56.602,274.800 57.000 C 275.240 57.398,275.600 58.070,275.600 58.493 C 275.600 58.916,276.166 59.827,276.857 60.519 C 277.549 61.210,278.350 62.321,278.637 62.988 C 278.925 63.655,279.799 64.885,280.580 65.722 C 281.361 66.560,282.000 67.482,282.000 67.773 C 282.000 68.064,282.248 68.508,282.552 68.760 C 282.855 69.012,283.217 69.787,283.357 70.483 C 283.496 71.178,283.854 72.029,284.152 72.374 C 284.468 72.738,284.789 74.422,284.921 76.405 C 285.046 78.278,285.365 80.348,285.631 81.005 C 286.212 82.440,286.948 115.613,286.561 122.905 C 286.280 128.187,286.489 128.800,288.569 128.800 C 289.268 128.800,290.041 129.001,290.286 129.246 C 290.532 129.492,291.153 129.901,291.666 130.157 C 292.546 130.594,292.613 130.899,292.824 135.410 C 292.948 138.045,293.263 140.707,293.524 141.326 C 294.143 142.790,294.131 145.023,293.500 146.126 C 293.179 146.688,292.928 149.453,292.800 153.859 C 292.631 159.647,292.491 160.839,291.900 161.491 C 291.361 162.085,291.200 162.970,291.200 165.326 L 291.200 168.390 289.644 169.372 C 288.789 169.912,287.484 170.510,286.744 170.700 C 285.834 170.934,285.221 171.426,284.846 172.223 C 284.541 172.870,283.686 174.150,282.946 175.067 C 282.205 175.984,281.600 177.006,281.600 177.339 C 281.600 177.671,281.352 178.191,281.049 178.494 C 280.746 178.797,280.374 179.608,280.223 180.295 C 280.072 180.982,279.690 181.759,279.374 182.021 C 279.058 182.283,278.800 182.888,278.800 183.364 C 278.800 183.841,278.440 184.937,278.000 185.800 C 277.396 186.985,277.200 188.159,277.200 190.596 C 277.200 193.024,277.027 194.067,276.500 194.811 C 276.034 195.470,275.726 196.895,275.578 199.083 C 275.423 201.362,275.148 202.594,274.678 203.114 C 274.257 203.579,273.999 204.534,273.997 205.631 C 273.996 206.723,273.691 207.859,273.200 208.600 C 272.763 209.260,272.404 210.357,272.403 211.037 C 272.401 212.036,271.939 212.696,270.000 214.472 L 267.600 216.671 267.600 220.044 L 267.600 223.417 261.500 229.455 C 257.873 233.045,254.995 236.254,254.400 237.371 C 253.850 238.404,253.085 239.536,252.700 239.887 C 252.315 240.237,252.000 240.828,252.000 241.200 C 252.000 241.572,251.649 242.194,251.219 242.582 C 250.392 243.331,251.468 246.329,253.029 247.624 C 253.343 247.885,253.600 248.414,253.600 248.800 C 253.600 249.186,253.857 249.715,254.171 249.976 C 254.485 250.237,255.229 251.384,255.824 252.525 C 256.420 253.666,257.243 255.029,257.653 255.554 C 258.670 256.852,258.698 261.084,257.700 262.449 C 256.932 263.499,256.141 264.830,255.318 266.458 C 255.024 267.040,254.517 267.737,254.192 268.007 C 253.866 268.277,253.600 268.814,253.600 269.200 C 253.600 269.586,253.311 270.142,252.958 270.435 C 252.605 270.727,252.146 271.335,251.937 271.784 C 250.713 274.413,249.762 275.591,245.718 279.489 C 243.004 282.105,241.142 284.226,240.983 284.884 C 240.839 285.480,240.469 286.177,240.161 286.433 C 239.852 286.689,239.598 287.281,239.595 287.749 C 239.587 288.906,236.024 292.803,234.975 292.802 C 233.354 292.799,231.865 294.951,231.792 297.403 C 231.744 298.987,231.498 299.868,230.922 300.507 C 230.481 300.998,229.995 301.670,229.844 302.000 C 229.295 303.196,228.571 304.266,227.100 306.057 C 226.275 307.061,225.596 308.134,225.591 308.441 C 225.584 308.948,222.998 311.854,220.864 313.754 C 220.399 314.169,219.548 314.560,218.975 314.623 C 218.402 314.685,217.633 315.002,217.266 315.327 C 216.772 315.764,215.207 315.958,211.200 316.080 C 207.136 316.203,205.483 316.411,204.520 316.922 C 203.816 317.295,202.863 317.600,202.403 317.600 C 201.942 317.600,200.680 318.429,199.597 319.441 C 197.521 321.384,197.364 321.423,193.495 320.970 C 188.536 320.389,185.887 324.688,189.500 327.453 C 191.574 329.039,197.178 329.374,199.336 328.039 C 200.083 327.578,201.140 327.200,201.685 327.200 C 202.230 327.200,202.981 326.863,203.354 326.450 C 203.727 326.038,204.759 325.603,205.647 325.484 C 206.535 325.365,207.577 324.983,207.963 324.634 C 208.548 324.104,209.861 324.000,215.958 324.000 C 220.296 324.000,223.571 323.829,224.039 323.579 C 225.118 323.002,227.200 320.053,227.200 319.103 C 227.200 318.676,227.560 317.869,228.000 317.309 C 228.447 316.741,228.800 315.686,228.800 314.919 C 228.800 313.336,230.613 311.349,233.115 310.188 C 233.932 309.809,235.365 308.724,236.300 307.777 L 238.000 306.055 238.000 302.927 C 238.000 300.769,238.248 299.148,238.800 297.696 C 239.240 296.538,239.600 294.963,239.600 294.196 C 239.600 293.357,239.880 292.565,240.300 292.212 C 240.685 291.888,241.990 290.737,243.200 289.654 C 245.285 287.788,246.660 286.846,251.467 283.989 C 252.605 283.313,253.752 282.499,254.016 282.180 C 254.281 281.861,254.659 281.600,254.857 281.600 C 255.733 281.600,258.400 279.529,258.400 278.849 C 258.400 278.441,258.760 277.650,259.200 277.091 C 259.640 276.531,260.000 275.773,260.000 275.404 C 260.000 275.036,260.630 273.966,261.400 273.026 C 262.170 272.086,262.800 271.125,262.800 270.889 C 262.800 270.654,263.207 269.953,263.706 269.331 C 264.204 268.709,265.040 267.390,265.565 266.400 C 266.090 265.410,266.762 264.316,267.059 263.969 C 268.338 262.474,267.747 260.318,265.431 258.031 L 263.263 255.889 263.131 250.909 C 262.986 245.394,263.266 246.010,259.643 243.255 C 258.197 242.156,258.090 241.586,259.200 240.893 C 259.798 240.519,260.000 239.960,260.000 238.675 C 260.000 237.227,260.225 236.740,261.434 235.578 C 262.223 234.820,263.322 233.431,263.877 232.491 C 265.305 230.073,266.081 229.753,268.037 230.773 C 268.910 231.228,270.024 231.601,270.512 231.603 C 271.001 231.604,271.940 231.963,272.600 232.400 C 273.260 232.837,274.080 233.196,274.421 233.197 C 275.697 233.203,278.551 235.849,284.854 242.873 C 288.421 246.847,291.893 250.353,292.570 250.662 C 293.246 250.972,294.340 251.580,295.000 252.014 C 295.660 252.447,296.754 253.061,297.432 253.378 C 298.109 253.695,298.896 254.234,299.181 254.577 C 299.465 254.920,300.098 255.200,300.587 255.200 C 301.076 255.200,301.802 255.560,302.200 256.000 C 302.598 256.440,303.152 256.800,303.431 256.800 C 303.710 256.800,304.758 257.425,305.760 258.190 C 306.761 258.954,308.049 259.698,308.623 259.841 C 309.196 259.985,309.753 260.334,309.861 260.615 C 309.969 260.897,310.489 261.236,311.015 261.368 C 312.500 261.741,315.618 263.996,315.986 264.964 C 316.168 265.442,316.605 266.073,316.958 266.365 C 317.311 266.658,317.600 267.179,317.600 267.523 C 317.600 267.867,317.941 268.520,318.357 268.974 C 318.773 269.428,319.596 270.734,320.186 271.875 C 320.775 273.016,321.515 274.163,321.829 274.424 C 322.758 275.195,322.485 277.263,321.268 278.684 L 320.168 279.969 313.084 280.018 L 306.000 280.067 303.532 277.834 C 300.898 275.450,299.788 275.121,298.693 276.400 C 298.316 276.840,297.719 277.200,297.367 277.200 C 297.015 277.200,296.269 277.560,295.709 278.000 C 295.022 278.541,294.086 278.800,292.823 278.800 C 291.794 278.800,290.604 279.064,290.176 279.387 C 289.749 279.710,288.670 279.980,287.778 279.987 C 285.526 280.005,282.296 282.483,281.764 284.599 C 280.811 288.396,274.549 287.276,271.707 282.800 C 268.790 278.204,265.254 275.822,264.669 278.059 C 264.170 279.966,264.905 281.250,268.656 285.025 C 272.676 289.072,272.820 289.359,271.600 290.909 C 270.587 292.197,270.578 293.675,271.578 294.580 C 272.005 294.967,272.410 295.651,272.478 296.100 C 272.597 296.897,274.262 297.564,277.800 298.233 C 280.313 298.708,287.964 293.292,287.991 291.019 C 287.996 290.590,288.572 289.648,289.270 288.928 L 290.540 287.617 306.903 287.874 L 323.265 288.131 324.218 286.965 C 324.742 286.324,325.178 285.504,325.186 285.142 C 325.194 284.780,325.647 284.060,326.193 283.542 C 326.739 283.024,327.189 282.287,327.193 281.903 C 327.197 281.520,327.830 280.382,328.600 279.373 C 329.370 278.364,330.000 277.284,330.000 276.973 C 330.000 276.662,329.370 275.582,328.600 274.573 C 327.830 273.564,327.200 272.510,327.200 272.231 C 327.200 271.952,326.856 271.413,326.436 271.033 C 326.016 270.652,325.555 269.876,325.412 269.306 C 325.269 268.737,324.636 267.646,324.006 266.880 L 322.858 265.489 323.704 264.344 C 324.577 263.164,327.614 262.651,328.192 263.587 C 328.323 263.799,329.279 264.405,330.315 264.932 C 334.070 266.843,336.175 268.035,336.813 268.612 C 337.170 268.935,337.736 269.200,338.070 269.200 C 338.403 269.200,339.002 269.560,339.400 270.000 C 339.798 270.440,340.424 270.800,340.790 270.800 C 341.156 270.800,342.421 271.520,343.600 272.400 C 344.779 273.280,345.960 274.000,346.223 274.000 C 346.487 274.000,346.935 274.280,347.219 274.623 C 347.504 274.966,348.291 275.479,348.968 275.762 C 349.646 276.046,350.795 276.781,351.523 277.394 C 352.250 278.008,353.444 278.815,354.175 279.187 C 358.042 281.159,365.345 288.634,367.399 292.723 C 367.964 293.848,368.601 294.877,368.813 295.008 C 369.026 295.140,369.201 295.642,369.203 296.124 C 369.204 296.606,369.563 297.540,370.000 298.200 C 370.457 298.890,370.797 300.081,370.800 301.000 C 370.803 301.919,371.143 303.110,371.600 303.800 C 372.275 304.819,372.395 305.682,372.397 309.516 L 372.400 314.033 360.560 325.823 C 353.657 332.697,347.945 338.053,346.860 338.668 C 345.837 339.249,343.920 340.741,342.600 341.984 C 341.280 343.228,339.676 344.505,339.035 344.822 C 338.393 345.140,337.017 346.165,335.976 347.100 C 334.934 348.035,333.900 348.800,333.677 348.800 C 333.454 348.800,332.361 349.520,331.248 350.400 C 330.134 351.280,329.054 352.000,328.848 352.000 C 328.641 352.000,327.561 352.720,326.448 353.600 C 325.334 354.480,324.181 355.200,323.884 355.200 C 323.587 355.200,322.757 355.724,322.039 356.365 C 321.321 357.006,320.172 357.763,319.484 358.048 C 318.797 358.333,317.912 358.888,317.517 359.283 C 317.123 359.677,316.513 360.000,316.163 360.000 C 315.813 360.000,315.069 360.360,314.509 360.800 C 313.950 361.240,313.184 361.600,312.808 361.600 C 312.432 361.600,311.798 361.960,311.400 362.400 C 311.002 362.840,310.355 363.200,309.962 363.200 C 309.569 363.200,309.137 363.379,309.002 363.597 C 308.722 364.050,300.750 368.000,300.115 368.000 C 299.886 368.000,299.474 368.270,299.200 368.600 C 298.926 368.930,298.272 369.200,297.747 369.200 C 297.222 369.200,296.484 369.560,296.107 370.000 C 295.730 370.440,294.996 370.800,294.474 370.800 C 293.953 370.800,293.069 371.160,292.509 371.600 C 291.950 372.040,291.050 372.400,290.509 372.400 C 289.969 372.400,289.069 372.760,288.509 373.200 C 287.950 373.640,287.050 374.000,286.509 374.000 C 285.969 374.000,285.069 374.360,284.509 374.800 C 283.950 375.240,282.914 375.600,282.208 375.600 C 281.432 375.600,280.638 375.916,280.200 376.400 C 279.710 376.942,278.968 377.200,277.901 377.200 C 276.932 377.200,275.935 377.508,275.309 378.000 C 274.664 378.508,273.686 378.800,272.635 378.800 C 271.724 378.800,270.623 379.043,270.189 379.340 C 269.755 379.638,268.544 379.994,267.497 380.133 C 266.450 380.272,265.190 380.638,264.697 380.946 C 264.204 381.254,262.751 381.606,261.469 381.727 C 260.187 381.849,258.708 382.230,258.183 382.574 C 257.600 382.956,256.326 383.203,254.914 383.209 C 253.480 383.214,251.937 383.518,250.856 384.009 C 249.609 384.575,248.243 384.801,246.056 384.802 C 243.965 384.804,242.621 385.014,241.800 385.468 C 240.900 385.965,239.002 386.200,234.200 386.409 C 230.313 386.578,227.250 386.906,226.400 387.244 C 224.895 387.842,200.764 388.093,200.185 387.517 C 200.028 387.361,200.373 386.672,200.950 385.986 C 201.857 384.909,202.000 384.370,202.000 382.031 C 202.000 379.832,202.150 379.188,202.800 378.600 C 203.240 378.202,203.600 377.482,203.600 377.000 C 203.600 376.518,203.960 375.798,204.400 375.400 C 204.840 375.002,205.200 374.401,205.200 374.064 C 205.200 373.727,205.547 373.080,205.970 372.626 C 206.394 372.172,207.201 370.879,207.764 369.754 C 208.327 368.629,209.061 367.482,209.394 367.205 C 209.727 366.928,210.000 366.364,210.000 365.951 C 210.000 365.538,210.360 364.840,210.800 364.400 C 211.240 363.960,211.600 363.262,211.600 362.849 C 211.600 362.436,211.857 361.885,212.171 361.624 C 212.485 361.363,213.225 360.216,213.816 359.075 C 214.406 357.934,215.139 356.716,215.445 356.369 C 215.750 356.021,216.000 355.464,216.000 355.130 C 216.000 354.797,216.355 354.202,216.790 353.809 C 217.224 353.416,217.699 352.713,217.845 352.247 C 217.992 351.781,218.716 350.452,219.456 349.292 C 220.195 348.133,220.800 347.081,220.800 346.955 C 220.800 346.829,221.160 346.269,221.600 345.709 C 222.040 345.150,222.400 344.384,222.400 344.008 C 222.400 343.632,222.760 342.998,223.200 342.600 C 224.195 341.700,224.406 333.907,223.470 332.628 C 222.015 330.638,215.945 331.524,214.753 333.901 C 214.397 334.610,213.906 335.432,213.661 335.727 C 213.416 336.022,213.146 337.198,213.062 338.341 C 212.977 339.483,212.634 340.729,212.300 341.109 C 211.949 341.507,211.619 342.852,211.521 344.285 C 211.414 345.857,211.103 347.044,210.676 347.517 C 210.304 347.927,210.000 348.577,210.000 348.960 C 210.000 349.698,208.143 353.124,207.376 353.800 C 206.251 354.792,205.200 357.200,205.200 358.784 C 205.200 359.868,204.913 360.838,204.400 361.491 C 203.960 362.050,203.600 362.822,203.600 363.205 C 203.600 363.588,203.327 364.129,202.993 364.406 C 202.659 364.683,202.095 365.522,201.740 366.271 C 201.384 367.019,200.353 368.479,199.447 369.516 C 197.523 371.717,196.000 373.829,196.000 374.296 C 196.000 374.477,194.920 375.694,193.600 377.000 C 192.280 378.306,191.197 379.651,191.194 379.987 C 191.191 380.324,190.471 381.396,189.594 382.368 C 188.668 383.395,188.000 384.539,188.000 385.097 C 188.000 385.625,187.519 386.878,186.931 387.881 L 185.863 389.704 181.231 389.485 C 175.123 389.195,173.143 388.426,170.100 385.162 C 167.499 382.372,166.004 380.429,165.991 379.822 C 165.986 379.590,164.996 378.332,163.791 377.026 C 162.586 375.721,161.600 374.361,161.600 374.005 C 161.600 373.648,160.958 372.737,160.174 371.978 C 159.390 371.220,158.232 369.700,157.600 368.600 C 156.968 367.500,155.810 365.980,155.026 365.222 C 154.242 364.463,153.600 363.615,153.600 363.337 C 153.600 362.834,150.235 358.451,149.443 357.923 C 149.215 357.771,148.957 356.331,148.870 354.723 C 148.728 352.105,148.564 351.612,147.302 350.000 C 145.215 347.334,138.785 341.200,138.077 341.200 C 137.739 341.200,137.141 340.908,136.746 340.551 C 134.406 338.433,134.903 342.274,137.611 347.239 C 138.259 348.428,139.010 349.850,139.279 350.400 C 139.548 350.950,140.090 351.829,140.484 352.354 C 140.878 352.879,141.200 353.616,141.200 353.992 C 141.200 354.368,141.560 355.002,142.000 355.400 C 142.440 355.798,142.800 356.506,142.800 356.973 C 142.800 357.440,143.160 358.130,143.600 358.507 C 144.040 358.884,144.400 359.481,144.400 359.833 C 144.400 360.185,144.760 360.931,145.200 361.491 C 145.640 362.050,146.000 362.822,146.000 363.205 C 146.000 363.588,146.263 364.120,146.585 364.387 C 146.906 364.654,147.286 365.261,147.429 365.736 C 147.572 366.211,148.358 367.410,149.177 368.400 C 152.866 372.862,153.600 374.238,153.599 376.696 C 153.596 380.783,151.596 382.664,149.037 380.987 C 148.522 380.650,147.180 380.265,146.054 380.132 C 144.927 379.998,143.803 379.644,143.554 379.345 C 143.305 379.045,142.518 378.800,141.805 378.800 C 141.092 378.800,140.050 378.440,139.491 378.000 C 138.922 377.552,137.868 377.200,137.099 377.200 C 136.232 377.200,135.456 376.904,135.000 376.400 C 134.602 375.960,133.927 375.600,133.501 375.600 C 133.075 375.600,132.269 375.240,131.709 374.800 C 131.150 374.360,130.277 374.000,129.770 374.000 C 129.262 374.000,128.753 373.847,128.637 373.660 C 128.521 373.472,126.485 372.365,124.113 371.198 C 121.741 370.032,119.530 368.856,119.200 368.586 C 118.870 368.316,118.150 367.958,117.600 367.790 C 117.050 367.622,116.365 367.151,116.077 366.743 C 115.790 366.334,115.293 366.000,114.973 366.000 C 114.653 366.000,113.495 365.370,112.400 364.600 C 111.305 363.830,110.214 363.200,109.976 363.200 C 109.738 363.200,108.690 362.480,107.646 361.600 C 106.602 360.720,105.485 360.000,105.164 360.000 C 104.842 360.000,103.863 359.286,102.989 358.413 C 102.115 357.540,101.161 356.820,100.869 356.813 C 100.576 356.806,99.015 355.720,97.400 354.400 C 95.785 353.080,94.295 352.000,94.089 352.000 C 93.884 352.000,92.565 350.950,91.158 349.667 C 89.751 348.384,87.202 346.305,85.492 345.046 C 81.458 342.075,53.759 314.351,50.878 310.400 C 49.674 308.750,47.655 306.320,46.389 305.000 C 45.124 303.680,43.641 301.874,43.094 300.986 C 42.547 300.099,41.211 298.389,40.125 297.186 C 39.040 295.984,37.723 294.280,37.199 293.400 C 36.675 292.520,35.644 291.170,34.907 290.400 C 34.169 289.630,33.094 288.190,32.518 287.200 C 31.941 286.210,30.868 284.775,30.134 284.012 C 27.402 281.169,28.946 276.918,32.341 277.935 C 33.195 278.191,34.238 278.400,34.659 278.400 C 35.080 278.400,36.494 279.480,37.800 280.800 L 40.175 283.200 45.813 283.200 C 52.268 283.200,52.462 283.294,54.526 287.425 C 55.082 288.539,55.822 289.686,56.169 289.974 C 56.516 290.262,56.800 290.803,56.800 291.176 C 56.800 291.549,57.431 292.562,58.203 293.427 C 58.974 294.292,59.720 295.360,59.860 295.800 C 60.000 296.240,60.697 297.320,61.408 298.200 C 62.120 299.080,62.814 300.160,62.950 300.600 C 63.087 301.040,63.829 302.085,64.599 302.922 C 65.370 303.760,66.000 304.598,66.000 304.786 C 66.000 304.973,67.170 306.600,68.600 308.400 C 70.030 310.200,71.200 311.827,71.200 312.014 C 71.200 312.201,72.156 313.400,73.325 314.677 C 74.493 315.955,75.870 317.720,76.385 318.600 C 76.899 319.480,78.353 321.280,79.616 322.600 C 80.878 323.920,82.370 325.743,82.930 326.652 C 84.043 328.456,89.790 334.755,92.255 336.873 C 93.105 337.603,93.856 338.323,93.925 338.474 C 93.993 338.625,94.983 339.335,96.125 340.052 C 97.266 340.769,98.961 342.041,99.891 342.878 C 100.821 343.715,101.791 344.400,102.047 344.400 C 102.302 344.400,103.721 345.390,105.200 346.600 C 106.679 347.810,108.098 348.800,108.353 348.800 C 108.609 348.800,109.599 349.520,110.554 350.400 C 111.508 351.280,112.500 352.000,112.756 352.000 C 113.013 352.000,114.134 352.720,115.248 353.600 C 116.361 354.480,117.571 355.203,117.936 355.207 C 118.301 355.211,119.003 355.639,119.497 356.160 C 119.990 356.680,121.070 357.423,121.897 357.812 C 122.723 358.200,123.829 358.852,124.354 359.259 C 124.879 359.667,125.674 360.000,126.122 360.000 C 126.570 360.000,127.221 360.254,127.569 360.564 C 127.916 360.874,128.560 361.189,129.000 361.264 C 130.012 361.436,130.315 359.959,129.419 359.216 C 129.079 358.933,128.800 358.482,128.800 358.213 C 128.800 357.944,128.440 357.398,128.000 357.000 C 127.560 356.602,127.200 355.885,127.200 355.408 C 127.200 354.930,126.750 354.117,126.200 353.600 C 125.650 353.083,125.190 352.467,125.177 352.230 C 125.164 351.994,124.714 351.170,124.175 350.400 C 123.637 349.630,122.746 348.325,122.194 347.500 C 121.642 346.675,120.973 346.000,120.708 346.000 C 119.994 346.000,115.998 341.928,116.012 341.214 C 116.018 340.876,116.596 339.970,117.295 339.200 L 118.567 337.800 124.890 337.914 L 131.212 338.028 133.976 336.414 C 136.044 335.206,137.175 334.799,138.470 334.797 C 139.523 334.796,140.669 334.484,141.400 334.000 C 142.060 333.563,143.172 333.204,143.871 333.203 C 144.571 333.201,145.413 332.930,145.743 332.600 C 146.073 332.270,146.550 332.000,146.802 332.000 C 147.527 332.000,154.712 328.388,155.231 327.763 C 155.488 327.453,156.057 327.200,156.496 327.200 C 156.935 327.200,157.935 326.637,158.718 325.950 C 159.501 325.262,160.728 324.455,161.444 324.156 C 162.160 323.857,162.863 323.421,163.008 323.187 C 163.152 322.954,165.326 321.051,167.839 318.959 C 170.352 316.867,173.163 314.131,174.086 312.878 C 175.010 311.625,176.763 309.516,177.983 308.191 C 179.202 306.866,180.740 304.903,181.400 303.829 C 183.742 300.016,185.073 298.003,185.732 297.275 C 186.099 296.869,186.400 296.260,186.400 295.922 C 186.400 295.584,186.760 294.850,187.200 294.291 C 187.640 293.731,188.000 292.996,188.000 292.657 C 188.000 291.412,190.483 289.604,192.200 289.599 C 193.121 289.597,194.310 289.257,195.000 288.800 C 195.660 288.363,196.851 288.004,197.646 288.003 C 198.483 288.001,199.520 287.663,200.109 287.200 C 200.669 286.760,201.640 286.400,202.268 286.400 C 202.921 286.400,204.262 285.806,205.405 285.010 C 206.502 284.246,207.877 283.425,208.460 283.185 C 210.333 282.416,210.620 278.798,208.964 276.831 L 207.929 275.600 197.626 275.600 C 187.832 275.600,187.288 275.561,186.600 274.800 C 186.202 274.360,185.536 274.000,185.121 274.000 C 184.075 274.000,180.628 270.683,179.579 268.667 C 179.102 267.750,178.012 266.239,177.156 265.309 C 176.300 264.379,175.600 263.359,175.600 263.043 C 175.600 262.726,173.800 260.582,171.600 258.278 C 167.096 253.560,167.245 253.909,168.618 251.328 C 170.005 248.720,171.085 247.658,172.650 247.364 C 173.377 247.228,174.180 246.865,174.435 246.558 C 175.181 245.659,176.402 245.908,178.159 247.314 C 181.757 250.196,182.656 250.513,183.028 249.029 C 183.347 247.761,184.552 246.694,185.466 246.870 C 186.506 247.070,186.585 248.215,185.625 249.175 C 184.755 250.045,184.533 251.388,185.190 251.794 C 185.405 251.927,186.205 252.976,186.969 254.126 C 188.265 256.079,190.321 258.000,191.114 258.000 C 191.305 258.000,191.883 258.450,192.400 259.000 C 193.132 259.779,193.737 260.000,195.138 260.000 C 196.286 260.000,197.215 260.252,197.705 260.695 C 198.923 261.797,209.569 261.996,211.062 260.945 C 212.952 259.613,214.188 258.814,214.800 258.528 C 215.130 258.373,215.918 257.732,216.551 257.103 C 217.184 256.474,218.624 255.364,219.751 254.637 C 223.898 251.960,225.600 249.876,225.600 247.474 C 225.600 243.661,223.876 243.339,220.759 246.568 C 219.378 247.999,218.227 248.818,217.374 248.979 C 216.662 249.112,215.879 249.464,215.633 249.761 C 215.386 250.057,214.492 250.411,213.644 250.547 C 212.797 250.682,211.878 251.064,211.603 251.396 C 211.327 251.728,210.624 252.000,210.040 252.000 C 209.456 252.000,208.552 252.299,208.031 252.664 C 207.267 253.199,205.741 253.364,200.158 253.518 L 193.232 253.708 192.739 252.554 C 192.467 251.919,192.003 251.108,191.706 250.750 C 191.322 250.287,191.201 249.084,191.284 246.550 L 191.400 243.000 197.800 242.800 L 204.200 242.600 206.080 241.159 C 207.757 239.874,208.304 239.690,211.147 239.453 C 212.900 239.306,214.973 238.920,215.754 238.593 C 216.535 238.267,218.226 238.000,219.512 238.000 C 222.416 238.000,224.459 236.405,223.603 234.805 C 223.098 233.862,222.213 233.853,206.771 234.635 L 202.543 234.849 201.417 233.224 C 200.347 231.681,199.916 231.390,199.000 231.594 C 198.780 231.643,197.484 231.663,196.120 231.637 C 193.716 231.593,193.595 231.640,192.156 233.196 L 190.671 234.800 187.385 234.800 C 184.897 234.800,183.972 234.951,183.581 235.423 C 183.296 235.766,182.509 236.298,181.832 236.605 C 181.154 236.913,179.854 237.731,178.943 238.423 C 177.043 239.865,175.600 239.784,175.600 238.235 C 175.600 237.734,175.233 236.992,174.786 236.587 C 174.067 235.937,173.985 235.446,174.086 232.425 L 174.200 229.000 175.923 228.876 C 176.871 228.808,178.401 229.020,179.323 229.349 C 180.246 229.677,183.058 230.037,185.573 230.149 L 190.147 230.352 193.401 227.176 L 196.655 224.000 201.095 224.000 C 206.373 224.000,206.800 223.878,206.800 222.365 C 206.800 220.575,209.236 219.503,213.800 219.285 C 218.519 219.060,220.883 217.713,223.074 214.000 C 224.477 211.622,224.406 211.600,215.251 211.600 C 207.759 211.600,206.820 211.524,205.400 210.800 C 204.537 210.360,203.617 210.000,203.356 210.000 C 202.669 210.000,196.000 203.276,196.000 202.583 C 196.000 202.246,196.380 201.999,196.900 201.997 C 197.395 201.996,198.340 201.637,199.000 201.200 C 199.963 200.562,200.880 200.405,203.646 200.403 C 207.076 200.400,208.510 199.881,209.694 198.214 C 209.856 197.986,209.991 193.348,209.994 187.906 L 210.000 178.013 208.865 176.742 C 207.639 175.371,206.800 175.460,206.800 176.962 C 206.800 177.465,206.440 178.202,206.000 178.600 C 205.560 178.998,205.200 179.718,205.200 180.200 C 205.200 180.682,204.840 181.402,204.400 181.800 C 203.960 182.198,203.600 182.828,203.600 183.200 C 203.600 183.572,203.273 184.172,202.873 184.534 C 202.473 184.896,201.730 186.049,201.221 187.096 C 200.712 188.143,200.084 189.180,199.826 189.400 C 199.397 189.765,197.508 192.787,195.987 195.542 C 194.126 198.912,193.584 199.263,190.776 198.917 L 188.200 198.600 188.086 195.175 C 187.985 192.154,188.067 191.663,188.786 191.013 C 189.233 190.608,189.600 189.876,189.600 189.387 C 189.600 188.898,189.870 188.274,190.200 188.000 C 191.974 186.528,189.552 185.750,187.709 187.200 C 185.500 188.938,183.734 188.089,183.528 185.192 L 183.400 183.400 181.000 183.276 C 176.110 183.022,174.457 184.221,176.360 186.640 C 177.100 187.581,177.200 188.243,177.200 192.192 C 177.200 196.168,177.291 196.758,178.000 197.400 C 178.440 197.798,178.800 198.483,178.800 198.923 C 178.800 199.386,180.309 201.282,182.396 203.439 L 185.992 207.155 184.472 209.774 C 182.347 213.438,177.243 218.711,177.188 217.300 C 177.182 217.135,177.137 212.920,177.088 207.933 C 176.993 198.120,176.855 197.491,175.258 199.592 C 174.676 200.357,173.814 201.350,173.342 201.799 C 172.870 202.247,172.091 203.421,171.610 204.407 C 171.129 205.393,170.540 206.560,170.300 207.000 C 170.061 207.440,168.965 209.562,167.865 211.715 C 165.837 215.683,162.802 219.329,161.835 218.958 C 160.938 218.614,160.000 212.888,160.000 207.753 C 160.000 203.538,159.905 202.838,159.250 202.245 C 158.461 201.532,157.887 199.160,158.264 198.177 C 158.510 197.535,160.000 197.375,160.000 197.991 C 160.000 199.202,163.233 199.980,165.440 199.301 L 167.600 198.635 167.600 191.661 L 167.600 184.686 165.841 182.643 C 164.874 181.519,161.920 178.401,159.278 175.714 L 154.473 170.827 153.474 171.614 C 152.205 172.612,148.518 172.683,146.547 171.748 C 144.498 170.776,144.000 169.801,144.000 166.764 L 144.000 164.106 146.200 161.853 C 147.410 160.614,148.610 159.600,148.868 159.600 C 149.126 159.600,149.623 159.341,149.973 159.024 C 151.104 158.001,156.024 158.081,156.723 159.135 C 157.039 159.611,157.660 160.000,158.104 160.000 C 158.547 160.000,159.830 160.724,160.955 161.608 C 162.080 162.492,163.857 163.842,164.903 164.608 L 166.807 166.000 180.217 166.000 L 193.627 166.000 194.949 164.700 C 196.479 163.195,198.617 161.600,199.103 161.600 C 199.288 161.600,200.157 160.910,201.035 160.066 C 202.094 159.048,203.148 158.448,204.165 158.283 C 205.009 158.146,206.006 157.757,206.381 157.417 C 206.756 157.078,207.508 156.800,208.051 156.800 C 209.261 156.800,210.000 156.118,210.000 155.000 C 210.000 154.538,210.211 153.949,210.469 153.691 C 210.828 153.332,210.828 152.980,210.469 152.192 C 210.211 151.626,210.000 150.817,210.000 150.395 C 210.000 149.139,208.700 148.800,203.875 148.800 C 200.386 148.800,199.185 148.664,198.821 148.226 C 198.559 147.910,197.772 147.530,197.072 147.381 C 196.373 147.233,195.530 146.884,195.200 146.606 C 194.870 146.328,193.943 145.984,193.140 145.840 C 192.337 145.696,191.476 145.332,191.226 145.031 C 190.976 144.730,190.165 144.370,189.424 144.231 C 188.683 144.092,187.976 143.713,187.851 143.389 C 187.727 143.065,187.124 142.796,186.513 142.791 C 185.901 142.786,184.950 142.430,184.400 142.000 C 183.850 141.570,182.918 141.214,182.329 141.209 C 181.739 141.204,181.001 140.943,180.687 140.630 C 180.373 140.316,179.460 139.785,178.658 139.450 C 177.856 139.115,177.200 138.633,177.200 138.378 C 177.200 138.123,176.648 137.218,175.972 136.365 L 174.745 134.815 165.872 134.708 L 157.000 134.600 156.797 131.200 C 156.670 129.063,156.336 127.325,155.897 126.520 C 155.379 125.569,155.200 124.305,155.200 121.607 C 155.200 119.283,154.984 117.457,154.600 116.538 C 153.853 114.750,153.856 113.624,154.613 112.624 C 154.936 112.196,155.201 111.026,155.203 110.024 C 155.204 108.877,155.500 107.754,156.000 107.000 C 157.072 105.381,157.072 102.454,156.000 101.091 C 155.560 100.531,155.199 99.562,155.197 98.937 C 155.196 98.312,154.837 97.260,154.400 96.600 C 153.963 95.940,153.604 95.001,153.603 94.512 C 153.601 94.024,153.237 92.927,152.792 92.075 C 152.075 90.698,152.036 90.303,152.449 88.516 C 152.983 86.203,152.720 84.720,151.574 83.574 C 151.131 83.131,150.598 82.322,150.391 81.777 C 149.905 80.499,148.548 80.004,145.474 79.983 C 142.898 79.965,141.206 78.576,141.197 76.472 C 141.196 76.103,140.837 75.260,140.400 74.600 C 139.963 73.940,139.604 73.109,139.603 72.754 C 139.601 72.399,139.240 71.650,138.800 71.091 C 137.537 69.485,137.648 65.343,138.969 64.741 C 140.960 63.834,144.400 65.521,144.400 67.405 C 144.400 67.678,144.658 68.117,144.974 68.379 C 145.290 68.641,145.666 69.391,145.810 70.045 C 145.983 70.833,146.588 71.561,147.602 72.201 C 148.444 72.733,149.249 73.355,149.390 73.584 C 149.531 73.813,149.995 74.000,150.421 74.000 C 151.418 74.000,153.599 76.988,153.603 78.360 C 153.604 78.932,153.963 79.940,154.400 80.600 C 154.837 81.260,155.196 82.402,155.197 83.137 C 155.199 83.872,155.560 84.931,156.000 85.491 C 156.440 86.050,156.800 87.086,156.800 87.792 C 156.800 88.568,157.116 89.362,157.600 89.800 C 158.040 90.198,158.400 90.843,158.400 91.233 C 158.400 91.624,158.704 92.247,159.075 92.618 C 159.446 92.989,160.121 93.978,160.575 94.814 C 161.385 96.309,164.127 99.538,165.090 100.133 C 165.703 100.511,168.848 98.772,168.705 98.135 C 168.647 97.879,166.755 95.765,164.500 93.437 C 160.112 88.908,160.084 88.853,161.009 86.640 C 161.753 84.859,161.487 84.243,158.741 81.400 L 156.810 79.400 156.802 76.400 C 156.796 74.085,156.613 73.126,156.000 72.200 C 155.563 71.540,155.204 70.485,155.203 69.856 C 155.201 69.040,154.612 68.069,153.150 66.470 C 152.023 65.236,150.678 63.558,150.162 62.740 C 149.646 61.922,148.408 60.335,147.412 59.213 C 146.415 58.091,145.600 56.939,145.600 56.652 C 145.600 56.066,148.351 52.400,148.791 52.400 C 148.948 52.400,149.599 51.938,150.238 51.373 C 153.089 48.852,154.716 47.600,155.141 47.600 C 155.394 47.600,155.927 47.285,156.328 46.900 C 157.582 45.693,159.544 44.400,160.122 44.400 C 160.427 44.400,161.002 44.040,161.400 43.600 C 161.959 42.982,162.633 42.800,164.362 42.799 C 165.892 42.797,167.014 42.545,167.910 41.999 C 169.145 41.245,169.931 41.200,181.811 41.200 C 193.639 41.200,194.493 41.151,195.896 40.400 C 196.716 39.960,197.621 39.600,197.907 39.600 C 199.103 39.600,198.756 38.386,197.062 36.643 L 195.271 34.800 184.686 34.800 C 176.725 34.800,173.714 34.664,172.541 34.250 C 169.506 33.179,166.374 33.073,164.615 33.981 C 163.744 34.432,162.467 34.800,161.777 34.800 C 161.032 34.800,160.231 35.124,159.800 35.600 C 159.402 36.040,158.682 36.400,158.200 36.400 C 157.718 36.400,156.998 36.760,156.600 37.200 C 156.202 37.640,155.537 38.000,155.122 38.000 C 154.707 38.000,153.880 38.350,153.284 38.778 C 151.124 40.330,149.200 40.310,149.200 38.737 C 149.200 36.598,156.526 28.758,160.871 26.248 C 161.968 25.615,162.959 24.850,163.075 24.548 C 163.191 24.247,163.581 23.995,163.943 23.989 C 164.304 23.982,165.676 23.262,166.991 22.389 C 168.307 21.515,169.538 20.800,169.728 20.800 C 169.918 20.800,170.531 20.440,171.091 20.000 C 171.650 19.560,172.439 19.200,172.844 19.200 C 173.249 19.200,174.170 18.841,174.890 18.401 C 175.611 17.962,176.577 17.602,177.038 17.601 C 177.499 17.601,178.202 17.240,178.600 16.800 C 179.063 16.289,179.832 16.000,180.730 16.000 C 181.504 16.000,182.459 15.709,182.852 15.353 C 183.246 14.997,184.430 14.614,185.484 14.502 C 186.538 14.390,187.693 14.043,188.051 13.732 C 188.412 13.417,189.921 13.077,191.444 12.967 C 192.953 12.859,194.568 12.520,195.034 12.215 C 196.737 11.099,221.353 11.084,223.052 12.198 M237.142 148.120 C 236.624 148.693,235.687 149.801,235.061 150.581 C 233.183 152.919,229.423 151.926,228.316 148.800 C 228.128 148.268,227.973 148.270,226.952 148.813 C 225.419 149.629,225.078 152.603,226.381 153.783 C 226.832 154.191,227.200 154.819,227.200 155.181 C 227.200 156.392,228.257 157.573,235.746 164.723 C 243.868 172.479,246.079 173.670,249.227 171.986 C 251.272 170.891,251.477 167.005,249.545 165.971 C 247.737 165.003,249.062 162.816,251.474 162.786 C 252.093 162.778,253.050 162.514,253.600 162.200 C 254.150 161.886,255.158 161.622,255.839 161.614 C 256.796 161.603,257.651 161.055,259.600 159.200 C 261.564 157.332,262.395 156.800,263.355 156.800 C 265.390 156.800,270.934 150.401,269.844 149.311 C 269.705 149.172,265.949 148.928,261.496 148.768 C 257.043 148.608,252.590 148.286,251.600 148.053 C 250.610 147.819,247.164 147.504,243.942 147.353 L 238.085 147.079 237.142 148.120 M235.700 181.865 C 235.034 182.134,235.087 183.217,235.813 184.176 C 236.136 184.604,236.403 185.684,236.406 186.576 C 236.413 188.385,236.601 188.774,237.892 189.655 C 241.648 192.219,242.497 198.800,239.071 198.800 C 236.907 198.800,234.539 200.906,234.934 202.479 C 235.592 205.102,237.882 205.759,242.871 204.757 C 245.495 204.230,247.600 204.990,247.600 206.464 C 247.600 207.941,243.840 211.247,241.881 211.491 C 240.078 211.716,238.000 213.273,238.000 214.398 C 238.000 214.755,237.736 215.396,237.413 215.824 C 235.940 217.770,237.376 219.203,240.789 219.194 C 243.541 219.186,243.775 219.024,244.231 216.800 C 244.631 214.854,245.805 214.208,247.056 215.247 C 248.345 216.316,246.518 219.989,244.200 220.989 C 240.832 222.442,238.270 226.315,240.189 227.051 C 240.513 227.176,240.893 227.890,241.034 228.639 C 241.421 230.703,241.727 230.495,248.708 223.432 L 255.200 216.864 255.200 213.613 C 255.200 210.422,255.221 210.352,256.334 209.881 C 261.005 207.901,262.809 204.929,262.891 199.081 C 262.973 193.235,262.537 192.721,257.642 192.886 L 254.251 193.000 253.367 194.600 C 252.880 195.480,252.095 196.950,251.621 197.868 C 250.097 200.818,248.823 201.074,248.806 198.431 C 248.803 197.899,248.522 197.156,248.183 196.781 C 247.843 196.406,247.456 195.402,247.322 194.550 C 247.188 193.697,246.836 192.856,246.539 192.680 C 246.243 192.504,246.000 191.962,246.000 191.474 C 246.000 187.634,238.574 180.705,235.700 181.865"/>
</svg>
