<?xml version="1.0" encoding="UTF-8" standalone="no"?>
<!DOCTYPE svg PUBLIC "-//W3C//DTD SVG 1.1//EN" "http://www.w3.org/Graphics/SVG/1.1/DTD/svg11.dtd">
<svg xmlns="http://www.w3.org/2000/svg" version="1.1" viewBox="0.00 0.00 2000.00 900.00">
  <path stroke="#faf9f1" stroke-opacity="0.651" stroke-width="2.00" fill="none" stroke-linecap="butt"
    vector-effect="non-scaling-stroke" d="
  M 2000.00 643.63
  Q 1999.59 642.76 1999.70 641.55
  Q 1999.70 641.50 1999.65 641.47
  Q 1999.61 641.45 1999.56 641.47
  Q 1999.47 641.51 1999.46 641.61
  Q 1998.40 648.53 1996.48 655.26
  Q 1978.60 717.99 1926.68 755.99
  C 1899.18 776.11 1865.95 788.93 1832.25 794.03
  C 1768.97 803.62 1704.42 788.81 1651.30 753.33
  A 0.34 0.33 28.8 0 0 1650.80 753.47
  C 1635.19 788.30 1609.54 815.91 1575.10 833.06
  C 1547.70 846.70 1516.23 853.46 1485.49 855.72
  Q 1454.66 857.99 1423.12 856.09
  Q 1379.83 853.48 1335.21 845.87
  C 1261.56 833.32 1187.99 814.98 1116.02 795.61
  Q 1057.20 779.79 966.61 755.42
  Q 846.55 723.13 761.02 704.78
  Q 690.27 689.61 624.78 680.04
  Q 592.39 675.30 567.43 673.04
  Q 475.45 664.71 382.50 675.60
  C 270.77 688.68 160.93 721.00 59.31 769.09
  Q 29.56 783.17 1.01 799.51" />
  <path fill="#39b2ff" fill-opacity="0.302" d="
  M 2000.00 634.59
  L 2000.00 643.63
  Q 1999.59 642.76 1999.70 641.55
  Q 1999.70 641.50 1999.65 641.47
  Q 1999.61 641.45 1999.56 641.47
  Q 1999.47 641.51 1999.46 641.61
  Q 1998.40 648.53 1996.48 655.26
  Q 1978.60 717.99 1926.68 755.99
  C 1899.18 776.11 1865.95 788.93 1832.25 794.03
  C 1768.97 803.62 1704.42 788.81 1651.30 753.33
  A 0.34 0.33 28.8 0 0 1650.80 753.47
  C 1635.19 788.30 1609.54 815.91 1575.10 833.06
  C 1547.70 846.70 1516.23 853.46 1485.49 855.72
  Q 1454.66 857.99 1423.12 856.09
  Q 1379.83 853.48 1335.21 845.87
  C 1261.56 833.32 1187.99 814.98 1116.02 795.61
  Q 1057.20 779.79 966.61 755.42
  Q 846.55 723.13 761.02 704.78
  Q 690.27 689.61 624.78 680.04
  Q 592.39 675.30 567.43 673.04
  Q 475.45 664.71 382.50 675.60
  C 270.77 688.68 160.93 721.00 59.31 769.09
  Q 29.56 783.17 1.01 799.51
  L 0.00 797.75
  L 0.00 697.65
  Q 18.08 687.88 37.04 679.59
  C 120.22 643.26 209.14 622.39 300.21 613.96
  Q 395.56 605.13 493.89 614.79
  Q 553.03 620.60 616.36 633.05
  Q 684.09 646.37 756.50 665.92
  Q 827.35 685.05 896.68 706.62
  Q 984.63 734.00 1078.72 763.41
  Q 1113.02 774.14 1158.19 787.24
  Q 1231.64 808.53 1302.54 822.63
  Q 1343.65 830.81 1381.03 834.48
  C 1440.08 840.29 1504.25 838.98 1558.57 812.90
  C 1597.12 794.39 1626.94 764.25 1646.67 726.64
  Q 1646.93 726.14 1647.39 726.45
  Q 1695.03 757.70 1750.17 766.03
  Q 1817.97 776.27 1879.85 753.02
  C 1936.28 731.81 1980.56 689.65 1999.39 632.00
  Q 1999.56 631.47 1999.64 632.02
  L 2000.00 634.59
  Z" />
  <path fill="#faf9f1" d="
  M 2000.00 643.63
  L 2000.00 900.00
  L 0.00 900.00
  L 0.00 799.75
  Q 0.42 799.75 1.01 799.51
  Q 29.56 783.17 59.31 769.09
  C 160.93 721.00 270.77 688.68 382.50 675.60
  Q 475.45 664.71 567.43 673.04
  Q 592.39 675.30 624.78 680.04
  Q 690.27 689.61 761.02 704.78
  Q 846.55 723.13 966.61 755.42
  Q 1057.20 779.79 1116.02 795.61
  C 1187.99 814.98 1261.56 833.32 1335.21 845.87
  Q 1379.83 853.48 1423.12 856.09
  Q 1454.66 857.99 1485.49 855.72
  C 1516.23 853.46 1547.70 846.70 1575.10 833.06
  C 1609.54 815.91 1635.19 788.30 1650.80 753.47
  A 0.34 0.33 28.8 0 1 1651.30 753.33
  C 1704.42 788.81 1768.97 803.62 1832.25 794.03
  C 1865.95 788.93 1899.18 776.11 1926.68 755.99
  Q 1978.60 717.99 1996.48 655.26
  Q 1998.40 648.53 1999.46 641.61
  Q 1999.47 641.51 1999.56 641.47
  Q 1999.61 641.45 1999.65 641.47
  Q 1999.70 641.50 1999.70 641.55
  Q 1999.59 642.76 2000.00 643.63
  Z" />
</svg>
