<svg xmlns="http://www.w3.org/2000/svg" style="height:fit-content" viewBox="0 0 400 180">
    <path fill="#faf9f1" d="M399.68 129.458c-6.856 28.134-40.727 38.774-68.797 21.612l-.7-.428-.69 1.371c-10.409 20.704-34.431 24.341-83.993 12.717-9.913-2.325-13.698-3.317-48.917-12.815-70.363-18.976-99.896-21.932-138.276-13.841-19.275 4.063-43.249 12.948-56.849 21.068L0 160.013V0h400c-.18155-17.1073.25588 145.77144-.064 128.667-.034 0-.15.356-.256.791"/>
    <path fill="#39b2ff" d="M72.333 121.832c-1.971.06-4.145.148-4.833.195-4.278.295-10.902.849-11.75.981-.55.086-2.5.345-4.333.574-1.834.23-3.521.488-3.75.573-.229.086-1.354.278-2.5.428-1.146.15-2.459.38-2.917.51-.458.131-1.769.393-2.912.583-1.143.189-2.156.405-2.25.479-.094.073-.91.265-1.813.424-.902.16-2.027.426-2.5.591-.472.165-1.216.353-1.652.418-.437.064-.835.183-.885.265-.05.081-.334.147-.631.147s-.612.065-.699.145c-.087.08-.72.273-1.408.429-.687.156-1.512.387-1.833.514-.321.126-1.178.391-1.905.588-.726.197-1.439.423-1.583.502-.144.079-.787.294-1.429.477-.642.184-1.879.59-2.75.903-.871.312-2.183.775-2.917 1.028-.733.253-1.408.515-1.5.582-.091.067-.579.255-1.083.418-.504.163-1.178.436-1.498.605-.319.17-.641.309-.715.309-.074 0-.615.225-1.204.5-.588.275-1.116.5-1.172.5-.348 0-7.759 3.679-7.841 3.891-.04.106-.054 4.775-.03 10.377l.043 10.184 1.834-1.065c14.315-8.323 37.191-16.766 56.39-20.813 38.38-8.091 67.913-5.135 138.276 13.841 35.219 9.498 39.004 10.49 48.917 12.815 49.562 11.624 73.584 7.987 83.993-12.717l.69-1.371.7.428c20.475 12.519 44.949 10.702 59.539-4.421 5.143-5.331 9.578-14.396 9.578-19.578 0-1.439-.184-1.501-.483-.165-.114.507-.27.961-.349 1.01-.078.048-.299.556-.492 1.127-.44 1.312-2.031 4.381-3.14 6.06-1.119 1.695-1.393 2.076-2.212 3.08-3.306 4.049-8.044 7.803-12.938 10.249-.533.267-1.024.56-1.092.651-.067.092-.123.102-.125.022-.001-.08-.097-.067-.213.029-.115.096-.659.34-1.208.542-.549.203-1.073.426-1.165.495-.091.07-.686.287-1.32.482-.635.195-1.235.417-1.333.494-.099.077-.893.311-1.763.52-.871.209-1.709.444-1.863.522-.3.153-4.54.9-6.721 1.184-1.735.225-9.261.22-11.083-.008-1.844-.231-5.235-.797-6.083-1.016-.367-.095-1.417-.365-2.334-.601-.916-.235-1.891-.529-2.166-.653-.275-.124-.95-.353-1.5-.509-.55-.156-1.083-.352-1.185-.436-.102-.083-.619-.301-1.149-.483-.53-.183-1.047-.401-1.148-.485-.102-.084-.523-.286-.935-.449-.85-.335-4.061-2.091-5.621-3.071l-1.037-.653-.446.787c-3.053 5.385-7.303 10.349-11.063 12.922-2.285 1.563-3.484 2.313-4.535 2.838-.431.216-.881.469-1 .562-.118.094-.648.331-1.178.526-.53.195-1.13.459-1.334.587-.203.127-.782.362-1.286.522-.504.16-.992.35-1.083.422-.092.071-.792.289-1.555.484-.764.195-1.514.427-1.667.514-.153.087-1.216.35-2.362.584-1.145.233-2.402.494-2.793.579-3.465.755-12.581 1.151-17.506.761-6.733-.534-9.617-.795-9.76-.884-.08-.049-1.617-.3-3.418-.559-4.257-.611-8.14-1.266-8.784-1.482-.282-.095-1.444-.357-2.584-.582-4.544-.9-6.25-1.271-6.502-1.411-.145-.081-1.082-.306-2.083-.501-1.001-.195-1.933-.417-2.072-.493-.139-.076-1.039-.308-2-.516-.961-.207-1.87-.44-2.019-.518-.15-.078-.975-.295-1.834-.482-.859-.188-1.711-.416-1.895-.508-.314-.157-1.171-.391-5.166-1.408-.917-.233-1.801-.501-1.965-.594-.165-.094-.364-.13-.445-.08-.08.049-.17.029-.201-.045s-.656-.294-1.389-.487c-2.685-.709-4.512-1.24-5-1.454-.275-.12-1.063-.35-1.75-.512-.688-.161-1.325-.35-1.417-.42-.092-.069-.804-.289-1.583-.487-.78-.199-1.542-.429-1.695-.511-.153-.082-.898-.307-1.655-.501-.757-.193-1.57-.448-1.805-.567-.236-.118-.991-.348-1.679-.511-.687-.163-1.325-.353-1.416-.423-.092-.069-.805-.295-1.584-.5-.779-.206-1.491-.431-1.583-.499-.092-.069-.767-.285-1.5-.48s-1.483-.43-1.667-.522c-.183-.092-.971-.347-1.75-.568-1.299-.367-3.305-.989-5.416-1.677-2.427-.792-4.398-1.393-4.917-1.5-.321-.066-.658-.178-.75-.25-.092-.071-.767-.292-1.5-.492-.733-.199-1.558-.46-1.833-.579-.275-.12-1.025-.352-1.667-.517-.642-.164-1.242-.355-1.333-.424-.092-.068-.799-.286-1.572-.483-.773-.198-1.598-.456-1.833-.575-.236-.118-.991-.35-1.679-.515-.687-.165-1.362-.366-1.5-.447-.137-.08-.887-.325-1.666-.543-.78-.218-2.167-.625-3.084-.904-.916-.28-2.341-.704-3.166-.943-.825-.239-1.65-.5-1.834-.581-.183-.08-1.046-.343-1.916-.583-.871-.24-2.371-.664-3.334-.943-4.214-1.219-5.347-1.539-6.916-1.95-.917-.24-1.751-.491-1.853-.557-.103-.067-.928-.282-1.834-.479-.905-.197-1.722-.415-1.813-.484-.092-.069-.88-.289-1.75-.488-.871-.199-1.884-.467-2.25-.595-.367-.127-1.305-.36-2.084-.517-.779-.156-1.491-.339-1.583-.405-.092-.067-.954-.283-1.917-.482-.962-.198-1.868-.425-2.013-.504-.145-.078-1.083-.303-2.084-.5-1-.197-1.969-.428-2.153-.515-.326-.154-3.932-.932-5.083-1.097-.321-.046-.733-.15-.917-.23-.183-.081-.895-.235-1.583-.343-.687-.108-1.365-.256-1.504-.329-.14-.073-1.265-.295-2.5-.493-1.236-.198-2.396-.428-2.579-.512-.184-.084-1.346-.304-2.584-.49-1.237-.186-2.7-.444-3.25-.574-.55-.131-2.012-.357-3.25-.504-1.237-.147-2.408-.333-2.601-.414-.193-.08-1.843-.302-3.667-.493-1.823-.192-3.653-.422-4.065-.512-.899-.197-3.182-.412-8-.754-1.971-.14-4.483-.323-5.583-.405-2.767-.208-12.26-.31-16.584-.178" opacity=".3"/>
</svg>
