<svg xmlns="http://www.w3.org/2000/svg" viewBox="0 0 400 180" style="height:fit-content">
  <path fill="#faf9f1"
    d="M 399.75 129.47 C 393 157 359 168 330.88 151.07 L 330.18 150.64 L 329.49 152.01 C 319.09 172.71 295.06 176.35 245.5 164.73 C 235.59 162.41 231.8 161.41 196.58 151.92 C 126.22 132.94 96.68 129.98 58.31 138.07 C 39.03 142.14 15.6 150.88 2 159 L 0 160 L 0 180 L 400 180 C 400 173 400 144.551 400 127.38 C 400 127.38 399.9 128.78 399.8 129.21" />
  <path fill="#39b2ff" opacity="0.3"
    d="M 72.33 121.83 c -1.97 .06 -4.14 .15 -4.83 .2 a 359 359 0 0 0 -11.75 .98 c -.55 .08 -2.5 .34 -4.33 .57 -1.84 .23 -3.52 .49 -3.75 .58 -.23 .08 -1.36 .27 -2.5 .42 -1.15 .15 -2.46 .38 -2.92 .51 -.46 .13 -1.77 .4 -2.91 .59 -1.15 .18 -2.16 .4 -2.25 .47 -.1 .08 -.91 .27 -1.82 .43 -.9 .16 -2.02 .42 -2.5 .59 a 11 11 0 0 1 -1.65 .42 c -.43 .06 -.83 .18 -.88 .26 -.05 .08 -.34 .15 -.63 .15 -.3 0 -.61 .06 -.7 .15 -.09 .07 -.72 .27 -1.41 .42 -.69 .16 -1.51 .4 -1.83 .52 -.32 .12 -1.18 .39 -1.9 .59 -.73 .2 -1.45 .42 -1.6 .5 -.14 .08 -.78 .3 -1.42 .47 -.64 .19 -1.88 .6 -2.75 .9 a 315 315 0 0 1 -2.92 1.04 c -.73 .25 -1.4 .51 -1.5 .58 -.09 .07 -.58 .25 -1.08 .42 -.5 .16 -1.18 .43 -1.5 .6 -.32 .17 -.64 .31 -.71 .31 -.08 0 -.62 .22 -1.2 .5 A 84.43 84.43 0 0 0 0 139.43 c -.05 .1 0 4.74 .03 10.34 L 0 160 l 2 -1 c 14.32 -8.32 37.1 -16.88 56.3 -20.93 38.39 -8.09 67.92 -5.13 138.28 13.84 35.22 9.5 39 10.5 48.92 12.82 49.56 11.62 73.58 7.99 84 -12.72 l .68 -1.37 .7 .43 c 20.12 11.93 44.95 10.7 59.54 -4.42 5.14 -5.33 9.58 -14.4 9.58 -19.58 0 -4.07 -.18 -1.5 -.48 -.16 -.12 .5 -.27 .96 -.35 1 -.08 .05 -.3 .56 -.5 1.13 a 36.43 36.43 0 0 1 -5.35 9.14 40.91 40.91 0 0 1 -12.93 10.25 5.7 5.7 0 0 0 -1.1 .65 c -.06 .1 -.12 .1 -.12 .02 0 -.07 -.1 -.06 -.21 .03 -.12 .1 -.66 .34 -1.21 .55 a 8.9 8.9 0 0 0 -1.17 .5 c -.09 .06 -.68 .28 -1.32 .47 -.63 .2 -1.23 .42 -1.33 .5 -.1 .07 -.9 .3 -1.76 .52 -.87 .2 -1.71 .44 -1.87 .52 -.3 .15 -4.54 .9 -6.72 1.18 -1.73 .23 -9.26 .22 -11.08 0 -1.84 -.24 -5.24 -.8 -6.08 -1.02 l -2.34 -.6 c -.91 -.24 -1.89 -.53 -2.16 -.66 -.28 -.12 -.95 -.35 -1.5 -.5 a 5.7 5.7 0 0 1 -1.19 -.44 c -.1 -.08 -.62 -.3 -1.15 -.48 a 6.38 6.38 0 0 1 -1.14 -.49 59.93 59.93 0 0 1 -6.56 -3.52 l -1.04 -.65 -.44 .79 c -3.06 5.38 -7.3 10.34 -11.07 12.92 a 40.27 40.27 0 0 1 -4.53 2.84 c -.43 .21 -.88 .47 -1 .56 -.12 .1 -.65 .33 -1.18 .52 -.53 .2 -1.13 .46 -1.33 .6 -.2 .12 -.79 .35 -1.29 .51 -.5 .16 -1 .35 -1.08 .43 -.1 .07 -.8 .28 -1.56 .48 -.76 .2 -1.51 .43 -1.67 .51 -.15 .09 -1.21 .35 -2.36 .59 l -2.79 .58 c -3.47 .75 -12.58 1.15 -17.5 .76 -6.74 -.54 -9.62 -.8 -9.77 -.89 -.08 -.05 -1.61 -.3 -3.41 -.56 a 113.4 113.4 0 0 1 -8.79 -1.48 c -.28 -.1 -1.44 -.35 -2.58 -.58 -4.55 -.9 -6.25 -1.27 -6.5 -1.41 a 15.6 15.6 0 0 0 -2.09 -.5 c -1 -.2 -1.93 -.42 -2.07 -.5 a 16.7 16.7 0 0 0 -2 -.51 c -.96 -.2 -1.87 -.44 -2.02 -.52 -.15 -.08 -.97 -.3 -1.83 -.48 a 14.6 14.6 0 0 1 -1.9 -.5 c -.31 -.17 -1.17 -.4 -5.16 -1.42 -.92 -.23 -1.8 -.5 -1.97 -.6 -.16 -.09 -.36 -.12 -.44 -.07 -.08 .05 -.17 .03 -.2 -.05 -.03 -.07 -.66 -.29 -1.4 -.48 a 58.59 58.59 0 0 1 -5 -1.46 14.3 14.3 0 0 0 -1.74 -.5 8.07 8.07 0 0 1 -1.42 -.43 c -.1 -.07 -.8 -.29 -1.58 -.49 s -1.54 -.42 -1.7 -.5 c -.15 -.09 -.9 -.31 -1.65 -.5 -.76 -.2 -1.57 -.46 -1.8 -.57 -.24 -.12 -1 -.35 -1.69 -.52 a 8.13 8.13 0 0 1 -1.41 -.42 c -.1 -.07 -.8 -.3 -1.59 -.5 -.78 -.2 -1.49 -.43 -1.58 -.5 -.1 -.07 -.77 -.28 -1.5 -.48 a 14.6 14.6 0 0 1 -1.67 -.52 c -.18 -.1 -.97 -.35 -1.75 -.57 -1.3 -.37 -3.3 -.99 -5.41 -1.68 -2.43 -.79 -4.4 -1.39 -4.92 -1.5 a 2.57 2.57 0 0 1 -.75 -.25 c -.1 -.07 -.77 -.29 -1.5 -.49 s -1.56 -.46 -1.83 -.58 c -.28 -.12 -1.03 -.35 -1.67 -.51 a 7.8 7.8 0 0 1 -1.33 -.43 c -.1 -.06 -.8 -.28 -1.57 -.48 -.78 -.2 -1.6 -.46 -1.84 -.57 -.23 -.12 -.99 -.35 -1.68 -.52 a 9.98 9.98 0 0 1 -1.5 -.45 c -.13 -.08 -.88 -.32 -1.66 -.54 l -3.09 -.9 -3.16 -.95 c -.83 -.24 -1.65 -.5 -1.84 -.58 -.18 -.08 -1.04 -.34 -1.91 -.58 l -3.34 -.94 a 263.44 263.44 0 0 0 -6.91 -1.95 c -.92 -.24 -1.75 -.5 -1.86 -.56 -.1 -.07 -.92 -.28 -1.83 -.48 -.9 -.2 -1.72 -.41 -1.81 -.48 -.1 -.07 -.88 -.3 -1.75 -.5 s -1.89 -.46 -2.25 -.59 a 21.5 21.5 0 0 0 -2.09 -.51 9.66 9.66 0 0 1 -1.58 -.4 c -.1 -.08 -.95 -.3 -1.92 -.5 -.96 -.19 -1.87 -.42 -2.01 -.5 a 16.6 16.6 0 0 0 -2.08 -.5 c -1 -.2 -1.97 -.42 -2.16 -.51 -.32 -.15 -3.93 -.93 -5.08 -1.1 a 4.46 4.46 0 0 1 -.92 -.23 c -.18 -.08 -.9 -.23 -1.58 -.34 a 8.88 8.88 0 0 1 -1.5 -.33 c -.14 -.07 -1.27 -.3 -2.5 -.5 a 22.5 22.5 0 0 1 -2.58 -.5 c -.19 -.09 -1.35 -.3 -2.59 -.5 -1.23 -.18 -2.7 -.44 -3.25 -.57 -.55 -.13 -2 -.36 -3.25 -.5 -1.23 -.15 -2.4 -.34 -2.6 -.42 -.2 -.08 -1.84 -.3 -3.67 -.49 -1.82 -.2 -3.65 -.42 -4.06 -.51 -.9 -.2 -3.18 -.41 -8 -.75 l -5.58 -.41 c -2.77 -.2 -12.26 -.31 -16.59 -.18" />
</svg>
