<?xml version="1.0" encoding="UTF-8" standalone="no"?>
<!DOCTYPE svg PUBLIC "-//W3C//DTD SVG 1.1//EN" "http://www.w3.org/Graphics/SVG/1.1/DTD/svg11.dtd">
<svg xmlns="http://www.w3.org/2000/svg" version="1.1" viewBox="0.00 0.00 200.00 200.00">
<path stroke="#bdcad3" stroke-opacity="0.702" stroke-width="2.00" fill="none" stroke-linecap="butt" vector-effect="non-scaling-stroke" d="
  M 88.72 70.77
  A 0.34 0.34 0.0 0 0 88.17 71.05
  L 88.17 126.99
  A 0.34 0.34 0.0 0 0 88.72 127.27
  L 126.35 99.29
  A 0.34 0.34 0.0 0 0 126.35 98.75
  L 88.72 70.77"
/>
<path fill="#174766" fill-opacity="0.400" d="
  M 196.01 100.01
  A 96.02 96.02 0.0 0 1 99.99 196.03
  A 96.02 96.02 0.0 0 1 3.97 100.01
  A 96.02 96.02 0.0 0 1 99.99 3.99
  A 96.02 96.02 0.0 0 1 196.01 100.01
  Z
  M 88.72 70.77
  A 0.34 0.34 0.0 0 0 88.17 71.05
  L 88.17 126.99
  A 0.34 0.34 0.0 0 0 88.72 127.27
  L 126.35 99.29
  A 0.34 0.34 0.0 0 0 126.35 98.75
  L 88.72 70.77
  Z"
/>
<path fill="#ffffff" d="
  M 88.72 70.77
  L 126.35 98.75
  A 0.34 0.34 0.0 0 1 126.35 99.29
  L 88.72 127.27
  A 0.34 0.34 0.0 0 1 88.17 126.99
  L 88.17 71.05
  A 0.34 0.34 0.0 0 1 88.72 70.77
  Z"
/>
</svg>
