<?xml version="1.0" encoding="UTF-8" standalone="no"?>
<!DOCTYPE svg PUBLIC "-//W3C//DTD SVG 1.1//EN" "http://www.w3.org/Graphics/SVG/1.1/DTD/svg11.dtd">
<svg xmlns="http://www.w3.org/2000/svg" version="1.1" viewBox="0.00 0.00 400.00 400.00">
<g stroke-width="2.00" fill="none" stroke-linecap="butt">
<path stroke="#808080" vector-effect="non-scaling-stroke" d="
  M 176.90 198.30
  Q 177.53 208.12 176.98 217.42
  A 0.38 0.38 0.0 0 0 177.59 217.74
  Q 182.63 213.68 185.69 207.70
  Q 185.95 207.19 185.57 206.77
  C 182.75 203.68 177.63 199.41 177.25 195.41
  C 176.94 192.17 177.45 188.22 175.66 185.19
  A 1.09 1.08 72.8 0 1 176.52 183.55
  L 183.53 183.12
  A 0.30 0.29 -83.7 0 1 183.83 183.50
  Q 183.13 185.81 183.90 187.52
  A 1.23 1.23 0.0 0 0 185.56 188.12
  L 189.62 186.15
  Q 191.69 185.14 190.61 187.17
  C 189.42 189.43 185.54 197.16 189.30 198.78
  Q 192.90 200.33 195.04 196.94
  Q 199.69 189.59 204.35 181.81
  Q 206.10 178.88 206.95 175.91
  A 0.75 0.75 0.0 0 1 208.24 175.64
  Q 209.89 177.62 209.93 180.19
  Q 210.04 188.96 209.68 197.55
  A 2.64 2.63 88.2 0 1 207.33 200.06
  C 203.67 200.44 199.39 200.62 196.11 202.40
  Q 195.50 202.73 195.96 203.25
  C 199.93 207.80 204.20 211.80 210.76 211.66
  Q 216.54 211.54 222.11 211.51
  Q 225.15 211.49 223.26 213.87
  Q 223.16 214.00 221.36 216.29
  Q 219.49 218.64 216.52 219.04
  Q 213.54 219.45 210.57 220.22
  C 208.71 220.70 206.84 220.58 206.29 222.83
  Q 206.16 223.37 205.60 223.36
  Q 201.77 223.32 197.80 224.32
  C 193.93 225.29 192.46 229.88 188.58 230.29
  C 183.97 230.76 179.17 229.52 174.72 228.56
  Q 174.10 228.43 174.00 229.05
  Q 173.05 234.48 175.86 238.89
  Q 176.46 239.83 177.39 239.21
  C 181.24 236.66 184.67 234.84 189.46 234.52
  Q 190.66 234.45 191.78 233.46
  C 193.73 231.75 196.73 231.62 199.23 231.75
  A 1.55 1.54 67.2 0 1 200.16 232.13
  L 202.52 234.16
  Q 202.97 234.55 203.57 234.58
  Q 208.16 234.89 213.12 234.27
  C 216.29 233.88 219.41 234.02 222.58 234.00
  Q 224.44 233.99 223.79 235.73
  Q 223.39 236.81 222.34 237.46
  A 2.59 2.57 -63.7 0 1 221.21 237.85
  Q 212.50 238.78 205.58 241.29
  C 201.21 242.87 196.59 242.52 192.04 242.91
  A 0.81 0.79 -86.0 0 0 191.33 243.54
  Q 190.21 248.56 192.59 252.53
  A 1.82 1.81 -10.5 0 0 193.85 253.39
  C 204.16 255.22 214.96 251.66 222.81 244.95
  Q 224.85 243.20 225.50 245.82
  Q 225.67 246.50 225.66 247.22
  A 6.44 6.44 0.0 0 1 223.25 252.16
  Q 218.41 256.07 212.89 259.72
  C 207.76 263.12 198.66 261.59 193.37 259.41
  Q 188.03 257.21 184.82 250.91
  Q 184.59 250.44 184.92 250.04
  Q 185.94 248.81 186.16 247.20
  A 0.63 0.63 0.0 0 0 185.32 246.53
  Q 183.20 247.29 182.89 249.72
  A 0.59 0.58 21.3 0 1 181.97 250.12
  L 176.54 246.19
  Q 176.08 245.85 175.53 246.01
  Q 169.80 247.65 167.85 252.55
  A 2.06 2.06 0.0 0 0 168.26 254.73
  Q 174.73 261.64 180.49 269.77
  Q 184.50 275.45 191.46 275.51
  Q 198.25 275.57 205.20 275.45
  Q 210.47 275.36 209.89 280.56
  Q 209.65 282.65 207.69 283.74
  Q 201.48 287.19 192.60 289.38
  Q 189.54 290.13 188.09 292.79
  Q 181.55 304.74 173.46 313.54
  Q 163.75 324.10 150.18 330.65
  C 145.37 332.98 140.09 334.31 135.04 336.15
  C 130.53 337.79 126.52 337.94 121.90 337.77
  Q 118.42 337.65 116.36 339.95
  A 1.68 1.68 0.0 0 0 116.50 342.33
  Q 125.54 350.31 130.20 360.70
  A 0.59 0.59 0.0 0 1 129.46 361.49
  Q 124.99 359.81 120.78 357.13
  Q 110.20 350.39 98.77 342.05
  Q 91.55 336.79 86.94 331.44
  Q 77.27 320.23 66.89 306.07
  Q 58.63 294.79 53.46 285.39
  Q 52.43 283.53 50.23 283.44
  Q 46.01 283.28 42.10 283.19
  C 39.64 283.13 37.84 280.61 35.89 279.27
  Q 33.20 277.44 30.97 277.89
  Q 27.94 278.50 28.63 281.51
  A 2.21 2.20 20.8 0 0 29.01 282.35
  Q 40.78 298.86 52.86 312.55
  Q 65.94 327.39 81.67 341.58
  Q 100.44 358.53 122.27 370.26
  Q 136.37 377.83 150.36 381.40
  Q 152.70 381.99 153.33 379.66
  Q 154.30 376.06 152.05 372.53
  C 150.11 369.48 147.96 366.63 146.22 363.46
  Q 140.22 352.53 135.71 343.34
  Q 135.09 342.08 135.09 340.66
  A 0.69 0.69 0.0 0 1 136.12 340.06
  Q 145.87 345.56 148.98 354.69
  Q 150.07 357.90 151.69 360.24
  Q 158.40 369.97 166.25 380.53
  Q 168.60 383.69 171.21 386.37
  C 174.53 389.78 180.81 389.81 185.31 389.50
  Q 185.93 389.46 186.22 388.90
  C 187.48 386.48 188.48 383.94 190.15 381.73
  Q 195.06 375.23 199.79 368.77
  Q 201.73 366.13 203.03 363.51
  C 207.17 355.22 211.25 346.83 213.35 337.43
  C 214.15 333.83 215.91 331.16 219.97 331.39
  C 221.27 331.47 223.12 331.62 223.63 333.08
  C 225.24 337.78 223.12 343.03 220.70 347.19
  Q 211.33 363.34 203.87 376.83
  Q 202.33 379.62 201.20 384.92
  Q 200.92 386.24 199.92 387.12
  Q 199.32 387.64 200.11 387.68
  Q 210.94 388.14 220.08 387.69
  Q 225.81 387.41 236.10 386.23
  C 265.05 382.94 292.88 373.59 318.04 358.84
  Q 348.09 341.22 370.97 314.95
  Q 372.78 312.88 372.60 310.22
  Q 371.70 296.92 363.55 287.28
  C 359.83 282.88 354.38 279.13 349.45 275.99
  Q 339.11 269.41 328.50 263.92
  Q 326.24 262.74 323.83 263.62
  A 1.27 1.26 -26.0 0 0 323.18 265.47
  L 329.50 275.76
  A 1.98 1.98 0.0 0 1 329.59 277.65
  Q 327.21 282.57 324.51 286.52
  Q 323.51 287.96 321.56 287.99
  Q 312.18 288.13 304.10 287.64
  C 299.87 287.38 295.60 287.64 291.39 287.84
  A 2.65 2.65 0.0 0 0 289.15 289.28
  C 286.49 294.44 280.14 300.74 273.93 297.20
  Q 271.28 295.70 271.02 292.38
  Q 270.98 291.92 271.19 291.50
  L 272.14 289.67
  Q 272.48 289.00 271.95 288.47
  C 269.67 286.16 264.14 281.69 264.59 278.18
  A 1.36 1.36 0.0 0 1 266.90 277.38
  Q 270.12 280.58 272.82 284.27
  Q 275.31 287.67 279.59 286.60
  A 1.67 1.66 9.4 0 0 280.55 285.92
  C 282.24 283.42 283.65 281.17 286.80 280.31
  C 291.17 279.12 296.03 278.11 299.89 275.70
  Q 300.58 275.27 301.19 275.81
  L 305.05 279.20
  Q 305.74 279.81 306.65 279.90
  Q 313.04 280.60 317.90 280.16
  Q 324.16 279.61 321.42 274.01
  C 319.15 269.39 316.12 264.25 311.47 261.50
  Q 305.19 257.79 298.85 254.28
  C 291.92 250.43 287.15 245.92 282.30 240.08
  C 278.02 234.92 273.10 231.78 266.58 230.32
  A 1.42 1.41 -65.1 0 0 265.14 230.85
  Q 263.40 233.15 261.50 235.51
  C 260.05 237.33 259.51 239.36 258.71 241.48
  Q 258.55 241.90 258.85 242.24
  Q 259.88 243.40 261.17 244.36
  C 263.81 246.33 263.27 252.09 263.39 254.96
  A 1.63 1.61 -66.6 0 0 263.78 255.96
  C 265.69 258.17 269.00 260.83 267.04 264.04
  Q 262.74 271.04 258.55 277.93
  C 257.60 279.49 256.37 280.75 254.82 281.72
  Q 248.57 285.60 243.74 289.41
  C 238.82 293.28 238.19 299.08 237.66 304.89
  C 237.43 307.55 233.49 309.92 231.49 311.44
  A 7.17 7.16 82.2 0 0 229.13 314.55
  Q 227.84 317.81 226.25 321.12
  Q 224.91 323.92 222.00 323.82
  C 214.47 323.58 208.30 324.31 201.04 327.24
  C 197.94 328.49 192.14 329.73 189.27 327.36
  Q 187.03 325.51 188.39 322.91
  C 189.48 320.83 192.76 320.59 194.80 320.92
  Q 196.97 321.27 198.68 319.94
  C 202.66 316.86 207.83 316.30 212.67 316.06
  C 217.39 315.83 220.81 314.53 223.79 310.79
  Q 230.90 301.83 232.70 295.16
  A 2.09 2.03 -11.9 0 1 233.44 294.06
  Q 237.18 291.19 239.51 287.34
  C 242.29 282.73 246.01 279.38 249.35 275.43
  Q 252.50 271.72 255.71 266.06
  C 258.18 261.71 259.63 259.30 256.92 254.52
  Q 254.25 249.78 251.31 244.97
  Q 250.45 243.56 251.49 241.78
  C 255.60 234.78 260.79 230.08 266.22 224.49
  Q 267.42 223.25 267.48 221.46
  Q 267.61 217.64 269.70 215.12
  C 272.19 212.13 274.13 206.19 274.73 203.01
  Q 276.35 194.34 278.11 186.52
  Q 279.27 181.35 283.08 175.07
  Q 285.76 170.65 289.84 168.99
  Q 290.32 168.80 290.49 168.31
  Q 291.20 166.26 291.50 164.24
  Q 292.50 157.38 293.06 151.15
  Q 293.84 142.52 292.23 130.98
  Q 292.16 130.51 291.80 130.20
  Q 289.89 128.56 287.06 128.49
  A 0.67 0.66 3.2 0 1 286.41 127.77
  Q 286.97 119.92 286.68 113.36
  C 286.08 99.73 287.64 85.84 283.94 72.56
  C 283.36 70.49 282.20 68.31 281.02 66.52
  Q 276.56 59.74 273.23 53.88
  Q 272.98 53.44 272.48 53.36
  Q 266.95 52.45 263.62 55.30
  Q 259.46 58.87 255.22 64.03
  C 254.22 65.24 253.39 66.95 253.97 68.54
  Q 255.10 71.63 255.30 74.78
  A 0.64 0.64 0.0 0 1 254.31 75.35
  C 252.46 74.14 251.04 70.61 250.11 68.63
  Q 249.27 66.84 249.74 64.55
  Q 250.77 59.55 252.87 56.19
  C 257.13 49.40 263.79 41.67 264.17 33.27
  Q 264.20 32.66 263.72 32.28
  Q 251.07 22.34 235.64 16.08
  Q 226.14 12.22 215.73 11.45
  Q 189.37 9.51 166.47 22.64
  C 160.91 25.83 149.53 33.64 148.93 39.63
  Q 148.82 40.64 149.75 40.21
  C 155.72 37.47 162.45 33.43 169.08 33.93
  Q 180.81 34.81 193.56 34.96
  C 196.36 34.99 197.40 36.80 198.88 38.70
  A 0.39 0.39 0.0 0 1 198.73 39.30
  C 196.45 40.32 194.40 40.98 191.85 40.98
  Q 182.20 40.97 172.76 41.37
  Q 164.51 41.72 159.79 44.49
  C 155.13 47.22 149.37 51.17 145.80 55.56
  A 1.11 1.10 -44.3 0 0 145.78 56.95
  C 148.91 60.93 152.28 65.00 154.86 69.40
  C 156.92 72.92 156.16 77.17 158.25 80.50
  C 159.62 82.70 161.07 84.43 160.96 87.24
  Q 160.84 90.45 168.31 97.31
  Q 169.26 98.18 168.23 98.97
  L 166.85 100.01
  Q 165.79 100.81 164.84 99.87
  Q 159.80 94.89 157.73 89.81
  Q 155.52 84.39 153.75 78.71
  Q 153.02 76.35 151.06 74.79
  Q 147.25 71.77 144.39 67.47
  Q 142.84 65.13 140.43 64.06
  A 1.09 1.08 41.9 0 0 139.44 64.11
  Q 137.48 65.24 137.99 67.85
  C 138.55 70.68 141.12 78.60 143.99 79.85
  C 146.05 80.75 148.37 79.89 150.09 81.58
  C 151.83 83.29 152.43 86.58 152.63 88.92
  C 152.96 92.55 154.34 96.21 155.45 99.69
  Q 156.38 102.59 156.19 105.05
  C 155.92 108.82 154.24 112.21 154.65 116.18
  Q 155.51 124.54 156.72 133.37
  A 1.54 1.53 86.1 0 0 158.24 134.70
  Q 163.85 134.71 168.94 134.86
  C 171.33 134.93 174.01 135.03 175.87 136.78
  Q 178.12 138.90 180.84 140.23
  Q 188.66 144.07 197.05 147.37
  C 200.55 148.75 204.01 149.11 207.73 149.07
  Q 209.73 149.05 210.31 151.00
  Q 211.55 155.23 207.74 156.84
  Q 201.57 159.44 195.78 164.04
  Q 193.17 166.11 190.11 166.18
  Q 181.14 166.41 171.50 166.17
  C 168.42 166.10 165.79 165.31 163.34 163.47
  C 158.66 159.96 153.84 155.90 147.90 160.18
  Q 142.42 164.13 144.48 169.79
  C 145.51 172.61 150.15 172.70 152.53 172.22
  A 1.76 1.72 -72.1 0 0 153.37 171.78
  L 154.06 171.11
  Q 154.45 170.73 154.82 171.12
  Q 159.13 175.55 163.53 179.92
  C 165.48 181.86 167.56 184.00 167.69 186.95
  Q 167.94 192.63 167.55 197.75
  Q 167.50 198.41 166.93 198.76
  C 163.39 200.96 161.85 199.31 159.00 197.40
  A 0.47 0.46 -70.6 0 0 158.28 197.75
  C 158.02 200.85 159.79 203.03 159.86 206.17
  Q 160.01 212.49 161.22 218.93
  A 0.60 0.60 0.0 0 0 162.20 219.28
  C 164.90 217.04 167.06 213.96 168.41 210.75
  Q 171.35 203.79 176.24 198.08
  Q 176.84 197.37 176.90 198.30"
/>
<path stroke="#808080" vector-effect="non-scaling-stroke" d="
  M 249.49 163.18
  C 252.96 162.40 256.62 161.78 259.45 159.37
  Q 261.14 157.92 263.22 156.97
  C 266.29 155.56 268.76 152.81 270.47 149.99
  A 0.53 0.53 0.0 0 0 270.05 149.19
  C 263.57 148.81 257.38 149.05 250.76 148.00
  Q 244.50 147.00 237.38 147.58
  Q 236.93 147.62 236.71 148.01
  C 235.21 150.69 233.49 153.85 230.04 150.97
  Q 228.73 149.89 228.21 148.42
  Q 228.00 147.84 227.48 148.17
  C 222.43 151.34 228.82 157.97 231.44 160.62
  Q 237.00 166.23 242.28 170.78
  Q 244.95 173.08 248.48 172.33
  C 250.12 171.99 250.73 170.17 251.13 168.76
  Q 251.29 168.20 250.94 167.73
  L 248.84 164.95
  A 1.12 1.12 0.0 0 1 249.49 163.18"
/>
<path stroke="#808080" vector-effect="non-scaling-stroke" d="
  M 249.42 200.17
  C 247.11 193.12 245.04 186.49 238.88 181.98
  Q 237.44 180.92 235.39 181.89
  Q 234.80 182.17 235.11 182.75
  C 236.36 185.04 236.35 187.55 238.11 189.62
  Q 240.53 192.46 241.40 196.43
  A 2.00 1.99 80.1 0 1 239.72 198.83
  C 238.58 198.99 237.48 198.94 236.50 199.65
  C 233.64 201.72 234.87 205.17 238.49 205.16
  Q 241.19 205.14 244.14 204.61
  Q 246.02 204.27 247.35 205.49
  Q 248.18 206.25 247.51 207.15
  C 246.19 208.93 244.34 211.00 242.03 211.38
  Q 237.75 212.09 236.85 217.29
  A 1.52 1.52 0.0 0 0 238.09 219.06
  Q 240.42 219.47 242.52 219.21
  A 1.99 1.99 0.0 0 0 244.25 217.58
  L 244.59 215.61
  Q 244.83 214.24 246.18 214.56
  L 246.65 214.66
  Q 247.86 214.94 247.61 216.16
  C 246.70 220.63 242.60 221.53 239.73 224.39
  Q 239.12 225.00 239.51 225.77
  L 241.42 229.60
  Q 241.84 230.43 242.50 229.77
  L 254.47 217.64
  A 2.47 2.46 -22.2 0 0 255.18 215.96
  L 255.26 211.33
  A 0.99 0.97 -18.4 0 1 255.65 210.57
  C 257.25 209.38 259.23 208.35 260.58 206.88
  Q 263.89 203.26 263.11 196.53
  Q 262.73 193.21 259.76 192.65
  C 257.71 192.27 254.96 192.12 253.67 194.14
  Q 251.93 196.87 250.44 200.22
  A 0.55 0.55 0.0 0 1 249.42 200.17"
/>
</g>
<path fill="#000000" d="
  M 0.00 0.00
  L 400.00 0.00
  L 400.00 400.00
  L 0.00 400.00
  L 0.00 0.00
  Z
  M 176.90 198.30
  Q 177.53 208.12 176.98 217.42
  A 0.38 0.38 0.0 0 0 177.59 217.74
  Q 182.63 213.68 185.69 207.70
  Q 185.95 207.19 185.57 206.77
  C 182.75 203.68 177.63 199.41 177.25 195.41
  C 176.94 192.17 177.45 188.22 175.66 185.19
  A 1.09 1.08 72.8 0 1 176.52 183.55
  L 183.53 183.12
  A 0.30 0.29 -83.7 0 1 183.83 183.50
  Q 183.13 185.81 183.90 187.52
  A 1.23 1.23 0.0 0 0 185.56 188.12
  L 189.62 186.15
  Q 191.69 185.14 190.61 187.17
  C 189.42 189.43 185.54 197.16 189.30 198.78
  Q 192.90 200.33 195.04 196.94
  Q 199.69 189.59 204.35 181.81
  Q 206.10 178.88 206.95 175.91
  A 0.75 0.75 0.0 0 1 208.24 175.64
  Q 209.89 177.62 209.93 180.19
  Q 210.04 188.96 209.68 197.55
  A 2.64 2.63 88.2 0 1 207.33 200.06
  C 203.67 200.44 199.39 200.62 196.11 202.40
  Q 195.50 202.73 195.96 203.25
  C 199.93 207.80 204.20 211.80 210.76 211.66
  Q 216.54 211.54 222.11 211.51
  Q 225.15 211.49 223.26 213.87
  Q 223.16 214.00 221.36 216.29
  Q 219.49 218.64 216.52 219.04
  Q 213.54 219.45 210.57 220.22
  C 208.71 220.70 206.84 220.58 206.29 222.83
  Q 206.16 223.37 205.60 223.36
  Q 201.77 223.32 197.80 224.32
  C 193.93 225.29 192.46 229.88 188.58 230.29
  C 183.97 230.76 179.17 229.52 174.72 228.56
  Q 174.10 228.43 174.00 229.05
  Q 173.05 234.48 175.86 238.89
  Q 176.46 239.83 177.39 239.21
  C 181.24 236.66 184.67 234.84 189.46 234.52
  Q 190.66 234.45 191.78 233.46
  C 193.73 231.75 196.73 231.62 199.23 231.75
  A 1.55 1.54 67.2 0 1 200.16 232.13
  L 202.52 234.16
  Q 202.97 234.55 203.57 234.58
  Q 208.16 234.89 213.12 234.27
  C 216.29 233.88 219.41 234.02 222.58 234.00
  Q 224.44 233.99 223.79 235.73
  Q 223.39 236.81 222.34 237.46
  A 2.59 2.57 -63.7 0 1 221.21 237.85
  Q 212.50 238.78 205.58 241.29
  C 201.21 242.87 196.59 242.52 192.04 242.91
  A 0.81 0.79 -86.0 0 0 191.33 243.54
  Q 190.21 248.56 192.59 252.53
  A 1.82 1.81 -10.5 0 0 193.85 253.39
  C 204.16 255.22 214.96 251.66 222.81 244.95
  Q 224.85 243.20 225.50 245.82
  Q 225.67 246.50 225.66 247.22
  A 6.44 6.44 0.0 0 1 223.25 252.16
  Q 218.41 256.07 212.89 259.72
  C 207.76 263.12 198.66 261.59 193.37 259.41
  Q 188.03 257.21 184.82 250.91
  Q 184.59 250.44 184.92 250.04
  Q 185.94 248.81 186.16 247.20
  A 0.63 0.63 0.0 0 0 185.32 246.53
  Q 183.20 247.29 182.89 249.72
  A 0.59 0.58 21.3 0 1 181.97 250.12
  L 176.54 246.19
  Q 176.08 245.85 175.53 246.01
  Q 169.80 247.65 167.85 252.55
  A 2.06 2.06 0.0 0 0 168.26 254.73
  Q 174.73 261.64 180.49 269.77
  Q 184.50 275.45 191.46 275.51
  Q 198.25 275.57 205.20 275.45
  Q 210.47 275.36 209.89 280.56
  Q 209.65 282.65 207.69 283.74
  Q 201.48 287.19 192.60 289.38
  Q 189.54 290.13 188.09 292.79
  Q 181.55 304.74 173.46 313.54
  Q 163.75 324.10 150.18 330.65
  C 145.37 332.98 140.09 334.31 135.04 336.15
  C 130.53 337.79 126.52 337.94 121.90 337.77
  Q 118.42 337.65 116.36 339.95
  A 1.68 1.68 0.0 0 0 116.50 342.33
  Q 125.54 350.31 130.20 360.70
  A 0.59 0.59 0.0 0 1 129.46 361.49
  Q 124.99 359.81 120.78 357.13
  Q 110.20 350.39 98.77 342.05
  Q 91.55 336.79 86.94 331.44
  Q 77.27 320.23 66.89 306.07
  Q 58.63 294.79 53.46 285.39
  Q 52.43 283.53 50.23 283.44
  Q 46.01 283.28 42.10 283.19
  C 39.64 283.13 37.84 280.61 35.89 279.27
  Q 33.20 277.44 30.97 277.89
  Q 27.94 278.50 28.63 281.51
  A 2.21 2.20 20.8 0 0 29.01 282.35
  Q 40.78 298.86 52.86 312.55
  Q 65.94 327.39 81.67 341.58
  Q 100.44 358.53 122.27 370.26
  Q 136.37 377.83 150.36 381.40
  Q 152.70 381.99 153.33 379.66
  Q 154.30 376.06 152.05 372.53
  C 150.11 369.48 147.96 366.63 146.22 363.46
  Q 140.22 352.53 135.71 343.34
  Q 135.09 342.08 135.09 340.66
  A 0.69 0.69 0.0 0 1 136.12 340.06
  Q 145.87 345.56 148.98 354.69
  Q 150.07 357.90 151.69 360.24
  Q 158.40 369.97 166.25 380.53
  Q 168.60 383.69 171.21 386.37
  C 174.53 389.78 180.81 389.81 185.31 389.50
  Q 185.93 389.46 186.22 388.90
  C 187.48 386.48 188.48 383.94 190.15 381.73
  Q 195.06 375.23 199.79 368.77
  Q 201.73 366.13 203.03 363.51
  C 207.17 355.22 211.25 346.83 213.35 337.43
  C 214.15 333.83 215.91 331.16 219.97 331.39
  C 221.27 331.47 223.12 331.62 223.63 333.08
  C 225.24 337.78 223.12 343.03 220.70 347.19
  Q 211.33 363.34 203.87 376.83
  Q 202.33 379.62 201.20 384.92
  Q 200.92 386.24 199.92 387.12
  Q 199.32 387.64 200.11 387.68
  Q 210.94 388.14 220.08 387.69
  Q 225.81 387.41 236.10 386.23
  C 265.05 382.94 292.88 373.59 318.04 358.84
  Q 348.09 341.22 370.97 314.95
  Q 372.78 312.88 372.60 310.22
  Q 371.70 296.92 363.55 287.28
  C 359.83 282.88 354.38 279.13 349.45 275.99
  Q 339.11 269.41 328.50 263.92
  Q 326.24 262.74 323.83 263.62
  A 1.27 1.26 -26.0 0 0 323.18 265.47
  L 329.50 275.76
  A 1.98 1.98 0.0 0 1 329.59 277.65
  Q 327.21 282.57 324.51 286.52
  Q 323.51 287.96 321.56 287.99
  Q 312.18 288.13 304.10 287.64
  C 299.87 287.38 295.60 287.64 291.39 287.84
  A 2.65 2.65 0.0 0 0 289.15 289.28
  C 286.49 294.44 280.14 300.74 273.93 297.20
  Q 271.28 295.70 271.02 292.38
  Q 270.98 291.92 271.19 291.50
  L 272.14 289.67
  Q 272.48 289.00 271.95 288.47
  C 269.67 286.16 264.14 281.69 264.59 278.18
  A 1.36 1.36 0.0 0 1 266.90 277.38
  Q 270.12 280.58 272.82 284.27
  Q 275.31 287.67 279.59 286.60
  A 1.67 1.66 9.4 0 0 280.55 285.92
  C 282.24 283.42 283.65 281.17 286.80 280.31
  C 291.17 279.12 296.03 278.11 299.89 275.70
  Q 300.58 275.27 301.19 275.81
  L 305.05 279.20
  Q 305.74 279.81 306.65 279.90
  Q 313.04 280.60 317.90 280.16
  Q 324.16 279.61 321.42 274.01
  C 319.15 269.39 316.12 264.25 311.47 261.50
  Q 305.19 257.79 298.85 254.28
  C 291.92 250.43 287.15 245.92 282.30 240.08
  C 278.02 234.92 273.10 231.78 266.58 230.32
  A 1.42 1.41 -65.1 0 0 265.14 230.85
  Q 263.40 233.15 261.50 235.51
  C 260.05 237.33 259.51 239.36 258.71 241.48
  Q 258.55 241.90 258.85 242.24
  Q 259.88 243.40 261.17 244.36
  C 263.81 246.33 263.27 252.09 263.39 254.96
  A 1.63 1.61 -66.6 0 0 263.78 255.96
  C 265.69 258.17 269.00 260.83 267.04 264.04
  Q 262.74 271.04 258.55 277.93
  C 257.60 279.49 256.37 280.75 254.82 281.72
  Q 248.57 285.60 243.74 289.41
  C 238.82 293.28 238.19 299.08 237.66 304.89
  C 237.43 307.55 233.49 309.92 231.49 311.44
  A 7.17 7.16 82.2 0 0 229.13 314.55
  Q 227.84 317.81 226.25 321.12
  Q 224.91 323.92 222.00 323.82
  C 214.47 323.58 208.30 324.31 201.04 327.24
  C 197.94 328.49 192.14 329.73 189.27 327.36
  Q 187.03 325.51 188.39 322.91
  C 189.48 320.83 192.76 320.59 194.80 320.92
  Q 196.97 321.27 198.68 319.94
  C 202.66 316.86 207.83 316.30 212.67 316.06
  C 217.39 315.83 220.81 314.53 223.79 310.79
  Q 230.90 301.83 232.70 295.16
  A 2.09 2.03 -11.9 0 1 233.44 294.06
  Q 237.18 291.19 239.51 287.34
  C 242.29 282.73 246.01 279.38 249.35 275.43
  Q 252.50 271.72 255.71 266.06
  C 258.18 261.71 259.63 259.30 256.92 254.52
  Q 254.25 249.78 251.31 244.97
  Q 250.45 243.56 251.49 241.78
  C 255.60 234.78 260.79 230.08 266.22 224.49
  Q 267.42 223.25 267.48 221.46
  Q 267.61 217.64 269.70 215.12
  C 272.19 212.13 274.13 206.19 274.73 203.01
  Q 276.35 194.34 278.11 186.52
  Q 279.27 181.35 283.08 175.07
  Q 285.76 170.65 289.84 168.99
  Q 290.32 168.80 290.49 168.31
  Q 291.20 166.26 291.50 164.24
  Q 292.50 157.38 293.06 151.15
  Q 293.84 142.52 292.23 130.98
  Q 292.16 130.51 291.80 130.20
  Q 289.89 128.56 287.06 128.49
  A 0.67 0.66 3.2 0 1 286.41 127.77
  Q 286.97 119.92 286.68 113.36
  C 286.08 99.73 287.64 85.84 283.94 72.56
  C 283.36 70.49 282.20 68.31 281.02 66.52
  Q 276.56 59.74 273.23 53.88
  Q 272.98 53.44 272.48 53.36
  Q 266.95 52.45 263.62 55.30
  Q 259.46 58.87 255.22 64.03
  C 254.22 65.24 253.39 66.95 253.97 68.54
  Q 255.10 71.63 255.30 74.78
  A 0.64 0.64 0.0 0 1 254.31 75.35
  C 252.46 74.14 251.04 70.61 250.11 68.63
  Q 249.27 66.84 249.74 64.55
  Q 250.77 59.55 252.87 56.19
  C 257.13 49.40 263.79 41.67 264.17 33.27
  Q 264.20 32.66 263.72 32.28
  Q 251.07 22.34 235.64 16.08
  Q 226.14 12.22 215.73 11.45
  Q 189.37 9.51 166.47 22.64
  C 160.91 25.83 149.53 33.64 148.93 39.63
  Q 148.82 40.64 149.75 40.21
  C 155.72 37.47 162.45 33.43 169.08 33.93
  Q 180.81 34.81 193.56 34.96
  C 196.36 34.99 197.40 36.80 198.88 38.70
  A 0.39 0.39 0.0 0 1 198.73 39.30
  C 196.45 40.32 194.40 40.98 191.85 40.98
  Q 182.20 40.97 172.76 41.37
  Q 164.51 41.72 159.79 44.49
  C 155.13 47.22 149.37 51.17 145.80 55.56
  A 1.11 1.10 -44.3 0 0 145.78 56.95
  C 148.91 60.93 152.28 65.00 154.86 69.40
  C 156.92 72.92 156.16 77.17 158.25 80.50
  C 159.62 82.70 161.07 84.43 160.96 87.24
  Q 160.84 90.45 168.31 97.31
  Q 169.26 98.18 168.23 98.97
  L 166.85 100.01
  Q 165.79 100.81 164.84 99.87
  Q 159.80 94.89 157.73 89.81
  Q 155.52 84.39 153.75 78.71
  Q 153.02 76.35 151.06 74.79
  Q 147.25 71.77 144.39 67.47
  Q 142.84 65.13 140.43 64.06
  A 1.09 1.08 41.9 0 0 139.44 64.11
  Q 137.48 65.24 137.99 67.85
  C 138.55 70.68 141.12 78.60 143.99 79.85
  C 146.05 80.75 148.37 79.89 150.09 81.58
  C 151.83 83.29 152.43 86.58 152.63 88.92
  C 152.96 92.55 154.34 96.21 155.45 99.69
  Q 156.38 102.59 156.19 105.05
  C 155.92 108.82 154.24 112.21 154.65 116.18
  Q 155.51 124.54 156.72 133.37
  A 1.54 1.53 86.1 0 0 158.24 134.70
  Q 163.85 134.71 168.94 134.86
  C 171.33 134.93 174.01 135.03 175.87 136.78
  Q 178.12 138.90 180.84 140.23
  Q 188.66 144.07 197.05 147.37
  C 200.55 148.75 204.01 149.11 207.73 149.07
  Q 209.73 149.05 210.31 151.00
  Q 211.55 155.23 207.74 156.84
  Q 201.57 159.44 195.78 164.04
  Q 193.17 166.11 190.11 166.18
  Q 181.14 166.41 171.50 166.17
  C 168.42 166.10 165.79 165.31 163.34 163.47
  C 158.66 159.96 153.84 155.90 147.90 160.18
  Q 142.42 164.13 144.48 169.79
  C 145.51 172.61 150.15 172.70 152.53 172.22
  A 1.76 1.72 -72.1 0 0 153.37 171.78
  L 154.06 171.11
  Q 154.45 170.73 154.82 171.12
  Q 159.13 175.55 163.53 179.92
  C 165.48 181.86 167.56 184.00 167.69 186.95
  Q 167.94 192.63 167.55 197.75
  Q 167.50 198.41 166.93 198.76
  C 163.39 200.96 161.85 199.31 159.00 197.40
  A 0.47 0.46 -70.6 0 0 158.28 197.75
  C 158.02 200.85 159.79 203.03 159.86 206.17
  Q 160.01 212.49 161.22 218.93
  A 0.60 0.60 0.0 0 0 162.20 219.28
  C 164.90 217.04 167.06 213.96 168.41 210.75
  Q 171.35 203.79 176.24 198.08
  Q 176.84 197.37 176.90 198.30
  Z"
/>
<path fill="#ffffff" d="
  M 176.90 198.30
  Q 176.84 197.37 176.24 198.08
  Q 171.35 203.79 168.41 210.75
  C 167.06 213.96 164.90 217.04 162.20 219.28
  A 0.60 0.60 0.0 0 1 161.22 218.93
  Q 160.01 212.49 159.86 206.17
  C 159.79 203.03 158.02 200.85 158.28 197.75
  A 0.47 0.46 -70.6 0 1 159.00 197.40
  C 161.85 199.31 163.39 200.96 166.93 198.76
  Q 167.50 198.41 167.55 197.75
  Q 167.94 192.63 167.69 186.95
  C 167.56 184.00 165.48 181.86 163.53 179.92
  Q 159.13 175.55 154.82 171.12
  Q 154.45 170.73 154.06 171.11
  L 153.37 171.78
  A 1.76 1.72 -72.1 0 1 152.53 172.22
  C 150.15 172.70 145.51 172.61 144.48 169.79
  Q 142.42 164.13 147.90 160.18
  C 153.84 155.90 158.66 159.96 163.34 163.47
  C 165.79 165.31 168.42 166.10 171.50 166.17
  Q 181.14 166.41 190.11 166.18
  Q 193.17 166.11 195.78 164.04
  Q 201.57 159.44 207.74 156.84
  Q 211.55 155.23 210.31 151.00
  Q 209.73 149.05 207.73 149.07
  C 204.01 149.11 200.55 148.75 197.05 147.37
  Q 188.66 144.07 180.84 140.23
  Q 178.12 138.90 175.87 136.78
  C 174.01 135.03 171.33 134.93 168.94 134.86
  Q 163.85 134.71 158.24 134.70
  A 1.54 1.53 86.1 0 1 156.72 133.37
  Q 155.51 124.54 154.65 116.18
  C 154.24 112.21 155.92 108.82 156.19 105.05
  Q 156.38 102.59 155.45 99.69
  C 154.34 96.21 152.96 92.55 152.63 88.92
  C 152.43 86.58 151.83 83.29 150.09 81.58
  C 148.37 79.89 146.05 80.75 143.99 79.85
  C 141.12 78.60 138.55 70.68 137.99 67.85
  Q 137.48 65.24 139.44 64.11
  A 1.09 1.08 41.9 0 1 140.43 64.06
  Q 142.84 65.13 144.39 67.47
  Q 147.25 71.77 151.06 74.79
  Q 153.02 76.35 153.75 78.71
  Q 155.52 84.39 157.73 89.81
  Q 159.80 94.89 164.84 99.87
  Q 165.79 100.81 166.85 100.01
  L 168.23 98.97
  Q 169.26 98.18 168.31 97.31
  Q 160.84 90.45 160.96 87.24
  C 161.07 84.43 159.62 82.70 158.25 80.50
  C 156.16 77.17 156.92 72.92 154.86 69.40
  C 152.28 65.00 148.91 60.93 145.78 56.95
  A 1.11 1.10 -44.3 0 1 145.80 55.56
  C 149.37 51.17 155.13 47.22 159.79 44.49
  Q 164.51 41.72 172.76 41.37
  Q 182.20 40.97 191.85 40.98
  C 194.40 40.98 196.45 40.32 198.73 39.30
  A 0.39 0.39 0.0 0 0 198.88 38.70
  C 197.40 36.80 196.36 34.99 193.56 34.96
  Q 180.81 34.81 169.08 33.93
  C 162.45 33.43 155.72 37.47 149.75 40.21
  Q 148.82 40.64 148.93 39.63
  C 149.53 33.64 160.91 25.83 166.47 22.64
  Q 189.37 9.51 215.73 11.45
  Q 226.14 12.22 235.64 16.08
  Q 251.07 22.34 263.72 32.28
  Q 264.20 32.66 264.17 33.27
  C 263.79 41.67 257.13 49.40 252.87 56.19
  Q 250.77 59.55 249.74 64.55
  Q 249.27 66.84 250.11 68.63
  C 251.04 70.61 252.46 74.14 254.31 75.35
  A 0.64 0.64 0.0 0 0 255.30 74.78
  Q 255.10 71.63 253.97 68.54
  C 253.39 66.95 254.22 65.24 255.22 64.03
  Q 259.46 58.87 263.62 55.30
  Q 266.95 52.45 272.48 53.36
  Q 272.98 53.44 273.23 53.88
  Q 276.56 59.74 281.02 66.52
  C 282.20 68.31 283.36 70.49 283.94 72.56
  C 287.64 85.84 286.08 99.73 286.68 113.36
  Q 286.97 119.92 286.41 127.77
  A 0.67 0.66 3.2 0 0 287.06 128.49
  Q 289.89 128.56 291.80 130.20
  Q 292.16 130.51 292.23 130.98
  Q 293.84 142.52 293.06 151.15
  Q 292.50 157.38 291.50 164.24
  Q 291.20 166.26 290.49 168.31
  Q 290.32 168.80 289.84 168.99
  Q 285.76 170.65 283.08 175.07
  Q 279.27 181.35 278.11 186.52
  Q 276.35 194.34 274.73 203.01
  C 274.13 206.19 272.19 212.13 269.70 215.12
  Q 267.61 217.64 267.48 221.46
  Q 267.42 223.25 266.22 224.49
  C 260.79 230.08 255.60 234.78 251.49 241.78
  Q 250.45 243.56 251.31 244.97
  Q 254.25 249.78 256.92 254.52
  C 259.63 259.30 258.18 261.71 255.71 266.06
  Q 252.50 271.72 249.35 275.43
  C 246.01 279.38 242.29 282.73 239.51 287.34
  Q 237.18 291.19 233.44 294.06
  A 2.09 2.03 -11.9 0 0 232.70 295.16
  Q 230.90 301.83 223.79 310.79
  C 220.81 314.53 217.39 315.83 212.67 316.06
  C 207.83 316.30 202.66 316.86 198.68 319.94
  Q 196.97 321.27 194.80 320.92
  C 192.76 320.59 189.48 320.83 188.39 322.91
  Q 187.03 325.51 189.27 327.36
  C 192.14 329.73 197.94 328.49 201.04 327.24
  C 208.30 324.31 214.47 323.58 222.00 323.82
  Q 224.91 323.92 226.25 321.12
  Q 227.84 317.81 229.13 314.55
  A 7.17 7.16 82.2 0 1 231.49 311.44
  C 233.49 309.92 237.43 307.55 237.66 304.89
  C 238.19 299.08 238.82 293.28 243.74 289.41
  Q 248.57 285.60 254.82 281.72
  C 256.37 280.75 257.60 279.49 258.55 277.93
  Q 262.74 271.04 267.04 264.04
  C 269.00 260.83 265.69 258.17 263.78 255.96
  A 1.63 1.61 -66.6 0 1 263.39 254.96
  C 263.27 252.09 263.81 246.33 261.17 244.36
  Q 259.88 243.40 258.85 242.24
  Q 258.55 241.90 258.71 241.48
  C 259.51 239.36 260.05 237.33 261.50 235.51
  Q 263.40 233.15 265.14 230.85
  A 1.42 1.41 -65.1 0 1 266.58 230.32
  C 273.10 231.78 278.02 234.92 282.30 240.08
  C 287.15 245.92 291.92 250.43 298.85 254.28
  Q 305.19 257.79 311.47 261.50
  C 316.12 264.25 319.15 269.39 321.42 274.01
  Q 324.16 279.61 317.90 280.16
  Q 313.04 280.60 306.65 279.90
  Q 305.74 279.81 305.05 279.20
  L 301.19 275.81
  Q 300.58 275.27 299.89 275.70
  C 296.03 278.11 291.17 279.12 286.80 280.31
  C 283.65 281.17 282.24 283.42 280.55 285.92
  A 1.67 1.66 9.4 0 1 279.59 286.60
  Q 275.31 287.67 272.82 284.27
  Q 270.12 280.58 266.90 277.38
  A 1.36 1.36 0.0 0 0 264.59 278.18
  C 264.14 281.69 269.67 286.16 271.95 288.47
  Q 272.48 289.00 272.14 289.67
  L 271.19 291.50
  Q 270.98 291.92 271.02 292.38
  Q 271.28 295.70 273.93 297.20
  C 280.14 300.74 286.49 294.44 289.15 289.28
  A 2.65 2.65 0.0 0 1 291.39 287.84
  C 295.60 287.64 299.87 287.38 304.10 287.64
  Q 312.18 288.13 321.56 287.99
  Q 323.51 287.96 324.51 286.52
  Q 327.21 282.57 329.59 277.65
  A 1.98 1.98 0.0 0 0 329.50 275.76
  L 323.18 265.47
  A 1.27 1.26 -26.0 0 1 323.83 263.62
  Q 326.24 262.74 328.50 263.92
  Q 339.11 269.41 349.45 275.99
  C 354.38 279.13 359.83 282.88 363.55 287.28
  Q 371.70 296.92 372.60 310.22
  Q 372.78 312.88 370.97 314.95
  Q 348.09 341.22 318.04 358.84
  C 292.88 373.59 265.05 382.94 236.10 386.23
  Q 225.81 387.41 220.08 387.69
  Q 210.94 388.14 200.11 387.68
  Q 199.32 387.64 199.92 387.12
  Q 200.92 386.24 201.20 384.92
  Q 202.33 379.62 203.87 376.83
  Q 211.33 363.34 220.70 347.19
  C 223.12 343.03 225.24 337.78 223.63 333.08
  C 223.12 331.62 221.27 331.47 219.97 331.39
  C 215.91 331.16 214.15 333.83 213.35 337.43
  C 211.25 346.83 207.17 355.22 203.03 363.51
  Q 201.73 366.13 199.79 368.77
  Q 195.06 375.23 190.15 381.73
  C 188.48 383.94 187.48 386.48 186.22 388.90
  Q 185.93 389.46 185.31 389.50
  C 180.81 389.81 174.53 389.78 171.21 386.37
  Q 168.60 383.69 166.25 380.53
  Q 158.40 369.97 151.69 360.24
  Q 150.07 357.90 148.98 354.69
  Q 145.87 345.56 136.12 340.06
  A 0.69 0.69 0.0 0 0 135.09 340.66
  Q 135.09 342.08 135.71 343.34
  Q 140.22 352.53 146.22 363.46
  C 147.96 366.63 150.11 369.48 152.05 372.53
  Q 154.30 376.06 153.33 379.66
  Q 152.70 381.99 150.36 381.40
  Q 136.37 377.83 122.27 370.26
  Q 100.44 358.53 81.67 341.58
  Q 65.94 327.39 52.86 312.55
  Q 40.78 298.86 29.01 282.35
  A 2.21 2.20 20.8 0 1 28.63 281.51
  Q 27.94 278.50 30.97 277.89
  Q 33.20 277.44 35.89 279.27
  C 37.84 280.61 39.64 283.13 42.10 283.19
  Q 46.01 283.28 50.23 283.44
  Q 52.43 283.53 53.46 285.39
  Q 58.63 294.79 66.89 306.07
  Q 77.27 320.23 86.94 331.44
  Q 91.55 336.79 98.77 342.05
  Q 110.20 350.39 120.78 357.13
  Q 124.99 359.81 129.46 361.49
  A 0.59 0.59 0.0 0 0 130.20 360.70
  Q 125.54 350.31 116.50 342.33
  A 1.68 1.68 0.0 0 1 116.36 339.95
  Q 118.42 337.65 121.90 337.77
  C 126.52 337.94 130.53 337.79 135.04 336.15
  C 140.09 334.31 145.37 332.98 150.18 330.65
  Q 163.75 324.10 173.46 313.54
  Q 181.55 304.74 188.09 292.79
  Q 189.54 290.13 192.60 289.38
  Q 201.48 287.19 207.69 283.74
  Q 209.65 282.65 209.89 280.56
  Q 210.47 275.36 205.20 275.45
  Q 198.25 275.57 191.46 275.51
  Q 184.50 275.45 180.49 269.77
  Q 174.73 261.64 168.26 254.73
  A 2.06 2.06 0.0 0 1 167.85 252.55
  Q 169.80 247.65 175.53 246.01
  Q 176.08 245.85 176.54 246.19
  L 181.97 250.12
  A 0.59 0.58 21.3 0 0 182.89 249.72
  Q 183.20 247.29 185.32 246.53
  A 0.63 0.63 0.0 0 1 186.16 247.20
  Q 185.94 248.81 184.92 250.04
  Q 184.59 250.44 184.82 250.91
  Q 188.03 257.21 193.37 259.41
  C 198.66 261.59 207.76 263.12 212.89 259.72
  Q 218.41 256.07 223.25 252.16
  A 6.44 6.44 0.0 0 0 225.66 247.22
  Q 225.67 246.50 225.50 245.82
  Q 224.85 243.20 222.81 244.95
  C 214.96 251.66 204.16 255.22 193.85 253.39
  A 1.82 1.81 -10.5 0 1 192.59 252.53
  Q 190.21 248.56 191.33 243.54
  A 0.81 0.79 -86.0 0 1 192.04 242.91
  C 196.59 242.52 201.21 242.87 205.58 241.29
  Q 212.50 238.78 221.21 237.85
  A 2.59 2.57 -63.7 0 0 222.34 237.46
  Q 223.39 236.81 223.79 235.73
  Q 224.44 233.99 222.58 234.00
  C 219.41 234.02 216.29 233.88 213.12 234.27
  Q 208.16 234.89 203.57 234.58
  Q 202.97 234.55 202.52 234.16
  L 200.16 232.13
  A 1.55 1.54 67.2 0 0 199.23 231.75
  C 196.73 231.62 193.73 231.75 191.78 233.46
  Q 190.66 234.45 189.46 234.52
  C 184.67 234.84 181.24 236.66 177.39 239.21
  Q 176.46 239.83 175.86 238.89
  Q 173.05 234.48 174.00 229.05
  Q 174.10 228.43 174.72 228.56
  C 179.17 229.52 183.97 230.76 188.58 230.29
  C 192.46 229.88 193.93 225.29 197.80 224.32
  Q 201.77 223.32 205.60 223.36
  Q 206.16 223.37 206.29 222.83
  C 206.84 220.58 208.71 220.70 210.57 220.22
  Q 213.54 219.45 216.52 219.04
  Q 219.49 218.64 221.36 216.29
  Q 223.16 214.00 223.26 213.87
  Q 225.15 211.49 222.11 211.51
  Q 216.54 211.54 210.76 211.66
  C 204.20 211.80 199.93 207.80 195.96 203.25
  Q 195.50 202.73 196.11 202.40
  C 199.39 200.62 203.67 200.44 207.33 200.06
  A 2.64 2.63 88.2 0 0 209.68 197.55
  Q 210.04 188.96 209.93 180.19
  Q 209.89 177.62 208.24 175.64
  A 0.75 0.75 0.0 0 0 206.95 175.91
  Q 206.10 178.88 204.35 181.81
  Q 199.69 189.59 195.04 196.94
  Q 192.90 200.33 189.30 198.78
  C 185.54 197.16 189.42 189.43 190.61 187.17
  Q 191.69 185.14 189.62 186.15
  L 185.56 188.12
  A 1.23 1.23 0.0 0 1 183.90 187.52
  Q 183.13 185.81 183.83 183.50
  A 0.30 0.29 -83.7 0 0 183.53 183.12
  L 176.52 183.55
  A 1.09 1.08 72.8 0 0 175.66 185.19
  C 177.45 188.22 176.94 192.17 177.25 195.41
  C 177.63 199.41 182.75 203.68 185.57 206.77
  Q 185.95 207.19 185.69 207.70
  Q 182.63 213.68 177.59 217.74
  A 0.38 0.38 0.0 0 1 176.98 217.42
  Q 177.53 208.12 176.90 198.30
  Z
  M 249.49 163.18
  C 252.96 162.40 256.62 161.78 259.45 159.37
  Q 261.14 157.92 263.22 156.97
  C 266.29 155.56 268.76 152.81 270.47 149.99
  A 0.53 0.53 0.0 0 0 270.05 149.19
  C 263.57 148.81 257.38 149.05 250.76 148.00
  Q 244.50 147.00 237.38 147.58
  Q 236.93 147.62 236.71 148.01
  C 235.21 150.69 233.49 153.85 230.04 150.97
  Q 228.73 149.89 228.21 148.42
  Q 228.00 147.84 227.48 148.17
  C 222.43 151.34 228.82 157.97 231.44 160.62
  Q 237.00 166.23 242.28 170.78
  Q 244.95 173.08 248.48 172.33
  C 250.12 171.99 250.73 170.17 251.13 168.76
  Q 251.29 168.20 250.94 167.73
  L 248.84 164.95
  A 1.12 1.12 0.0 0 1 249.49 163.18
  Z
  M 249.42 200.17
  C 247.11 193.12 245.04 186.49 238.88 181.98
  Q 237.44 180.92 235.39 181.89
  Q 234.80 182.17 235.11 182.75
  C 236.36 185.04 236.35 187.55 238.11 189.62
  Q 240.53 192.46 241.40 196.43
  A 2.00 1.99 80.1 0 1 239.72 198.83
  C 238.58 198.99 237.48 198.94 236.50 199.65
  C 233.64 201.72 234.87 205.17 238.49 205.16
  Q 241.19 205.14 244.14 204.61
  Q 246.02 204.27 247.35 205.49
  Q 248.18 206.25 247.51 207.15
  C 246.19 208.93 244.34 211.00 242.03 211.38
  Q 237.75 212.09 236.85 217.29
  A 1.52 1.52 0.0 0 0 238.09 219.06
  Q 240.42 219.47 242.52 219.21
  A 1.99 1.99 0.0 0 0 244.25 217.58
  L 244.59 215.61
  Q 244.83 214.24 246.18 214.56
  L 246.65 214.66
  Q 247.86 214.94 247.61 216.16
  C 246.70 220.63 242.60 221.53 239.73 224.39
  Q 239.12 225.00 239.51 225.77
  L 241.42 229.60
  Q 241.84 230.43 242.50 229.77
  L 254.47 217.64
  A 2.47 2.46 -22.2 0 0 255.18 215.96
  L 255.26 211.33
  A 0.99 0.97 -18.4 0 1 255.65 210.57
  C 257.25 209.38 259.23 208.35 260.58 206.88
  Q 263.89 203.26 263.11 196.53
  Q 262.73 193.21 259.76 192.65
  C 257.71 192.27 254.96 192.12 253.67 194.14
  Q 251.93 196.87 250.44 200.22
  A 0.55 0.55 0.0 0 1 249.42 200.17
  Z"
/>
<path fill="#000000" d="
  M 249.49 163.18
  A 1.12 1.12 0.0 0 0 248.84 164.95
  L 250.94 167.73
  Q 251.29 168.20 251.13 168.76
  C 250.73 170.17 250.12 171.99 248.48 172.33
  Q 244.95 173.08 242.28 170.78
  Q 237.00 166.23 231.44 160.62
  C 228.82 157.97 222.43 151.34 227.48 148.17
  Q 228.00 147.84 228.21 148.42
  Q 228.73 149.89 230.04 150.97
  C 233.49 153.85 235.21 150.69 236.71 148.01
  Q 236.93 147.62 237.38 147.58
  Q 244.50 147.00 250.76 148.00
  C 257.38 149.05 263.57 148.81 270.05 149.19
  A 0.53 0.53 0.0 0 1 270.47 149.99
  C 268.76 152.81 266.29 155.56 263.22 156.97
  Q 261.14 157.92 259.45 159.37
  C 256.62 161.78 252.96 162.40 249.49 163.18
  Z"
/>
<path fill="#000000" d="
  M 249.42 200.17
  A 0.55 0.55 0.0 0 0 250.44 200.22
  Q 251.93 196.87 253.67 194.14
  C 254.96 192.12 257.71 192.27 259.76 192.65
  Q 262.73 193.21 263.11 196.53
  Q 263.89 203.26 260.58 206.88
  C 259.23 208.35 257.25 209.38 255.65 210.57
  A 0.99 0.97 -18.4 0 0 255.26 211.33
  L 255.18 215.96
  A 2.47 2.46 -22.2 0 1 254.47 217.64
  L 242.50 229.77
  Q 241.84 230.43 241.42 229.60
  L 239.51 225.77
  Q 239.12 225.00 239.73 224.39
  C 242.60 221.53 246.70 220.63 247.61 216.16
  Q 247.86 214.94 246.65 214.66
  L 246.18 214.56
  Q 244.83 214.24 244.59 215.61
  L 244.25 217.58
  A 1.99 1.99 0.0 0 1 242.52 219.21
  Q 240.42 219.47 238.09 219.06
  A 1.52 1.52 0.0 0 1 236.85 217.29
  Q 237.75 212.09 242.03 211.38
  C 244.34 211.00 246.19 208.93 247.51 207.15
  Q 248.18 206.25 247.35 205.49
  Q 246.02 204.27 244.14 204.61
  Q 241.19 205.14 238.49 205.16
  C 234.87 205.17 233.64 201.72 236.50 199.65
  C 237.48 198.94 238.58 198.99 239.72 198.83
  A 2.00 1.99 80.1 0 0 241.40 196.43
  Q 240.53 192.46 238.11 189.62
  C 236.35 187.55 236.36 185.04 235.11 182.75
  Q 234.80 182.17 235.39 181.89
  Q 237.44 180.92 238.88 181.98
  C 245.04 186.49 247.11 193.12 249.42 200.17
  Z"
/>
</svg>
