<svg xmlns="http://www.w3.org/2000/svg" style="height:fit-content" viewBox="0 0 400 400">
    <path fill="#fff" d="M 197.24 11.53c-.747.071-1.74.379-2.206.685-.466.305-2.081.644-3.59.752-1.523.11-3.032.45-3.393.765-.358.311-1.513.658-2.567.77-1.054.112-2.238.495-2.632.851-.393.356-1.348.647-2.122.647-.898 0-1.667.289-2.13.8-.398.44-1.101.801-1.562.801-.461.001-1.427.361-2.148.8-.72.44-1.641.799-2.046.799-.405 0-1.194.36-1.753.8-.56.44-1.173.8-1.363.8-.19 0-1.421.715-2.737 1.589-1.315.873-2.687 1.593-3.048 1.6-.362.006-.752.258-.868.559-.116.302-1.107 1.067-2.204 1.7-2.095 1.21-7.623 6.287-10.171 9.34-3.005 3.601-1.16 5.88 2.584 3.19.596-.428 1.423-.778 1.838-.778.415 0 1.08-.36 1.478-.8.398-.44 1.118-.8 1.6-.8s1.202-.36 1.6-.8c.431-.476 1.232-.8 1.977-.8.69 0 1.967-.368 2.838-.819 1.759-.908 4.891-.802 7.926.269 1.173.414 4.184.55 12.145.55h10.585l1.791 1.843c1.694 1.743 2.041 2.957.845 2.957-.286 0-1.191.36-2.011.8-1.403.751-2.257.8-14.085.8-11.88 0-12.666.045-13.901.799-.896.546-2.018.798-3.548.8-1.729.001-2.403.183-2.962.801-.398.44-.973.8-1.278.8-.578 0-2.54 1.293-3.794 2.5-.401.385-.934.7-1.187.7-.425 0-2.052 1.252-4.903 3.773-.639.565-1.29 1.027-1.447 1.027-.44 0-3.191 3.666-3.191 4.252 0 .287.815 1.439 1.812 2.561.996 1.122 2.234 2.709 2.75 3.527.516.818 1.861 2.496 2.988 3.73 1.462 1.599 2.051 2.57 2.053 3.386.001.629.36 1.684.797 2.344.613.926.796 1.885.802 4.2l.008 3 1.931 2c2.746 2.843 3.012 3.459 2.268 5.24-.925 2.213-.897 2.268 3.491 6.797 2.255 2.328 4.147 4.442 4.205 4.698.143.637-3.002 2.376-3.615 1.998-.963-.595-3.705-3.824-4.515-5.319-.454-.836-1.129-1.825-1.5-2.196-.371-.371-.675-.994-.675-1.385 0-.39-.36-1.035-.8-1.433-.484-.438-.8-1.232-.8-2.008 0-.706-.36-1.742-.8-2.301-.44-.56-.801-1.619-.803-2.354-.001-.735-.36-1.877-.797-2.537-.437-.66-.796-1.668-.797-2.24-.004-1.372-2.185-4.36-3.182-4.36-.426 0-.89-.187-1.031-.416-.141-.229-.946-.851-1.788-1.383-1.014-.64-1.619-1.368-1.792-2.156-.144-.654-.52-1.404-.836-1.666-.316-.262-.574-.701-.574-.974 0-1.884-3.44-3.571-5.431-2.664-1.321.602-1.432 4.744-.169 6.35.44.559.801 1.308.803 1.663.001.355.36 1.186.797 1.846.437.66.796 1.503.797 1.872.009 2.104 1.701 3.493 4.277 3.511 3.074.021 4.431.516 4.917 1.794.207.545.74 1.354 1.183 1.797 1.146 1.146 1.409 2.629.875 4.942-.413 1.787-.374 2.182.343 3.559.445.852.809 1.949.811 2.437.001.489.36 1.428.797 2.088.437.66.796 1.712.797 2.337.002.625.363 1.594.803 2.154 1.072 1.363 1.072 4.29 0 5.909-.5.754-.796 1.877-.797 3.024-.002 1.002-.267 2.172-.59 2.6-.757 1-.76 2.126-.013 3.914.384.919.6 2.745.6 5.069 0 2.698.179 3.962.697 4.913.439.805.773 2.543.9 4.68l.203 3.4 8.872.108 8.873.107 1.227 1.55c.676.853 1.228 1.758 1.228 2.013 0 .255.656.737 1.458 1.072.802.335 1.715.866 2.029 1.18.314.313 1.052.574 1.642.579.589.005 1.521.361 2.071.791.55.43 1.501.786 2.113.791.611.005 1.214.274 1.338.598.125.324.832.703 1.573.842s1.552.499 1.802.8c.25.301 1.111.665 1.914.809.803.144 1.73.488 2.06.766.33.278 1.173.627 1.872.775.7.149 1.487.529 1.749.845.364.438 1.565.574 5.054.574 4.825 0 6.125.339 6.125 1.595 0 .422.211 1.231.469 1.797.359.788.359 1.14 0 1.499-.258.258-.469.847-.469 1.309 0 1.118-.739 1.8-1.949 1.8-.543 0-1.295.278-1.67.617-.375.34-1.372.729-2.216.866-1.017.165-2.071.765-3.13 1.783-.878.844-1.747 1.534-1.932 1.534-.486 0-2.624 1.595-4.154 3.1l-1.322 1.3h-26.82l-1.904-1.392c-1.046-.766-2.823-2.116-3.948-3-1.125-.884-2.408-1.608-2.851-1.608-.444 0-1.065-.389-1.381-.865-.699-1.054-5.619-1.134-6.75-.111-.35.317-.847.576-1.105.576s-1.458 1.014-2.668 2.253l-2.2 2.253v2.658c0 3.037.498 4.012 2.547 4.984 1.971.935 5.658.864 6.927-.134l.999-.787 4.805 4.887c2.642 2.687 5.596 5.805 6.563 6.929l1.759 2.043v13.949l-2.16.666c-2.207.679-5.44-.099-5.44-1.31 0-.616-1.49-.456-1.736.186-.377.983.197 3.355.986 4.068.655.593.75 1.293.75 5.508 0 5.135.938 10.861 1.835 11.205.967.371 4.002-3.275 6.03-7.243 1.1-2.153 2.196-4.275 2.435-4.715.24-.44.829-1.607 1.31-2.593.481-.986 1.26-2.16 1.732-2.608.472-.449 1.334-1.442 1.916-2.207 1.597-2.101 1.735-1.472 1.83 8.341.049 4.987.094 9.202.1 9.367.055 1.411 5.159-3.862 7.284-7.526l1.52-2.619-3.596-3.716c-2.087-2.157-3.596-4.053-3.596-4.516 0-.44-.36-1.125-.8-1.523-.709-.642-.8-1.232-.8-5.208 0-3.949-.1-4.611-.84-5.552-1.903-2.419-.25-3.618 4.64-3.364l2.4.124.128 1.792c.206 2.897 1.972 3.746 4.181 2.008 1.843-1.45 4.265-.672 2.491.8-.33.274-.6.898-.6 1.387s-.367 1.221-.814 1.626c-.719.65-.801 1.141-.7 4.162l.114 3.425 2.576.317c2.808.346 3.35-.005 5.211-3.375 1.521-2.755 3.41-5.777 3.839-6.142.258-.22.886-1.257 1.395-2.304s1.252-2.2 1.652-2.562c.4-.362.727-.962.727-1.334 0-.372.36-1.002.8-1.4.44-.398.8-1.118.8-1.6s.36-1.202.8-1.6c.44-.398.8-1.135.8-1.638 0-1.502.839-1.591 2.065-.22l1.135 1.271-.006 9.893c-.003 5.442-.138 10.08-.3 10.308-1.184 1.667-2.618 2.186-6.048 2.189-2.766.002-3.683.159-4.646.797-.66.437-1.605.796-2.1.797-.52.002-.9.249-.9.586 0 .693 6.669 7.417 7.356 7.417.261 0 1.181.36 2.044.8 1.42.724 2.359.8 9.851.8 9.155 0 9.226.022 7.823 2.4-2.191 3.713-4.555 5.06-9.274 5.285-4.564.218-7 1.29-7 3.08 0 1.513-.427 1.635-5.705 1.635h-4.44l-3.254 3.176-3.254 3.176-4.574-.203c-2.515-.112-5.327-.472-6.25-.8-.922-.329-2.452-.541-3.4-.473L174.2 229l-.114 3.425c-.101 3.021-.019 3.512.7 4.162.447.405.814 1.147.814 1.648 0 1.549 1.443 1.63 3.343.188.911-.692 2.211-1.51 2.889-1.818.677-.307 1.464-.839 1.749-1.182.391-.472 1.316-.623 3.804-.623h3.286l1.485-1.604c1.439-1.556 1.56-1.603 3.964-1.559 1.364.026 2.66.006 2.88-.043.916-.204 1.347.087 2.417 1.63l1.126 1.625 4.228-.214c15.442-.782 16.327-.773 16.832.17.856 1.6-1.187 3.195-4.091 3.195-1.286 0-2.977.267-3.758.593-.781.327-2.854.713-4.607.86-2.843.237-3.39.421-5.067 1.706l-1.88 1.441-6.4.2-6.4.2-.116 3.55c-.083 2.534.038 3.737.422 4.2.297.358.761 1.169 1.033 1.804l.493 1.154 6.926-.19c5.583-.154 7.109-.319 7.873-.854.521-.365 1.425-.664 2.009-.664.584 0 1.287-.272 1.563-.604.275-.332 1.194-.714 2.041-.849.848-.136 1.742-.49 1.989-.786.246-.297 1.029-.649 1.741-.782.853-.161 2.004-.98 3.385-2.411 3.117-3.229 4.841-2.907 4.841.906 0 2.402-1.702 4.486-5.849 7.163-1.127.727-2.567 1.837-3.2 2.466-.633.629-1.421 1.27-1.751 1.425-.612.286-1.848 1.085-3.738 2.417-1.493 1.051-12.139.852-13.357-.25-.49-.443-1.419-.695-2.567-.695-1.401 0-2.006-.221-2.738-1-.517-.55-1.095-1-1.286-1-.793 0-2.849-1.921-4.145-3.874-.764-1.15-1.564-2.199-1.779-2.332-.657-.406-.435-1.749.435-2.619.96-.96.881-2.105-.159-2.305-.914-.176-2.119.891-2.438 2.159-.372 1.484-1.271 1.167-4.869-1.715-1.757-1.406-2.978-1.655-3.724-.756-.255.307-1.058.67-1.785.806-1.565.294-2.645 1.356-4.032 3.964-1.373 2.581-1.522 2.232 2.982 6.95 2.2 2.304 4 4.448 4 4.765 0 .316.7 1.336 1.556 2.266.856.93 1.946 2.441 2.423 3.358 1.049 2.016 4.496 5.333 5.542 5.333.415 0 1.081.36 1.479.8.688.761 1.232.8 11.026.8h10.303l1.035 1.231c1.656 1.967 1.369 5.585-.504 6.354-.583.24-1.958 1.061-3.055 1.825-1.143.796-2.484 1.39-3.137 1.39-.628 0-1.599.36-2.159.8-.589.463-1.626.801-2.463.803-.795.001-1.986.36-2.646.797-.69.457-1.879.797-2.8.799-1.717.005-4.2 1.813-4.2 3.058 0 .339-.36 1.074-.8 1.634-.44.559-.8 1.293-.8 1.631 0 .338-.301.947-.668 1.353-.659.728-1.99 2.741-4.332 6.554-.66 1.074-2.198 3.037-3.417 4.362-1.22 1.325-2.973 3.434-3.897 4.687-.923 1.253-3.734 3.989-6.247 6.081-2.513 2.092-4.687 3.995-4.831 4.228-.145.234-.848.67-1.564.969-.716.299-1.943 1.106-2.726 1.794-.783.687-1.783 1.25-2.222 1.25-.439 0-1.008.253-1.265.563-.519.625-7.704 4.237-8.429 4.237-.252 0-.729.27-1.059.6-.33.33-1.172.601-1.872.603-.699.001-1.811.36-2.471.797-.731.484-1.877.796-2.93.797-1.295.002-2.426.409-4.494 1.617l-2.764 1.614-6.322-.114-6.323-.114-1.272 1.4c-.699.77-1.277 1.676-1.283 2.014-.014.714 3.982 4.786 4.696 4.786.265 0 .934.675 1.486 1.5.552.825 1.443 2.13 1.981 2.9.539.77.989 1.594 1.002 1.83.013.237.473.853 1.023 1.37.55.517 1 1.33 1 1.808 0 .477.36 1.194.8 1.592.44.398.8.944.8 1.213 0 .269.279.72.619 1.003.896.743.593 2.22-.419 2.048-.44-.075-1.084-.39-1.431-.7-.348-.31-.999-.564-1.447-.564-.448 0-1.243-.333-1.768-.741-.525-.407-1.631-1.059-2.457-1.447-.827-.389-1.907-1.132-2.4-1.652-.494-.521-1.196-.949-1.561-.953-.365-.004-1.575-.727-2.688-1.607-1.114-.88-2.235-1.6-2.492-1.6-.256 0-1.248-.72-2.202-1.6-.955-.88-1.945-1.6-2.201-1.6-.255 0-1.674-.99-3.153-2.2-1.479-1.21-2.898-2.2-3.153-2.2-.256 0-1.226-.685-2.156-1.522-.93-.837-2.625-2.109-3.766-2.826-1.142-.717-2.132-1.427-2.2-1.578-.069-.151-.82-.871-1.67-1.601-2.465-2.118-8.212-8.417-9.325-10.221-.56-.909-2.052-2.732-3.314-4.052-1.263-1.32-2.717-3.12-3.231-4-.515-.88-1.892-2.645-3.06-3.923-1.169-1.277-2.125-2.476-2.125-2.663 0-.187-1.17-1.814-2.6-3.614-1.43-1.8-2.6-3.427-2.6-3.614 0-.188-.63-1.026-1.401-1.864-.77-.837-1.512-1.882-1.649-2.322-.136-.44-.83-1.52-1.542-2.4-.711-.88-1.408-1.96-1.548-2.4-.14-.44-.886-1.508-1.657-2.373-.772-.865-1.403-1.878-1.403-2.251s-.284-.914-.631-1.202c-.347-.288-1.087-1.435-1.643-2.549-2.064-4.131-2.258-4.225-8.713-4.225h-5.638l-2.375-2.4c-1.306-1.32-2.72-2.4-3.141-2.4-.421 0-1.464-.209-2.318-.465-3.395-1.017-4.939 3.234-2.207 6.077.734.763 1.807 2.198 2.384 3.188.576.99 1.651 2.43 2.389 3.2.737.77 1.768 2.12 2.292 3 .524.88 1.841 2.584 2.926 3.786 1.086 1.203 2.422 2.913 2.969 3.8.547.888 2.03 2.694 3.295 4.014 1.266 1.32 3.285 3.75 4.489 5.4 2.881 3.951 30.58 31.675 34.614 34.646 1.71 1.259 4.259 3.338 5.666 4.621 1.407 1.283 2.726 2.333 2.931 2.333.206 0 1.696 1.08 3.311 2.4 1.615 1.32 3.176 2.406 3.469 2.413.292.007 1.246.727 2.12 1.6.874.873 1.853 1.587 2.175 1.587.321 0 1.438.72 2.482 1.6 1.044.88 2.092 1.6 2.33 1.6s1.329.63 2.424 1.4c1.095.77 2.253 1.4 2.573 1.4.32 0 .817.334 1.104.743.288.408.973.879 1.523 1.047.55.168 1.27.526 1.6.796.33.27 2.541 1.446 4.913 2.612 2.372 1.167 4.408 2.274 4.524 2.462.116.187.625.34 1.133.34.507 0 1.38.36 1.939.8.56.44 1.366.8 1.792.8.426 0 1.101.36 1.499.8.456.504 1.232.8 2.099.8.769 0 1.823.352 2.392.8.559.44 1.601.8 2.314.8.713 0 1.5.245 1.749.545.249.299 1.373.653 2.5.787 1.126.133 2.468.518 2.983.855 2.559 1.677 4.559-.204 4.562-4.291.001-2.458-.733-3.834-4.422-8.296-.819-.99-1.605-2.189-1.748-2.664-.143-.475-.523-1.082-.844-1.349-.322-.267-.585-.799-.585-1.182 0-.383-.36-1.155-.8-1.714-.44-.56-.8-1.306-.8-1.658 0-.352-.36-.949-.8-1.326-.44-.377-.8-1.067-.8-1.534 0-.467-.36-1.175-.8-1.573-.44-.398-.8-1.032-.8-1.408 0-.376-.322-1.113-.716-1.638-.394-.525-.936-1.404-1.205-1.954s-1.02-1.972-1.668-3.161c-2.708-4.965-3.205-8.806-.865-6.688.395.357.993.649 1.331.649.708 0 7.138 6.134 9.225 8.8 1.262 1.612 1.426 2.105 1.568 4.723.087 1.608.345 3.048.573 3.2.792.528 4.157 4.911 4.157 5.414 0 .278.642 1.126 1.426 1.885.784.758 1.942 2.278 2.574 3.378.632 1.1 1.79 2.62 2.574 3.378.784.759 1.426 1.67 1.426 2.027 0 .356.986 1.716 2.191 3.021 1.205 1.306 2.195 2.564 2.2 2.796.013.607 1.508 2.55 4.109 5.34 3.043 3.264 5.023 4.033 11.131 4.323l4.632.219 1.068-1.823c.588-1.003 1.069-2.256 1.069-2.784 0-.558.668-1.702 1.594-2.729.877-.972 1.597-2.044 1.6-2.381.003-.336 1.086-1.681 2.406-2.987s2.4-2.523 2.4-2.704c0-.467 1.523-2.579 3.447-4.78.906-1.037 1.937-2.497 2.293-3.245.355-.749.919-1.588 1.253-1.865.334-.277.607-.818.607-1.201 0-.383.36-1.155.8-1.714.513-.653.8-1.623.8-2.707 0-1.584 1.051-3.992 2.176-4.984.767-.676 2.624-4.102 2.624-4.84 0-.383.304-1.033.676-1.443.427-.473.738-1.66.845-3.232.098-1.433.428-2.778.779-3.176.334-.38.677-1.626.762-2.768.084-1.143.354-2.319.599-2.614.245-.295.736-1.117 1.092-1.826 1.192-2.377 7.262-3.263 8.717-1.273.936 1.279.725 9.072-.27 9.972-.44.398-.8 1.032-.8 1.408 0 .376-.36 1.142-.8 1.701-.44.56-.8 1.12-.8 1.246 0 .126-.605 1.178-1.344 2.337-.74 1.16-1.464 2.489-1.611 2.955-.146.466-.621 1.169-1.055 1.562-.435.393-.79.988-.79 1.321 0 .334-.25.891-.555 1.239-.306.347-1.039 1.565-1.629 2.706-.591 1.141-1.331 2.288-1.645 2.549-.314.261-.571.812-.571 1.225 0 .413-.36 1.111-.8 1.551-.44.44-.8 1.138-.8 1.551 0 .413-.273.977-.606 1.254-.333.277-1.067 1.424-1.63 2.549s-1.37 2.418-1.794 2.872c-.423.454-.77 1.101-.77 1.438 0 .337-.36.938-.8 1.336-.44.398-.8 1.118-.8 1.6s-.36 1.202-.8 1.6c-.65.588-.8 1.232-.8 3.431 0 2.339-.143 2.878-1.05 3.955-.577.686-.922 1.375-.765 1.531.579.576 24.71.325 26.215-.273.85-.338 3.913-.666 7.8-.835 4.802-.209 6.7-.444 7.6-.941.821-.454 2.165-.664 4.256-.666 2.187-.001 3.553-.227 4.8-.793 1.081-.491 2.624-.795 4.058-.8 1.412-.006 2.686-.253 3.269-.635.525-.344 2.004-.725 3.286-.847 1.282-.121 2.735-.473 3.228-.781.493-.308 1.753-.674 2.8-.813 1.047-.139 2.258-.495 2.692-.793.434-.297 1.535-.54 2.446-.54 1.051 0 2.029-.292 2.674-.8.626-.492 1.623-.8 2.592-.8 1.067 0 1.809-.258 2.299-.8.438-.484 1.232-.8 2.008-.8.706 0 1.742-.36 2.301-.8.56-.44 1.46-.8 2-.8.541 0 1.441-.36 2-.8.56-.44 1.46-.8 2-.8.541 0 1.441-.36 2-.8.56-.44 1.444-.8 1.965-.8.522 0 1.256-.36 1.633-.8.377-.44 1.115-.8 1.64-.8.525 0 1.179-.27 1.453-.6.274-.33.686-.6.915-.6.635 0 8.607-3.95 8.887-4.403.135-.218.567-.397.96-.397s1.04-.36 1.438-.8c.398-.44 1.032-.8 1.408-.8.376 0 1.142-.36 1.701-.8.56-.44 1.304-.8 1.654-.8.35 0 .96-.323 1.354-.717.395-.395 1.28-.95 1.967-1.235.688-.285 1.837-1.042 2.555-1.683.718-.641 1.548-1.165 1.845-1.165.297 0 1.45-.72 2.564-1.6 1.113-.88 2.193-1.6 2.4-1.6.206 0 1.286-.72 2.4-1.6 1.113-.88 2.206-1.6 2.429-1.6.223 0 1.257-.765 2.299-1.7 1.041-.935 2.417-1.96 3.059-2.278.641-.317 2.245-1.594 3.565-2.838 1.32-1.243 3.237-2.735 4.26-3.316 1.085-.615 6.797-5.971 13.7-12.845l11.84-11.79-.003-4.517c-.002-3.834-.122-4.697-.797-5.716-.457-.69-.797-1.881-.8-2.8-.003-.919-.343-2.11-.8-2.8-.437-.66-.796-1.594-.797-2.076-.002-.482-.177-.984-.39-1.116-.212-.131-.849-1.16-1.414-2.285-2.054-4.089-9.357-11.564-13.224-13.536-.731-.372-1.925-1.179-2.652-1.793-.728-.613-1.877-1.348-2.555-1.632-.677-.283-1.464-.796-1.749-1.139-.284-.343-.732-.623-.996-.623-.263 0-1.444-.72-2.623-1.6-1.179-.88-2.444-1.6-2.81-1.6-.366 0-.992-.36-1.39-.8-.398-.44-.997-.8-1.33-.8-.334 0-.9-.265-1.257-.588-.638-.577-2.743-1.769-6.498-3.68-1.036-.527-1.992-1.133-2.123-1.345-.578-.936-3.615-.423-4.488.757l-.846 1.145 1.148 1.391c.63.766 1.263 1.857 1.406 2.426.143.57.604 1.346 1.024 1.727.42.38.764.919.764 1.198 0 .279.63 1.333 1.4 2.342.77 1.009 1.4 2.089 1.4 2.4 0 .311-.63 1.391-1.4 2.4-.77 1.009-1.403 2.147-1.407 2.53-.004.384-.454 1.121-1 1.639s-.999 1.238-1.007 1.6c-.008.362-.444 1.182-.968 1.823l-.953 1.166-16.362-.257-16.363-.257-1.27 1.311c-.698.72-1.274 1.662-1.279 2.091-.027 2.273-7.678 7.689-10.191 7.214-3.538-.669-5.203-1.336-5.322-2.133-.068-.449-.473-1.133-.9-1.52-1-.905-.991-2.383.022-3.671 1.22-1.55 1.076-1.837-2.944-5.884-3.751-3.775-4.486-5.059-3.987-6.966.585-2.237 4.121.145 7.038 4.741 2.842 4.476 9.104 5.596 10.057 1.799.532-2.116 3.762-4.594 6.014-4.612.892-.007 1.971-.277 2.398-.6.428-.323 1.618-.587 2.647-.587 1.263 0 2.199-.259 2.886-.8.56-.44 1.306-.8 1.658-.8.352 0 .949-.36 1.326-.8 1.095-1.279 2.205-.95 4.839 1.434l2.468 2.233 7.084-.049 7.084-.049 1.1-1.285c1.217-1.421 1.49-3.489.561-4.26-.314-.261-1.054-1.408-1.643-2.549-.59-1.141-1.413-2.447-1.829-2.901-.416-.454-.757-1.107-.757-1.451 0-.344-.289-.865-.642-1.158-.353-.292-.79-.923-.972-1.401-.368-.968-3.486-3.223-4.971-3.596-.526-.132-1.046-.471-1.154-.753-.108-.281-.665-.63-1.238-.774-.574-.143-1.862-.887-2.863-1.651-1.002-.765-2.05-1.39-2.329-1.39-.279 0-.833-.36-1.231-.8-.398-.44-1.124-.8-1.613-.8-.489 0-1.122-.28-1.406-.623-.285-.343-1.072-.882-1.749-1.199-.678-.317-1.772-.931-2.432-1.364-.66-.434-1.754-1.042-2.43-1.352-.677-.309-4.149-3.815-7.716-7.789-6.303-7.024-9.157-9.67-10.433-9.676-.341-.001-1.161-.36-1.821-.797-.66-.437-1.599-.796-2.088-.797-.488-.002-1.602-.375-2.475-.83-1.956-1.02-2.732-.7-4.16 1.718-.555.94-1.654 2.329-2.443 3.087-1.209 1.162-1.434 1.649-1.434 3.097 0 1.285-.202 1.844-.8 2.218-1.11.693-1.003 1.263.443 2.362 3.623 2.755 3.343 2.139 3.488 7.654l.132 4.98 2.168 2.142c2.316 2.287 2.907 4.443 1.628 5.938-.297.347-.969 1.441-1.494 2.431s-1.361 2.309-1.859 2.931c-.499.622-.906 1.323-.906 1.558 0 .236-.63 1.197-1.4 2.137-.77.94-1.4 2.01-1.4 2.378 0 .369-.36 1.127-.8 1.687-.44.559-.8 1.35-.8 1.758 0 .68-2.667 2.751-3.543 2.751-.198 0-.576.261-.841.58-.264.319-1.411 1.133-2.549 1.809-4.807 2.857-6.182 3.799-8.267 5.665-1.21 1.083-2.515 2.234-2.9 2.558-.42.353-.7 1.145-.7 1.984 0 .767-.36 2.342-.8 3.5-.552 1.452-.8 3.073-.8 5.231v3.128l-1.7 1.722c-.935.947-2.368 2.032-3.185 2.411-2.502 1.161-4.315 3.148-4.315 4.731 0 .767-.353 1.822-.8 2.39-.44.56-.8 1.367-.8 1.794 0 .95-2.082 3.899-3.161 4.476-.468.25-3.743.421-8.081.421-6.097 0-7.41.104-7.995.634-.386.349-1.428.731-2.316.85-.888.119-1.92.554-2.293.966-.373.413-1.124.75-1.669.75-.545 0-1.602.378-2.349.839-2.158 1.335-7.762 1-9.836-.586-3.613-2.765-.964-7.064 3.995-6.483 3.869.453 4.026.414 6.102-1.529 1.083-1.012 2.345-1.841 2.806-1.841.46 0 1.413-.305 2.117-.678.963-.511 2.616-.719 6.68-.842 4.007-.122 5.572-.316 6.066-.753.367-.325 1.136-.642 1.709-.704.573-.063 1.424-.454 1.889-.869 2.134-1.9 4.72-4.806 4.727-5.313.005-.307.684-1.38 1.509-2.384 1.471-1.791 2.195-2.861 2.744-4.057.151-.33.637-1.002 1.078-1.493.576-.639.822-1.52.87-3.104.073-2.452 1.562-4.604 3.183-4.601 1.049.001 4.612-3.896 4.62-5.053.003-.468.257-1.06.566-1.316.308-.256.678-.953.822-1.549.159-.658 2.021-2.779 4.735-5.395 4.044-3.898 4.995-5.076 6.219-7.705.209-.449.668-1.057 1.021-1.349.353-.293.642-.849.642-1.235 0-.386.266-.923.592-1.193.325-.27.832-.967 1.126-1.549.823-1.628 1.614-2.959 2.382-4.009.998-1.365.97-5.597-.047-6.895-.41-.525-1.233-1.888-1.829-3.029-.595-1.141-1.339-2.288-1.653-2.549-.314-.261-.571-.79-.571-1.176 0-.386-.257-.915-.571-1.176-1.561-1.295-2.637-4.293-1.81-5.042.43-.388.781-1.01.781-1.382 0-.372.315-.963.7-1.313.385-.351 1.15-1.483 1.7-2.516.595-1.117 3.473-4.326 7.1-7.916l6.1-6.038v-6.746l2.4-2.199c1.939-1.776 2.401-2.436 2.403-3.435.001-.68.36-1.777.797-2.437.491-.741.796-1.877.797-2.969.002-1.097.26-2.052.681-2.517.47-.52.745-1.752.9-4.031.148-2.188.456-3.613.922-4.272.527-.744.7-1.787.7-4.215 0-2.437.196-3.611.8-4.796.44-.863.8-1.959.8-2.436 0-.476.258-1.081.574-1.343.316-.262.698-1.039.849-1.726.151-.687.523-1.498.826-1.801.303-.303.551-.823.551-1.155 0-.333.605-1.355 1.346-2.272.74-.917 1.595-2.197 1.9-2.844.375-.797.988-1.289 1.898-1.523.74-.19 2.045-.788 2.9-1.328l1.556-.982v-3.064c0-2.356.161-3.241.7-3.835.591-.652.731-1.844.9-7.632.128-4.406.379-7.171.7-7.733.631-1.103.643-3.336.024-4.8-.261-.619-.576-3.281-.7-5.916-.211-4.511-.278-4.816-1.158-5.253-.513-.256-1.134-.665-1.38-.911-.245-.245-1.018-.446-1.717-.446-2.08 0-2.289-.613-2.008-5.895.387-7.292-.349-40.465-.93-41.9-.266-.657-.585-2.727-.71-4.6-.132-1.983-.453-3.667-.769-4.031-.298-.345-.656-1.196-.795-1.891-.14-.696-.502-1.471-.805-1.723-.304-.252-.552-.696-.552-.987 0-.291-.639-1.213-1.42-2.051-.781-.837-1.655-2.067-1.943-2.734-.287-.667-1.088-1.778-1.78-2.469-.691-.692-1.257-1.603-1.257-2.026 0-.423-.36-1.095-.8-1.493-.44-.398-.8-1.214-.8-1.813 0-1.655-.636-1.865-4.906-1.615l-3.907.228-5.022 5c-6.894 6.863-7.358 7.723-5.765 10.696.866 1.615 1.096 5.074.367 5.524-.519.321-2.767-1.735-2.767-2.532 0-.309-.36-1.019-.8-1.579-.44-.559-.8-1.421-.8-1.914 0-.493-.27-1.121-.6-1.395-.746-.619-.766-1.581-.055-2.611.299-.434.633-1.736.741-2.893.109-1.157.494-2.431.856-2.832.362-.4.658-1.225.658-1.833 0-.783.654-1.822 2.245-3.568 1.235-1.355 2.423-2.958 2.64-3.563.216-.605.529-1.1.694-1.1.166 0 .895-1.17 1.621-2.6.726-1.43 1.473-2.6 1.66-2.6.187 0 .34-.336.34-.746s.385-1.235.855-1.833c.546-.694.958-1.98 1.139-3.554.157-1.357.492-2.974.745-3.593.66-1.613.662-1.609-1.57-3.055-1.116-.724-2.691-1.923-3.5-2.665-.808-.743-1.777-1.351-2.153-1.352-.377-.001-1.007-.336-1.4-.743-.394-.408-1.556-1.226-2.582-1.818-1.026-.593-2.083-1.339-2.349-1.659-.266-.32-.883-.582-1.372-.582-.489 0-1.215-.36-1.613-.8-.398-.44-1.118-.8-1.6-.8s-1.202-.36-1.6-.8c-.398-.44-1.118-.8-1.6-.8s-1.202-.36-1.6-.8c-.398-.44-1.163-.8-1.699-.8s-1.432-.36-1.992-.8c-.559-.44-1.511-.8-2.114-.8s-1.314-.261-1.579-.58c-.265-.32-1.322-.702-2.349-.849-1.027-.148-2.141-.508-2.477-.8-.335-.292-1.545-.623-2.69-.735-1.144-.112-2.515-.49-3.048-.838-.913-.599-21.075-1.12-25.812-.668m54.36 136.523c.99.233 5.443.555 9.896.715 4.453.16 8.209.404 8.348.543 1.09 1.09-4.454 7.489-6.489 7.489-.96 0-1.791.532-3.755 2.4-1.949 1.855-2.804 2.403-3.761 2.414-.681.008-1.689.272-2.239.586-.55.314-1.507.578-2.126.586-2.412.03-3.737 2.217-1.929 3.185 1.932 1.034 1.727 4.92-.318 6.015-3.148 1.684-5.359.493-13.481-7.263-7.489-7.15-8.546-8.331-8.546-9.542 0-.362-.368-.99-.819-1.398-1.303-1.18-.962-4.154.571-4.97 1.021-.543 1.176-.545 1.364-.013 1.107 3.126 4.867 4.119 6.745 1.781.626-.78 1.563-1.888 2.081-2.461l.943-1.041 5.857.274c3.222.151 6.668.466 7.658.7M241.473 184.5c2.944 2.992 4.527 5.431 4.527 6.974 0 .488.243 1.03.539 1.206.297.176.649 1.017.783 1.87.134.852.521 1.856.861 2.231.339.375.62 1.118.623 1.65.017 2.643 1.291 2.387 2.815-.563.474-.918 1.259-2.388 1.746-3.268l.884-1.6 3.391-.114c4.895-.165 5.331.349 5.249 6.195-.082 5.848-1.886 8.82-6.557 10.8-1.113.471-1.134.541-1.134 3.732v3.251l-6.492 6.568c-6.981 7.063-7.287 7.271-7.674 5.207-.141-.749-.521-1.463-.845-1.588-1.919-.736.643-4.609 4.011-6.062 2.318-1 4.145-4.673 2.856-5.742-1.251-1.039-2.425-.393-2.825 1.553-.456 2.224-.69 2.386-3.442 2.394-3.413.009-4.849-1.424-3.376-3.37.323-.428.587-1.069.587-1.426 0-1.125 2.078-2.682 3.881-2.907 1.959-.244 5.719-3.55 5.719-5.027 0-1.474-2.105-2.234-4.729-1.707-4.989 1.002-7.279.345-7.937-2.278-.395-1.573 1.973-3.679 4.137-3.679 3.426 0 2.577-6.581-1.179-9.145-1.291-.881-1.479-1.27-1.486-3.079-.003-.892-.27-1.972-.593-2.4-1.232-1.628-.695-2.485 1.597-2.544.992-.026 1.724.491 4.063 2.868"/><path d="M0 200v200h400V0H0v200M223.052 12.198c.533.348 1.904.726 3.048.838 1.145.112 2.355.443 2.69.735.336.292 1.45.652 2.477.8 1.027.147 2.084.529 2.349.849.265.319.976.58 1.579.58s1.555.36 2.114.8c.56.44 1.456.8 1.992.8s1.301.36 1.699.8c.398.44 1.118.8 1.6.8s1.202.36 1.6.8c.398.44 1.118.8 1.6.8s1.202.36 1.6.8c.398.44 1.124.8 1.613.8.489 0 1.106.262 1.372.582.266.32 1.323 1.066 2.349 1.659 1.026.592 2.188 1.41 2.582 1.818.393.407 1.023.742 1.4.743.376.001 1.345.609 2.153 1.352.809.742 2.384 1.941 3.5 2.665 2.232 1.446 2.23 1.442 1.57 3.055-.253.619-.588 2.236-.745 3.593-.181 1.574-.593 2.86-1.139 3.554-.47.598-.855 1.423-.855 1.833 0 .41-.153.746-.34.746-.187 0-.934 1.17-1.66 2.6-.726 1.43-1.455 2.6-1.621 2.6-.165 0-.478.495-.694 1.1-.217.605-1.405 2.208-2.64 3.563-1.591 1.746-2.245 2.785-2.245 3.568 0 .608-.296 1.433-.658 1.833-.362.401-.747 1.675-.856 2.832-.108 1.157-.442 2.459-.741 2.893-.711 1.03-.691 1.992.055 2.611.33.274.6.902.6 1.395s.36 1.355.8 1.914c.44.56.8 1.27.8 1.579 0 .797 2.248 2.853 2.767 2.532.729-.45.499-3.909-.367-5.524-1.593-2.973-1.129-3.833 5.765-10.696l5.022-5 3.907-.228c4.27-.25 4.906-.04 4.906 1.615 0 .599.36 1.415.8 1.813.44.398.8 1.07.8 1.493 0 .423.566 1.334 1.257 2.026.692.691 1.493 1.802 1.78 2.469.288.667 1.162 1.897 1.943 2.734.781.838 1.42 1.76 1.42 2.051 0 .291.248.735.552.987.303.252.665 1.027.805 1.723.139.695.497 1.546.795 1.891.316.364.637 2.048.769 4.031.125 1.873.444 3.943.71 4.6.581 1.435 1.317 34.608.93 41.9-.281 5.282-.072 5.895 2.008 5.895.699 0 1.472.201 1.717.446.246.246.867.655 1.38.911.88.437.947.742 1.158 5.253.124 2.635.439 5.297.7 5.916.619 1.464.607 3.697-.024 4.8-.321.562-.572 3.327-.7 7.733-.169 5.788-.309 6.98-.9 7.632-.539.594-.7 1.479-.7 3.835v3.064l-1.556.982c-.855.54-2.16 1.138-2.9 1.328-.91.234-1.523.726-1.898 1.523-.305.647-1.16 1.927-1.9 2.844-.741.917-1.346 1.939-1.346 2.272 0 .332-.248.852-.551 1.155-.303.303-.675 1.114-.826 1.801-.151.687-.533 1.464-.849 1.726-.316.262-.574.867-.574 1.343 0 .477-.36 1.573-.8 2.436-.604 1.185-.8 2.359-.8 4.796 0 2.428-.173 3.471-.7 4.215-.466.659-.774 2.084-.922 4.272-.155 2.279-.43 3.511-.9 4.031-.421.465-.679 1.42-.681 2.517-.001 1.092-.306 2.228-.797 2.969-.437.66-.796 1.757-.797 2.437-.002.999-.464 1.659-2.403 3.435l-2.4 2.199v6.746l-6.1 6.038c-3.627 3.59-6.505 6.799-7.1 7.916-.55 1.033-1.315 2.165-1.7 2.516-.385.35-.7.941-.7 1.313s-.351.994-.781 1.382c-.827.749.249 3.747 1.81 5.042.314.261.571.79.571 1.176 0 .386.257.915.571 1.176.314.261 1.058 1.408 1.653 2.549.596 1.141 1.419 2.504 1.829 3.029 1.017 1.298 1.045 5.53.047 6.895-.768 1.05-1.559 2.381-2.382 4.009-.294.582-.801 1.279-1.126 1.549-.326.27-.592.807-.592 1.193s-.289.942-.642 1.235c-.353.292-.812.9-1.021 1.349-1.224 2.629-2.175 3.807-6.219 7.705-2.714 2.616-4.576 4.737-4.735 5.395-.144.596-.514 1.293-.822 1.549-.309.256-.563.848-.566 1.316-.008 1.157-3.571 5.054-4.62 5.053-1.621-.003-3.11 2.149-3.183 4.601-.048 1.584-.294 2.465-.87 3.104-.441.491-.927 1.163-1.078 1.493-.549 1.196-1.273 2.266-2.744 4.057-.825 1.004-1.504 2.077-1.509 2.384-.007.507-2.593 3.413-4.727 5.313-.465.415-1.316.806-1.889.869-.573.062-1.342.379-1.709.704-.494.437-2.059.631-6.066.753-4.064.123-5.717.331-6.68.842-.704.373-1.657.678-2.117.678-.461 0-1.723.829-2.806 1.841-2.076 1.943-2.233 1.982-6.102 1.529-4.959-.581-7.608 3.718-3.995 6.483 2.074 1.586 7.678 1.921 9.836.586.747-.461 1.804-.839 2.349-.839.545 0 1.296-.337 1.669-.75.373-.412 1.405-.847 2.293-.966.888-.119 1.93-.501 2.316-.85.585-.53 1.898-.634 7.995-.634 4.338 0 7.613-.171 8.081-.421 1.079-.577 3.161-3.526 3.161-4.476 0-.427.36-1.234.8-1.794.447-.568.8-1.623.8-2.39 0-1.583 1.813-3.57 4.315-4.731.817-.379 2.25-1.464 3.185-2.411l1.7-1.722v-3.128c0-2.158.248-3.779.8-5.231.44-1.158.8-2.733.8-3.5 0-.839.28-1.631.7-1.984.385-.324 1.69-1.475 2.9-2.558 2.085-1.866 3.46-2.808 8.267-5.665 1.138-.676 2.285-1.49 2.549-1.809.265-.319.643-.58.841-.58.876 0 3.543-2.071 3.543-2.751 0-.408.36-1.199.8-1.758.44-.56.8-1.318.8-1.687 0-.368.63-1.438 1.4-2.378.77-.94 1.4-1.901 1.4-2.137 0-.235.407-.936.906-1.558.498-.622 1.334-1.941 1.859-2.931.525-.99 1.197-2.084 1.494-2.431 1.279-1.495.688-3.651-1.628-5.938l-2.168-2.142-.132-4.98c-.145-5.515.135-4.899-3.488-7.654-1.446-1.099-1.553-1.669-.443-2.362.598-.374.8-.933.8-2.218 0-1.448.225-1.935 1.434-3.097.789-.758 1.888-2.147 2.443-3.087 1.428-2.418 2.204-2.738 4.16-1.718.873.455 1.987.828 2.475.83.489.001 1.428.36 2.088.797.66.437 1.48.796 1.821.797 1.276.006 4.13 2.652 10.433 9.676 3.567 3.974 7.039 7.48 7.716 7.789.676.31 1.77.918 2.43 1.352.66.433 1.754 1.047 2.432 1.364.677.317 1.464.856 1.749 1.199.284.343.917.623 1.406.623.489 0 1.215.36 1.613.8.398.44.952.8 1.231.8.279 0 1.327.625 2.329 1.39 1.001.764 2.289 1.508 2.863 1.651.573.144 1.13.493 1.238.774.108.282.628.621 1.154.753 1.485.373 4.603 2.628 4.971 3.596.182.478.619 1.109.972 1.401.353.293.642.814.642 1.158s.341.997.757 1.451c.416.454 1.239 1.76 1.829 2.901.589 1.141 1.329 2.288 1.643 2.549.929.771.656 2.839-.561 4.26l-1.1 1.285-7.084.049-7.084.049-2.468-2.233c-2.634-2.384-3.744-2.713-4.839-1.434-.377.44-.974.8-1.326.8-.352 0-1.098.36-1.658.8-.687.541-1.623.8-2.886.8-1.029 0-2.219.264-2.647.587-.427.323-1.506.593-2.398.6-2.252.018-5.482 2.496-6.014 4.612-.953 3.797-7.215 2.677-10.057-1.799-2.917-4.596-6.453-6.978-7.038-4.741-.499 1.907.236 3.191 3.987 6.966 4.02 4.047 4.164 4.334 2.944 5.884-1.013 1.288-1.022 2.766-.022 3.671.427.387.832 1.071.9 1.52.119.797 1.784 1.464 5.322 2.133 2.513.475 10.164-4.941 10.191-7.214.005-.429.581-1.371 1.279-2.091l1.27-1.311 16.363.257 16.362.257.953-1.166c.524-.641.96-1.461.968-1.823.008-.362.461-1.082 1.007-1.6.546-.518.996-1.255 1-1.639.004-.383.637-1.521 1.407-2.53s1.4-2.089 1.4-2.4c0-.311-.63-1.391-1.4-2.4-.77-1.009-1.4-2.063-1.4-2.342 0-.279-.344-.818-.764-1.198-.42-.381-.881-1.157-1.024-1.727-.143-.569-.776-1.66-1.406-2.426l-1.148-1.391.846-1.145c.873-1.18 3.91-1.693 4.488-.757.131.212 1.087.818 2.123 1.345 3.755 1.911 5.86 3.103 6.498 3.68.357.323.923.588 1.257.588.333 0 .932.36 1.33.8.398.44 1.024.8 1.39.8.366 0 1.631.72 2.81 1.6 1.179.88 2.36 1.6 2.623 1.6.264 0 .712.28.996.623.285.343 1.072.856 1.749 1.139.678.284 1.827 1.019 2.555 1.632.727.614 1.921 1.421 2.652 1.793 3.867 1.972 11.17 9.447 13.224 13.536.565 1.125 1.202 2.154 1.414 2.285.213.132.388.634.39 1.116.001.482.36 1.416.797 2.076.457.69.797 1.881.8 2.8.003.919.343 2.11.8 2.8.675 1.019.795 1.882.797 5.716l.003 4.517-11.84 11.79c-6.903 6.874-12.615 12.23-13.7 12.845-1.023.581-2.94 2.073-4.26 3.316-1.32 1.244-2.924 2.521-3.565 2.838-.642.318-2.018 1.343-3.059 2.278-1.042.935-2.076 1.7-2.299 1.7-.223 0-1.316.72-2.429 1.6-1.114.88-2.194 1.6-2.4 1.6-.207 0-1.287.72-2.4 1.6-1.114.88-2.267 1.6-2.564 1.6-.297 0-1.127.524-1.845 1.165s-1.867 1.398-2.555 1.683c-.687.285-1.572.84-1.967 1.235-.394.394-1.004.717-1.354.717-.35 0-1.094.36-1.654.8-.559.44-1.325.8-1.701.8-.376 0-1.01.36-1.408.8-.398.44-1.045.8-1.438.8s-.825.179-.96.397c-.28.453-8.252 4.403-8.887 4.403-.229 0-.641.27-.915.6-.274.33-.928.6-1.453.6s-1.263.36-1.64.8c-.377.44-1.111.8-1.633.8-.521 0-1.405.36-1.965.8-.559.44-1.459.8-2 .8-.54 0-1.44.36-2 .8-.559.44-1.459.8-2 .8-.54 0-1.44.36-2 .8-.559.44-1.595.8-2.301.8-.776 0-1.57.316-2.008.8-.49.542-1.232.8-2.299.8-.969 0-1.966.308-2.592.8-.645.508-1.623.8-2.674.8-.911 0-2.012.243-2.446.54-.434.298-1.645.654-2.692.793-1.047.139-2.307.505-2.8.813-.493.308-1.946.66-3.228.781-1.282.122-2.761.503-3.286.847-.583.382-1.857.629-3.269.635-1.434.005-2.977.309-4.058.8-1.247.566-2.613.792-4.8.793-2.091.002-3.435.212-4.256.666-.9.497-2.798.732-7.6.941-3.887.169-6.95.497-7.8.835-1.505.598-25.636.849-26.215.273-.157-.156.188-.845.765-1.531.907-1.077 1.05-1.616 1.05-3.955 0-2.199.15-2.843.8-3.431.44-.398.8-1.118.8-1.6s.36-1.202.8-1.6c.44-.398.8-.999.8-1.336 0-.337.347-.984.77-1.438.424-.454 1.231-1.747 1.794-2.872.563-1.125 1.297-2.272 1.63-2.549.333-.277.606-.841.606-1.254 0-.413.36-1.111.8-1.551.44-.44.8-1.138.8-1.551 0-.413.257-.964.571-1.225.314-.261 1.054-1.408 1.645-2.549.59-1.141 1.323-2.359 1.629-2.706.305-.348.555-.905.555-1.239 0-.333.355-.928.79-1.321.434-.393.909-1.096 1.055-1.562.147-.466.871-1.795 1.611-2.955.739-1.159 1.344-2.211 1.344-2.337 0-.126.36-.686.8-1.246.44-.559.8-1.325.8-1.701 0-.376.36-1.01.8-1.408.995-.9 1.206-8.693.27-9.972-1.455-1.99-7.525-1.104-8.717 1.273-.356.709-.847 1.531-1.092 1.826-.245.295-.515 1.471-.599 2.614-.085 1.142-.428 2.388-.762 2.768-.351.398-.681 1.743-.779 3.176-.107 1.572-.418 2.759-.845 3.232-.372.41-.676 1.06-.676 1.443 0 .738-1.857 4.164-2.624 4.84-1.125.992-2.176 3.4-2.176 4.984 0 1.084-.287 2.054-.8 2.707-.44.559-.8 1.331-.8 1.714s-.273.924-.607 1.201c-.334.277-.898 1.116-1.253 1.865-.356.748-1.387 2.208-2.293 3.245-1.924 2.201-3.447 4.313-3.447 4.78 0 .181-1.08 1.398-2.4 2.704-1.32 1.306-2.403 2.651-2.406 2.987-.003.337-.723 1.409-1.6 2.381-.926 1.027-1.594 2.171-1.594 2.729 0 .528-.481 1.781-1.069 2.784l-1.068 1.823-4.632-.219c-6.108-.29-8.088-1.059-11.131-4.323-2.601-2.79-4.096-4.733-4.109-5.34-.005-.232-.995-1.49-2.2-2.796-1.205-1.305-2.191-2.665-2.191-3.021 0-.357-.642-1.268-1.426-2.027-.784-.758-1.942-2.278-2.574-3.378-.632-1.1-1.79-2.62-2.574-3.378-.784-.759-1.426-1.607-1.426-1.885 0-.503-3.365-4.886-4.157-5.414-.228-.152-.486-1.592-.573-3.2-.142-2.618-.306-3.111-1.568-4.723-2.087-2.666-8.517-8.8-9.225-8.8-.338 0-.936-.292-1.331-.649-2.34-2.118-1.843 1.723.865 6.688.648 1.189 1.399 2.611 1.668 3.161.269.55.811 1.429 1.205 1.954.394.525.716 1.262.716 1.638 0 .376.36 1.01.8 1.408.44.398.8 1.106.8 1.573 0 .467.36 1.157.8 1.534.44.377.8.974.8 1.326 0 .352.36 1.098.8 1.658.44.559.8 1.331.8 1.714s.263.915.585 1.182c.321.267.701.874.844 1.349.143.475.929 1.674 1.748 2.664 3.689 4.462 4.423 5.838 4.422 8.296-.003 4.087-2.003 5.968-4.562 4.291-.515-.337-1.857-.722-2.983-.855-1.127-.134-2.251-.488-2.5-.787-.249-.3-1.036-.545-1.749-.545-.713 0-1.755-.36-2.314-.8-.569-.448-1.623-.8-2.392-.8-.867 0-1.643-.296-2.099-.8-.398-.44-1.073-.8-1.499-.8-.426 0-1.232-.36-1.792-.8-.559-.44-1.432-.8-1.939-.8-.508 0-1.017-.153-1.133-.34-.116-.188-2.152-1.295-4.524-2.462-2.372-1.166-4.583-2.342-4.913-2.612-.33-.27-1.05-.628-1.6-.796-.55-.168-1.235-.639-1.523-1.047-.287-.409-.784-.743-1.104-.743-.32 0-1.478-.63-2.573-1.4-1.095-.77-2.186-1.4-2.424-1.4s-1.286-.72-2.33-1.6c-1.044-.88-2.161-1.6-2.482-1.6-.322 0-1.301-.714-2.175-1.587-.874-.873-1.828-1.593-2.12-1.6-.293-.007-1.854-1.093-3.469-2.413-1.615-1.32-3.105-2.4-3.311-2.4-.205 0-1.524-1.05-2.931-2.333-1.407-1.283-3.956-3.362-5.666-4.621-4.034-2.971-31.733-30.695-34.614-34.646-1.204-1.65-3.223-4.08-4.489-5.4-1.265-1.32-2.748-3.126-3.295-4.014-.547-.887-1.883-2.597-2.969-3.8-1.085-1.202-2.402-2.906-2.926-3.786-.524-.88-1.555-2.23-2.292-3-.738-.77-1.813-2.21-2.389-3.2-.577-.99-1.65-2.425-2.384-3.188-2.732-2.843-1.188-7.094 2.207-6.077.854.256 1.897.465 2.318.465.421 0 1.835 1.08 3.141 2.4l2.375 2.4h5.638c6.455 0 6.649.094 8.713 4.225.556 1.114 1.296 2.261 1.643 2.549.347.288.631.829.631 1.202s.631 1.386 1.403 2.251c.771.865 1.517 1.933 1.657 2.373.14.44.837 1.52 1.548 2.4.712.88 1.406 1.96 1.542 2.4.137.44.879 1.485 1.649 2.322.771.838 1.401 1.676 1.401 1.864 0 .187 1.17 1.814 2.6 3.614 1.43 1.8 2.6 3.427 2.6 3.614 0 .187.956 1.386 2.125 2.663 1.168 1.278 2.545 3.043 3.06 3.923.514.88 1.968 2.68 3.231 4 1.262 1.32 2.754 3.143 3.314 4.052 1.113 1.804 6.86 8.103 9.325 10.221.85.73 1.601 1.45 1.67 1.601.068.151 1.058.861 2.2 1.578 1.141.717 2.836 1.989 3.766 2.826.93.837 1.9 1.522 2.156 1.522.255 0 1.674.99 3.153 2.2 1.479 1.21 2.898 2.2 3.153 2.2.256 0 1.246.72 2.201 1.6.954.88 1.946 1.6 2.202 1.6.257 0 1.378.72 2.492 1.6 1.113.88 2.323 1.603 2.688 1.607.365.004 1.067.432 1.561.953.493.52 1.573 1.263 2.4 1.652.826.388 1.932 1.04 2.457 1.447.525.408 1.32.741 1.768.741.448 0 1.099.254 1.447.564.347.31.991.625 1.431.7 1.012.172 1.315-1.305.419-2.048-.34-.283-.619-.734-.619-1.003 0-.269-.36-.815-.8-1.213-.44-.398-.8-1.115-.8-1.592 0-.478-.45-1.291-1-1.808-.55-.517-1.01-1.133-1.023-1.37-.013-.236-.463-1.06-1.002-1.83-.538-.77-1.429-2.075-1.981-2.9-.552-.825-1.221-1.5-1.486-1.5-.714 0-4.71-4.072-4.696-4.786.006-.338.584-1.244 1.283-2.014l1.272-1.4 6.323.114 6.322.114 2.764-1.614c2.068-1.208 3.199-1.615 4.494-1.617 1.053-.001 2.199-.313 2.93-.797.66-.437 1.772-.796 2.471-.797.7-.002 1.542-.273 1.872-.603.33-.33.807-.6 1.059-.6.725 0 7.91-3.612 8.429-4.237.257-.31.826-.563 1.265-.563.439 0 1.439-.563 2.222-1.25.783-.688 2.01-1.495 2.726-1.794.716-.299 1.419-.735 1.564-.969.144-.233 2.318-2.136 4.831-4.228 2.513-2.092 5.324-4.828 6.247-6.081.924-1.253 2.677-3.362 3.897-4.687 1.219-1.325 2.757-3.288 3.417-4.362 2.342-3.813 3.673-5.826 4.332-6.554.367-.406.668-1.015.668-1.353 0-.338.36-1.072.8-1.631.44-.56.8-1.295.8-1.634 0-1.245 2.483-3.053 4.2-3.058.921-.002 2.11-.342 2.8-.799.66-.437 1.851-.796 2.646-.797.837-.002 1.874-.34 2.463-.803.56-.44 1.531-.8 2.159-.8.653 0 1.994-.594 3.137-1.39 1.097-.764 2.472-1.585 3.055-1.825 1.873-.769 2.16-4.387.504-6.354l-1.035-1.231h-10.303c-9.794 0-10.338-.039-11.026-.8-.398-.44-1.064-.8-1.479-.8-1.046 0-4.493-3.317-5.542-5.333-.477-.917-1.567-2.428-2.423-3.358-.856-.93-1.556-1.95-1.556-2.266 0-.317-1.8-2.461-4-4.765-4.504-4.718-4.355-4.369-2.982-6.95 1.387-2.608 2.467-3.67 4.032-3.964.727-.136 1.53-.499 1.785-.806.746-.899 1.967-.65 3.724.756 3.598 2.882 4.497 3.199 4.869 1.715.319-1.268 1.524-2.335 2.438-2.159 1.04.2 1.119 1.345.159 2.305-.87.87-1.092 2.213-.435 2.619.215.133 1.015 1.182 1.779 2.332 1.296 1.953 3.352 3.874 4.145 3.874.191 0 .769.45 1.286 1 .732.779 1.337 1 2.738 1 1.148 0 2.077.252 2.567.695 1.218 1.102 11.864 1.301 13.357.25 1.89-1.332 3.126-2.131 3.738-2.417.33-.155 1.118-.796 1.751-1.425.633-.629 2.073-1.739 3.2-2.466 4.147-2.677 5.849-4.761 5.849-7.163 0-3.813-1.724-4.135-4.841-.906-1.381 1.431-2.532 2.25-3.385 2.411-.712.133-1.495.485-1.741.782-.247.296-1.141.65-1.989.786-.847.135-1.766.517-2.041.849-.276.332-.979.604-1.563.604s-1.488.299-2.009.664c-.764.535-2.29.7-7.873.854l-6.926.19-.493-1.154c-.272-.635-.736-1.446-1.033-1.804-.384-.463-.505-1.666-.422-4.2l.116-3.55 6.4-.2 6.4-.2 1.88-1.441c1.677-1.285 2.224-1.469 5.067-1.706 1.753-.147 3.826-.533 4.607-.86.781-.326 2.472-.593 3.758-.593 2.904 0 4.947-1.595 4.091-3.195-.505-.943-1.39-.952-16.832-.17l-4.228.214-1.126-1.625c-1.07-1.543-1.501-1.834-2.417-1.63-.22.049-1.516.069-2.88.043-2.404-.044-2.525.003-3.964 1.559l-1.485 1.604h-3.286c-2.488 0-3.413.151-3.804.623-.285.343-1.072.875-1.749 1.182-.678.308-1.978 1.126-2.889 1.818-1.9 1.442-3.343 1.361-3.343-.188 0-.501-.367-1.243-.814-1.648-.719-.65-.801-1.141-.7-4.162L174.2 229l1.723-.124c.948-.068 2.478.144 3.4.473.923.328 3.735.688 6.25.8l4.574.203 3.254-3.176 3.254-3.176h4.44c5.278 0 5.705-.122 5.705-1.635 0-1.79 2.436-2.862 7-3.08 4.719-.225 7.083-1.572 9.274-5.285 1.403-2.378 1.332-2.4-7.823-2.4-7.492 0-8.431-.076-9.851-.8-.863-.44-1.783-.8-2.044-.8-.687 0-7.356-6.724-7.356-7.417 0-.337.38-.584.9-.586.495-.001 1.44-.36 2.1-.797.963-.638 1.88-.795 4.646-.797 3.43-.003 4.864-.522 6.048-2.189.162-.228.297-4.866.3-10.308l.006-9.893-1.135-1.271c-1.226-1.371-2.065-1.282-2.065.22 0 .503-.36 1.24-.8 1.638-.44.398-.8 1.118-.8 1.6s-.36 1.202-.8 1.6c-.44.398-.8 1.028-.8 1.4 0 .372-.327.972-.727 1.334-.4.362-1.143 1.515-1.652 2.562-.509 1.047-1.137 2.084-1.395 2.304-.429.365-2.318 3.387-3.839 6.142-1.861 3.37-2.403 3.721-5.211 3.375l-2.576-.317-.114-3.425c-.101-3.021-.019-3.512.7-4.162.447-.405.814-1.137.814-1.626 0-.489.27-1.113.6-1.387 1.774-1.472-.648-2.25-2.491-.8-2.209 1.738-3.975.889-4.181-2.008l-.128-1.792-2.4-.124c-4.89-.254-6.543.945-4.64 3.364.74.941.84 1.603.84 5.552 0 3.976.091 4.566.8 5.208.44.398.8 1.083.8 1.523 0 .463 1.509 2.359 3.596 4.516l3.596 3.716-1.52 2.619c-2.125 3.664-7.229 8.937-7.284 7.526-.006-.165-.051-4.38-.1-9.367-.095-9.813-.233-10.442-1.83-8.341-.582.765-1.444 1.758-1.916 2.207-.472.448-1.251 1.622-1.732 2.608-.481.986-1.07 2.153-1.31 2.593-.239.44-1.335 2.562-2.435 4.715-2.028 3.968-5.063 7.614-6.03 7.243-.897-.344-1.835-6.07-1.835-11.205 0-4.215-.095-4.915-.75-5.508-.789-.713-1.363-3.085-.986-4.068.246-.642 1.736-.802 1.736-.186 0 1.211 3.233 1.989 5.44 1.31l2.16-.666v-13.949l-1.759-2.043c-.967-1.124-3.921-4.242-6.563-6.929l-4.805-4.887-.999.787c-1.269.998-4.956 1.069-6.927.134-2.049-.972-2.547-1.947-2.547-4.984v-2.658l2.2-2.253c1.21-1.239 2.41-2.253 2.668-2.253s.755-.259 1.105-.576c1.131-1.023 6.051-.943 6.75.111.316.476.937.865 1.381.865.443 0 1.726.724 2.851 1.608 1.125.884 2.902 2.234 3.948 3l1.904 1.392h26.82l1.322-1.3c1.53-1.505 3.668-3.1 4.154-3.1.185 0 1.054-.69 1.932-1.534 1.059-1.018 2.113-1.618 3.13-1.783.844-.137 1.841-.526 2.216-.866.375-.339 1.127-.617 1.67-.617 1.21 0 1.949-.682 1.949-1.8 0-.462.211-1.051.469-1.309.359-.359.359-.711 0-1.499-.258-.566-.469-1.375-.469-1.797 0-1.256-1.3-1.595-6.125-1.595-3.489 0-4.69-.136-5.054-.574-.262-.316-1.049-.696-1.749-.845-.699-.148-1.542-.497-1.872-.775-.33-.278-1.257-.622-2.06-.766-.803-.144-1.664-.508-1.914-.809-.25-.301-1.061-.661-1.802-.8-.741-.139-1.448-.518-1.573-.842-.124-.324-.727-.593-1.338-.598-.612-.005-1.563-.361-2.113-.791-.55-.43-1.482-.786-2.071-.791-.59-.005-1.328-.266-1.642-.579-.314-.314-1.227-.845-2.029-1.18-.802-.335-1.458-.817-1.458-1.072 0-.255-.552-1.16-1.228-2.013l-1.227-1.55-8.873-.107L157 134.6l-.203-3.4c-.127-2.137-.461-3.875-.9-4.68-.518-.951-.697-2.215-.697-4.913 0-2.324-.216-4.15-.6-5.069-.747-1.788-.744-2.914.013-3.914.323-.428.588-1.598.59-2.6.001-1.147.297-2.27.797-3.024 1.072-1.619 1.072-4.546 0-5.909-.44-.56-.801-1.529-.803-2.154-.001-.625-.36-1.677-.797-2.337-.437-.66-.796-1.599-.797-2.088-.002-.488-.366-1.585-.811-2.437-.717-1.377-.756-1.772-.343-3.559.534-2.313.271-3.796-.875-4.942-.443-.443-.976-1.252-1.183-1.797-.486-1.278-1.843-1.773-4.917-1.794-2.576-.018-4.268-1.407-4.277-3.511-.001-.369-.36-1.212-.797-1.872-.437-.66-.796-1.491-.797-1.846-.002-.355-.363-1.104-.803-1.663-1.263-1.606-1.152-5.748.169-6.35 1.991-.907 5.431.78 5.431 2.664 0 .273.258.712.574.974.316.262.692 1.012.836 1.666.173.788.778 1.516 1.792 2.156.842.532 1.647 1.154 1.788 1.383.141.229.605.416 1.031.416.997 0 3.178 2.988 3.182 4.36.001.572.36 1.58.797 2.24.437.66.796 1.802.797 2.537.002.735.363 1.794.803 2.354.44.559.8 1.595.8 2.301 0 .776.316 1.57.8 2.008.44.398.8 1.043.8 1.433 0 .391.304 1.014.675 1.385.371.371 1.046 1.36 1.5 2.196.81 1.495 3.552 4.724 4.515 5.319.613.378 3.758-1.361 3.615-1.998-.058-.256-1.95-2.37-4.205-4.698-4.388-4.529-4.416-4.584-3.491-6.797.744-1.781.478-2.397-2.268-5.24l-1.931-2-.008-3c-.006-2.315-.189-3.274-.802-4.2-.437-.66-.796-1.715-.797-2.344-.002-.816-.591-1.787-2.053-3.386-1.127-1.234-2.472-2.912-2.988-3.73-.516-.818-1.754-2.405-2.75-3.527-.997-1.122-1.812-2.274-1.812-2.561 0-.586 2.751-4.252 3.191-4.252.157 0 .808-.462 1.447-1.027 2.851-2.521 4.478-3.773 4.903-3.773.253 0 .786-.315 1.187-.7 1.254-1.207 3.216-2.5 3.794-2.5.305 0 .88-.36 1.278-.8.559-.618 1.233-.8 2.962-.801 1.53-.002 2.652-.254 3.548-.8 1.235-.754 2.021-.799 13.901-.799 11.828 0 12.682-.049 14.085-.8.82-.44 1.725-.8 2.011-.8 1.196 0 .849-1.214-.845-2.957l-1.791-1.843h-10.585c-7.961 0-10.972-.136-12.145-.55-3.035-1.071-6.167-1.177-7.926-.269-.871.451-2.148.819-2.838.819-.745 0-1.546.324-1.977.8-.398.44-1.118.8-1.6.8s-1.202.36-1.6.8c-.398.44-1.063.8-1.478.8-.415 0-1.242.35-1.838.778-2.16 1.552-4.084 1.532-4.084-.041 0-2.139 7.326-9.979 11.671-12.489 1.097-.633 2.088-1.398 2.204-1.7.116-.301.506-.553.868-.559.361-.007 1.733-.727 3.048-1.6 1.316-.874 2.547-1.589 2.737-1.589.19 0 .803-.36 1.363-.8.559-.44 1.348-.8 1.753-.8.405 0 1.326-.359 2.046-.799.721-.439 1.687-.799 2.148-.8.461 0 1.164-.361 1.562-.801.463-.511 1.232-.8 2.13-.8.774 0 1.729-.291 2.122-.647.394-.356 1.578-.739 2.632-.851 1.054-.112 2.209-.459 2.567-.77.361-.315 1.87-.655 3.393-.765 1.509-.108 3.124-.447 3.59-.752 1.703-1.116 26.319-1.131 28.018-.017m14.09 135.922c-.518.573-1.455 1.681-2.081 2.461-1.878 2.338-5.638 1.345-6.745-1.781-.188-.532-.343-.53-1.364.013-1.533.816-1.874 3.79-.571 4.97.451.408.819 1.036.819 1.398 0 1.211 1.057 2.392 8.546 9.542 8.122 7.756 10.333 8.947 13.481 7.263 2.045-1.095 2.25-4.981.318-6.015-1.808-.968-.483-3.155 1.929-3.185.619-.008 1.576-.272 2.126-.586.55-.314 1.558-.578 2.239-.586.957-.011 1.812-.559 3.761-2.414 1.964-1.868 2.795-2.4 3.755-2.4 2.035 0 7.579-6.399 6.489-7.489-.139-.139-3.895-.383-8.348-.543-4.453-.16-8.906-.482-9.896-.715-.99-.234-4.436-.549-7.658-.7l-5.857-.274-.943 1.041m-1.442 33.745c-.666.269-.613 1.352.113 2.311.323.428.59 1.508.593 2.4.007 1.809.195 2.198 1.486 3.079 3.756 2.564 4.605 9.145 1.179 9.145-2.164 0-4.532 2.106-4.137 3.679.658 2.623 2.948 3.28 7.937 2.278 2.624-.527 4.729.233 4.729 1.707 0 1.477-3.76 4.783-5.719 5.027-1.803.225-3.881 1.782-3.881 2.907 0 .357-.264.998-.587 1.426-1.473 1.946-.037 3.379 3.376 3.37 2.752-.008 2.986-.17 3.442-2.394.4-1.946 1.574-2.592 2.825-1.553 1.289 1.069-.538 4.742-2.856 5.742-3.368 1.453-5.93 5.326-4.011 6.062.324.125.704.839.845 1.588.387 2.064.693 1.856 7.674-5.207l6.492-6.568v-3.251c0-3.191.021-3.261 1.134-3.732 4.671-1.98 6.475-4.952 6.557-10.8.082-5.846-.354-6.36-5.249-6.195l-3.391.114-.884 1.6c-.487.88-1.272 2.35-1.746 3.268-1.524 2.95-2.798 3.206-2.815.563-.003-.532-.284-1.275-.623-1.65-.34-.375-.727-1.379-.861-2.231-.134-.853-.486-1.694-.783-1.87-.296-.176-.539-.718-.539-1.206 0-3.84-7.426-10.769-10.3-9.609"/>
</svg>
